<svg width="613" height="225" viewBox="0 0 613 225" fill="none" xmlns="http://www.w3.org/2000/svg">
<g clip-path="url(#clip0_13676_37302)">
<path d="M131.212 80.7441H485.336C489.376 80.7441 493.376 81.5406 497.108 83.0881C500.84 84.6355 504.231 86.9037 507.088 89.7629C509.944 92.6222 512.209 96.0165 513.754 99.7521C515.299 103.488 516.094 107.491 516.092 111.534V157.734H101.234V110.734C101.237 102.779 104.397 95.1513 110.018 89.5274C115.64 83.9035 123.263 80.7441 131.212 80.7441Z" fill="#D5D4FF"/>
<path d="M547.986 156.635H78.0195V181.625H547.986V156.635Z" fill="#5955B7"/>
<path d="M94.2074 141.145H94.1974C85.2626 141.145 78.0195 148.393 78.0195 157.335V186.915C78.0195 195.856 85.2626 203.105 94.1974 203.105H94.2074C103.142 203.105 110.385 195.856 110.385 186.915V157.335C110.385 148.393 103.142 141.145 94.2074 141.145Z" fill="#D5D4FF"/>
<path d="M531.809 141.145H531.799C522.864 141.145 515.621 148.393 515.621 157.335V186.915C515.621 195.856 522.864 203.105 531.799 203.105H531.809C540.744 203.105 547.987 195.856 547.987 186.915V157.335C547.987 148.393 540.744 141.145 531.809 141.145Z" fill="#D5D4FF"/>
<path d="M547.986 179.863H78.0195V204.853H547.986V179.863Z" fill="#D5D4FF"/>
<path d="M216.875 91.9744V107.054C216.874 107.752 216.716 108.44 216.414 109.068C216.112 109.696 215.673 110.249 215.129 110.685C214.586 111.121 213.952 111.43 213.274 111.589C212.595 111.749 211.89 111.754 211.209 111.604C206.363 110.604 202.006 111.684 198.599 117.034C196.904 119.712 196.078 122.848 196.236 126.014C196.393 129.18 197.526 132.219 199.478 134.714C202.866 138.994 206.783 139.914 211.06 138.924C211.749 138.777 212.462 138.787 213.146 138.953C213.831 139.12 214.469 139.438 215.014 139.884C215.559 140.331 215.997 140.894 216.295 141.533C216.593 142.172 216.743 142.869 216.735 143.574V168.124C216.733 169.348 216.245 170.52 215.38 171.385C214.514 172.249 213.342 172.734 212.119 172.734C192.56 172.734 173.008 172.734 153.463 172.734C147.922 172.713 142.614 170.5 138.698 166.577C134.781 162.654 132.574 157.34 132.559 151.794C132.559 131.914 132.559 112.041 132.559 92.1743V91.9343C132.577 90.7079 133.077 89.538 133.95 88.6773C134.823 87.8166 135.999 87.3342 137.225 87.3344H165.704C172.868 87.3344 174.057 85.5744 171.33 79.0344C168.981 73.4044 169.89 70.1043 174.457 67.6143C179.024 65.1243 186.378 66.3543 188.337 70.8243C189.336 73.1443 188.946 76.6044 188.057 79.1544C185.849 85.4744 186.888 87.3143 193.673 87.3243H212.239C213.468 87.3322 214.644 87.825 215.512 88.6956C216.38 89.5662 216.87 90.7445 216.875 91.9744Z" fill="#1F1E24"/>
<path d="M163.994 137.383C169.22 137.383 173.457 132.624 173.457 126.753C173.457 120.882 169.22 116.123 163.994 116.123C158.768 116.123 154.531 120.882 154.531 126.753C154.531 132.624 158.768 137.383 163.994 137.383Z" fill="white"/>
<path d="M178.373 137.055C183.599 137.055 187.836 132.296 187.836 126.425C187.836 120.554 183.599 115.795 178.373 115.795C173.147 115.795 168.91 120.554 168.91 126.425C168.91 132.296 173.147 137.055 178.373 137.055Z" fill="white"/>
<path d="M161.755 132.125C164.586 132.125 166.881 129.497 166.881 126.255C166.881 123.013 164.586 120.385 161.755 120.385C158.924 120.385 156.629 123.013 156.629 126.255C156.629 129.497 158.924 132.125 161.755 132.125Z" fill="#231815"/>
<path d="M176.564 132.074C179.395 132.074 181.69 129.446 181.69 126.204C181.69 122.962 179.395 120.334 176.564 120.334C173.733 120.334 171.438 122.962 171.438 126.204C171.438 129.446 173.733 132.074 176.564 132.074Z" fill="#231815"/>
<path d="M164.754 144.034C164.155 144.294 165.314 143.844 165.434 143.814C165.734 143.714 166.033 143.624 166.343 143.544C166.653 143.464 166.963 143.404 167.272 143.334C167.402 143.334 168.672 143.124 167.942 143.214C169.325 143.061 170.718 143.007 172.109 143.054C173.498 143.054 174.887 143.184 176.266 143.344C175.556 143.264 176.645 143.414 176.785 143.434C177.155 143.504 177.515 143.574 177.885 143.664C178.607 143.836 179.315 144.063 180.003 144.344C180.865 144.575 181.784 144.457 182.56 144.015C183.336 143.573 183.907 142.844 184.15 141.984C184.36 141.122 184.232 140.212 183.794 139.441C183.356 138.669 182.639 138.094 181.792 137.834C178.577 136.739 175.194 136.217 171.799 136.294C168.221 136.17 164.658 136.825 161.357 138.214C159.728 138.914 159.239 141.424 160.148 142.824C160.616 143.579 161.356 144.125 162.215 144.35C163.074 144.575 163.986 144.462 164.764 144.034H164.754Z" fill="#B87EEE"/>
<path d="M180.371 141.364H180.231C170.598 138.544 163.884 141.364 163.814 141.364C163.69 141.412 163.553 141.41 163.43 141.36C163.308 141.31 163.209 141.215 163.154 141.094C163.104 140.972 163.105 140.835 163.155 140.713C163.206 140.592 163.302 140.495 163.424 140.444C163.704 140.314 170.519 137.494 180.511 140.444C180.575 140.461 180.634 140.491 180.686 140.532C180.738 140.573 180.781 140.624 180.813 140.682C180.845 140.739 180.864 140.803 180.871 140.869C180.877 140.935 180.871 141.001 180.851 141.064C180.811 141.157 180.743 141.235 180.657 141.288C180.572 141.342 180.472 141.368 180.371 141.364Z" fill="black"/>
<path d="M162.666 114.775C164.658 114.775 166.273 113.772 166.273 112.535C166.273 111.298 164.658 110.295 162.666 110.295C160.674 110.295 159.059 111.298 159.059 112.535C159.059 113.772 160.674 114.775 162.666 114.775Z" fill="#B87EEE"/>
<path d="M178.803 114.044C180.795 114.044 182.41 113.042 182.41 111.804C182.41 110.567 180.795 109.564 178.803 109.564C176.81 109.564 175.195 110.567 175.195 111.804C175.195 113.042 176.81 114.044 178.803 114.044Z" fill="#B87EEE"/>
<path d="M171.078 119.574L154.57 125.094C154.9 120.924 157.178 117.384 160.766 116.184C164.353 114.984 168.32 116.444 171.078 119.574Z" fill="#1F1E24"/>
<path d="M187.617 123.773L170.93 119.603C173.418 116.313 177.195 114.603 180.822 115.483C184.449 116.363 186.968 119.693 187.617 123.773Z" fill="#1F1E24"/>
<path d="M168.151 169.121H168.641C169.701 169.121 170.718 169.543 171.467 170.293C172.217 171.043 172.638 172.06 172.638 173.121V201.261H163.984V173.261C163.995 172.161 164.438 171.11 165.218 170.335C165.998 169.56 167.052 169.124 168.151 169.121Z" fill="white" stroke="#231815" stroke-width="2" stroke-linecap="round" stroke-linejoin="round"/>
<path d="M133.258 201.042C133.258 201.042 131.499 180.972 156.131 190.652C156.131 190.652 164.045 193.062 172.658 201.272L133.258 201.042Z" fill="white" stroke="#231815" stroke-width="2" stroke-linecap="round" stroke-linejoin="round"/>
<path d="M182.871 201.031H179.873V173.231C179.873 172.078 180.332 170.971 181.147 170.155C181.962 169.34 183.067 168.881 184.22 168.881C185.368 168.881 186.468 169.337 187.28 170.149C188.091 170.962 188.547 172.063 188.547 173.211V195.321C188.547 196.836 187.946 198.288 186.876 199.359C185.806 200.43 184.354 201.031 182.841 201.031H182.871Z" fill="white" stroke="#231815" stroke-width="2" stroke-linecap="round" stroke-linejoin="round"/>
<path d="M215.593 184.482C215.593 184.482 208.598 165.592 190.492 184.892C190.492 184.892 184.367 190.462 180.09 201.572L215.593 184.482Z" fill="white" stroke="#231815" stroke-width="2" stroke-linecap="round" stroke-linejoin="round"/>
<path d="M199.47 196.662C209.285 192.138 216.547 186.962 215.691 185.101C214.834 183.24 206.183 185.398 196.369 189.922C186.554 194.446 179.292 199.622 180.149 201.483C181.005 203.344 189.656 201.185 199.47 196.662Z" fill="#231815" stroke="#231815" stroke-width="2" stroke-linecap="round" stroke-linejoin="round"/>
</g>
<g clip-path="url(#clip1_13676_37302)">
<path d="M539.932 0.0429688H528.98V224.043H539.932V0.0429688Z" fill="#575395"/>
<path d="M577.475 0.0429688H566.523V224.043H577.475V0.0429688Z" fill="#575395"/>
<path d="M612.077 0.0429688H601.125V224.043H612.077V0.0429688Z" fill="#575395"/>
<path d="M11.0299 0.0429688H0.078125V224.043H11.0299V0.0429688Z" fill="#575395"/>
<path d="M45.6315 0.0429688H34.6797V224.043H45.6315V0.0429688Z" fill="#575395"/>
<path d="M556.291 116.413H540.193C538.537 116.413 537.195 117.756 537.195 119.414V146.088C537.195 147.746 538.537 149.089 540.193 149.089H556.291C557.947 149.089 559.289 147.746 559.289 146.088V119.414C559.289 117.756 557.947 116.413 556.291 116.413Z" fill="#575395"/>
<path d="M548.028 133.527C550.886 133.527 553.204 131.207 553.204 128.346C553.204 125.485 550.886 123.165 548.028 123.165C545.169 123.165 542.852 125.485 542.852 128.346C542.852 131.207 545.169 133.527 548.028 133.527Z" fill="#AAA3FB"/>
<path d="M550.083 131.477H545.977V141.258H550.083V131.477Z" fill="#AAA3FB"/>
<path d="M479.917 55.6832C486.501 55.6832 491.838 51.7426 491.838 46.8817C491.838 42.0207 486.501 38.0801 479.917 38.0801C473.333 38.0801 467.996 42.0207 467.996 46.8817C467.996 51.7426 473.333 55.6832 479.917 55.6832Z" fill="#E8E6FE"/>
<path d="M511.075 38.7901V47.3916H448.762V38.7901C454.757 27.128 466.499 19.2266 479.928 19.2266C493.358 19.2266 505.05 27.128 511.075 38.7901Z" fill="#17171C"/>
<path d="M482.055 0.433594H477.758V30.569H482.055V0.433594Z" fill="#17171C"/>
</g>
<defs>
<clipPath id="clip0_13676_37302">
<rect width="469.967" height="209.34" fill="white" transform="translate(78.0195 7.33398)"/>
</clipPath>
<clipPath id="clip1_13676_37302">
<rect width="612" height="224" fill="white" transform="translate(0.078125 0.0429688)"/>
</clipPath>
</defs>
</svg>
