<svg width="242" height="123" viewBox="0 0 242 123" fill="none" xmlns="http://www.w3.org/2000/svg">
<g clip-path="url(#clip0_13676_39342)">
<path d="M27.326 45.3438H209.248C211.324 45.3437 213.379 45.7529 215.296 46.5479C217.213 47.3429 218.955 48.5081 220.423 49.9769C221.89 51.4458 223.054 53.1895 223.847 55.1086C224.641 57.0276 225.049 59.0844 225.049 61.1613V84.8954H11.9258V60.7504C11.9271 56.6638 13.5503 52.7451 16.4382 49.8559C19.3261 46.9668 23.2425 45.3437 27.326 45.3438Z" fill="#D5D4FF"/>
<path d="M241.434 84.3301H0V97.1681H241.434V84.3301Z" fill="#5955B7"/>
<path d="M8.31609 76.373H8.31096C3.72094 76.373 0 80.0968 0 84.6903V99.8862C0 104.48 3.72094 108.203 8.31096 108.203H8.31609C12.9061 108.203 16.627 104.48 16.627 99.8862V84.6903C16.627 80.0968 12.9061 76.373 8.31609 76.373Z" fill="#D5D4FF"/>
<path d="M233.121 76.373H233.116C228.526 76.373 224.805 80.0968 224.805 84.6903V99.8862C224.805 104.48 228.526 108.203 233.116 108.203H233.121C237.711 108.203 241.432 104.48 241.432 99.8862V84.6903C241.432 80.0968 237.711 76.373 233.121 76.373Z" fill="#D5D4FF"/>
<path d="M241.434 96.2627H0V109.101H241.434V96.2627Z" fill="#D5D4FF"/>
<path d="M71.3351 51.1104V58.8574C71.3342 59.2156 71.2532 59.569 71.098 59.8917C70.9428 60.2145 70.7173 60.4983 70.4382 60.7225C70.159 60.9467 69.8333 61.1054 69.4848 61.1872C69.1364 61.2689 68.774 61.2715 68.4244 61.1948C65.9347 60.6811 63.6966 61.2359 61.9461 63.9843C61.0752 65.3597 60.6511 66.9712 60.732 68.5974C60.8129 70.2237 61.3947 71.785 62.3978 73.067C64.138 75.2658 66.1504 75.7384 68.3475 75.2298C68.7014 75.1543 69.0677 75.1594 69.4194 75.2447C69.7711 75.3301 70.099 75.4935 70.379 75.7229C70.659 75.9523 70.8839 76.2418 71.037 76.5699C71.19 76.8981 71.2673 77.2565 71.2632 77.6186V90.2305C71.2618 90.8591 71.0114 91.4615 70.5668 91.9055C70.1221 92.3495 69.5197 92.5988 68.8916 92.5988C58.8439 92.5988 48.7995 92.5988 38.7585 92.5988C35.9119 92.588 33.1852 91.4508 31.1733 89.4355C29.1613 87.4201 28.0276 84.6902 28.0195 81.8414C28.0195 71.6286 28.0195 61.4191 28.0195 51.2131V51.0898C28.029 50.4598 28.2857 49.8588 28.7343 49.4166C29.1828 48.9745 29.7872 48.7267 30.4168 48.7267H45.0469C48.7276 48.7267 49.3385 47.8226 47.9371 44.4628C46.7308 41.5705 47.1978 39.8752 49.5438 38.5961C51.8898 37.3169 55.668 37.9488 56.6741 40.2451C57.1875 41.437 56.9873 43.2145 56.5304 44.5245C55.3959 47.7712 55.9299 48.7164 59.4154 48.7216H68.9532C69.5845 48.7256 70.1889 48.9788 70.6348 49.426C71.0808 49.8733 71.3324 50.4786 71.3351 51.1104Z" fill="#1F1E24"/>
<path d="M44.1699 74.4394C46.8547 74.4394 49.0312 71.9944 49.0312 68.9785C49.0312 65.9625 46.8547 63.5176 44.1699 63.5176C41.4851 63.5176 39.3086 65.9625 39.3086 68.9785C39.3086 71.9944 41.4851 74.4394 44.1699 74.4394Z" fill="white"/>
<path d="M51.5566 74.2704C54.2415 74.2704 56.418 71.8255 56.418 68.8095C56.418 65.7936 54.2415 63.3486 51.5566 63.3486C48.8718 63.3486 46.6953 65.7936 46.6953 68.8095C46.6953 71.8255 48.8718 74.2704 51.5566 74.2704Z" fill="white"/>
<path d="M43.0202 71.7391C44.4746 71.7391 45.6536 70.389 45.6536 68.7236C45.6536 67.0581 44.4746 65.708 43.0202 65.708C41.5657 65.708 40.3867 67.0581 40.3867 68.7236C40.3867 70.389 41.5657 71.7391 43.0202 71.7391Z" fill="#231815"/>
<path d="M50.6256 71.7118C52.08 71.7118 53.259 70.3617 53.259 68.6962C53.259 67.0308 52.08 65.6807 50.6256 65.6807C49.1712 65.6807 47.9922 67.0308 47.9922 68.6962C47.9922 70.3617 49.1712 71.7118 50.6256 71.7118Z" fill="#231815"/>
<path d="M44.5599 77.8569C44.2519 77.9904 44.8475 77.7592 44.9091 77.7438C45.0631 77.6925 45.217 77.6462 45.3762 77.6051C45.5353 77.564 45.6944 77.5332 45.8535 77.4973C45.9203 77.4973 46.5723 77.3894 46.1975 77.4356C46.9082 77.3569 47.6235 77.3295 48.3381 77.3534C49.0517 77.3534 49.7652 77.4202 50.4736 77.5024C50.1091 77.4613 50.6687 77.5383 50.7405 77.5486C50.9305 77.5846 51.1153 77.6205 51.3052 77.6668C51.6764 77.7552 52.0402 77.872 52.3935 78.0161C52.8365 78.1346 53.3083 78.0739 53.707 77.847C54.1057 77.6202 54.3992 77.2454 54.5239 76.8037C54.6316 76.3608 54.5662 75.8934 54.341 75.4971C54.1158 75.1008 53.7478 74.8056 53.3124 74.6718C51.6608 74.1091 49.9232 73.8413 48.179 73.8806C46.3406 73.8171 44.5103 74.1536 42.8146 74.867C41.9779 75.2266 41.7263 76.516 42.1935 77.2353C42.4341 77.623 42.8141 77.9037 43.2554 78.0193C43.6966 78.135 44.1654 78.0768 44.565 77.8569H44.5599Z" fill="#B87EEE"/>
<path d="M52.5826 76.4845H52.5106C47.562 75.0358 44.1124 76.4845 44.0765 76.4845C44.013 76.509 43.9426 76.5082 43.8796 76.4824C43.8166 76.4566 43.7659 76.4078 43.7378 76.3458C43.7122 76.2831 43.7124 76.2128 43.7384 76.1503C43.7643 76.0878 43.8139 76.038 43.8764 76.0119C44.0201 75.9451 47.521 74.4964 52.6544 76.0119C52.6871 76.0207 52.7177 76.0361 52.7444 76.057C52.771 76.078 52.7932 76.1041 52.8095 76.1339C52.8258 76.1637 52.8359 76.1964 52.8392 76.2302C52.8426 76.2639 52.8391 76.298 52.829 76.3304C52.8083 76.378 52.7736 76.4182 52.7296 76.4457C52.6856 76.4732 52.6344 76.4868 52.5826 76.4845Z" fill="black"/>
<path d="M43.4899 62.8249C44.5133 62.8249 45.343 62.3097 45.343 61.6742C45.343 61.0386 44.5133 60.5234 43.4899 60.5234C42.4664 60.5234 41.6367 61.0386 41.6367 61.6742C41.6367 62.3097 42.4664 62.8249 43.4899 62.8249Z" fill="#B87EEE"/>
<path d="M51.7789 62.4499C52.8024 62.4499 53.6321 61.9347 53.6321 61.2992C53.6321 60.6636 52.8024 60.1484 51.7789 60.1484C50.7555 60.1484 49.9258 60.6636 49.9258 61.2992C49.9258 61.9347 50.7555 62.4499 51.7789 62.4499Z" fill="#B87EEE"/>
<path d="M47.8085 65.2894L39.3281 68.1251C39.4975 65.9829 40.6679 64.1643 42.5108 63.5478C44.3537 62.9314 46.3917 63.6814 47.8085 65.2894Z" fill="#1F1E24"/>
<path d="M56.3071 67.446L47.7344 65.3038C49.0126 63.6136 50.953 62.7351 52.8164 63.1872C54.6798 63.6393 55.9734 65.35 56.3071 67.446Z" fill="#1F1E24"/>
<path d="M46.3008 90.7412H46.5523C47.0969 90.7412 47.6192 90.9577 48.0043 91.3431C48.3893 91.7285 48.6057 92.2511 48.6057 92.7961V107.252H44.1602V92.868C44.1656 92.303 44.3933 91.7628 44.794 91.3647C45.1947 90.9666 45.7361 90.7425 46.3008 90.7412Z" fill="white" stroke="#231815" stroke-width="1.02745" stroke-linecap="round" stroke-linejoin="round"/>
<path d="M28.3774 107.14C28.3774 107.14 27.4739 96.8299 40.1277 101.803C40.1277 101.803 44.1933 103.041 48.6183 107.259L28.3774 107.14Z" fill="white" stroke="#231815" stroke-width="1.02745" stroke-linecap="round" stroke-linejoin="round"/>
<path d="M53.8655 107.137H52.3255V92.8552C52.3255 92.2625 52.5608 91.6941 52.9796 91.275C53.3984 90.8559 53.9663 90.6205 54.5586 90.6205C55.1481 90.6205 55.7135 90.8548 56.1303 91.272C56.5472 91.6891 56.7812 92.2549 56.7812 92.8449V104.203C56.7812 104.981 56.4725 105.727 55.9228 106.278C55.3731 106.828 54.6275 107.137 53.8501 107.137H53.8655Z" fill="white" stroke="#231815" stroke-width="1.02745" stroke-linecap="round" stroke-linejoin="round"/>
<path d="M70.6764 98.6331C70.6764 98.6331 67.083 88.9288 57.7813 98.8437C57.7813 98.8437 54.6346 101.705 52.4375 107.413L70.6764 98.6331Z" fill="white" stroke="#231815" stroke-width="1.02745" stroke-linecap="round" stroke-linejoin="round"/>
<path d="M62.3908 104.89C67.4329 102.566 71.1635 99.9069 70.7235 98.9509C70.2835 97.9948 65.8394 99.1037 60.7974 101.428C55.7554 103.752 52.0247 106.411 52.4647 107.367C52.9047 108.323 57.3488 107.214 62.3908 104.89Z" fill="#231815" stroke="#231815" stroke-width="1.02745" stroke-linecap="round" stroke-linejoin="round"/>
</g>
<defs>
<clipPath id="clip0_13676_39342">
<rect width="241.434" height="121.785" fill="white" transform="translate(0 0.505859)"/>
</clipPath>
</defs>
</svg>
