<svg width="24" height="25" viewBox="0 0 24 25" fill="none" xmlns="http://www.w3.org/2000/svg">
<path d="M6.66667 5.89453L5 7.5612" stroke="white" stroke-width="1.66667" stroke-linecap="round"/>
<path d="M18.3333 5.89453L20 7.5612" stroke="white" stroke-width="1.66667" stroke-linecap="round"/>
<path fill-rule="evenodd" clip-rule="evenodd" d="M12.5007 19.2279C16.1825 19.2279 19.1673 16.2431 19.1673 12.5612C19.1673 8.8793 16.1825 5.89453 12.5007 5.89453C8.81875 5.89453 5.83398 8.8793 5.83398 12.5612C5.83398 16.2431 8.81875 19.2279 12.5007 19.2279ZM14.8193 10.9981C15.1069 10.6387 15.0486 10.1143 14.6892 9.82682C14.3298 9.53931 13.8054 9.59757 13.5179 9.95696L12.3285 11.4437L10.4642 10.2008C10.0813 9.94554 9.56387 10.049 9.30858 10.432C9.05328 10.8149 9.15676 11.3323 9.5397 11.5876L11.8808 13.1483C12.3304 13.448 12.9345 13.3542 13.272 12.9323L14.8193 10.9981Z" fill="white"/>
</svg>
