<svg width="25" height="24" viewBox="0 0 25 24" fill="none" xmlns="http://www.w3.org/2000/svg">
<path d="M9.6577 6.9315L14.2684 11.6163C14.3696 11.7185 14.4263 11.8565 14.4263 12.0003C14.4263 12.144 14.3696 12.282 14.2684 12.3842L9.6587 17.069C9.55763 17.1719 9.501 17.3103 9.501 17.4545C9.501 17.5987 9.55763 17.7371 9.6587 17.84C9.70808 17.8906 9.76709 17.9309 9.83226 17.9584C9.89744 17.9858 9.96745 18 10.0382 18C10.1089 18 10.1789 17.9858 10.2441 17.9584C10.3093 17.9309 10.3683 17.8906 10.4177 17.84L15.0274 13.1562C15.3303 12.8477 15.5 12.4326 15.5 12.0003C15.5 11.5679 15.3303 11.1528 15.0274 10.8443L10.4177 6.16053C10.3683 6.10973 10.3092 6.06935 10.2439 6.04178C10.1787 6.01421 10.1085 6 10.0377 6C9.96683 6 9.8967 6.01421 9.83143 6.04178C9.76617 6.06935 9.70709 6.10973 9.6577 6.16053C9.55663 6.26338 9.5 6.40182 9.5 6.54601C9.5 6.69021 9.55663 6.82865 9.6577 6.9315Z" fill="#252730"/>
</svg>
