<svg width="24" height="24" viewBox="0 0 24 24" fill="none" xmlns="http://www.w3.org/2000/svg">
<path d="M9.1577 6.9315L13.7684 11.6163C13.8696 11.7185 13.9263 11.8565 13.9263 12.0003C13.9263 12.144 13.8696 12.282 13.7684 12.3842L9.1587 17.069C9.05763 17.1719 9.001 17.3103 9.001 17.4545C9.001 17.5987 9.05763 17.7371 9.1587 17.84C9.20808 17.8906 9.26709 17.9309 9.33226 17.9584C9.39744 17.9858 9.46745 18 9.53818 18C9.60891 18 9.67892 17.9858 9.7441 17.9584C9.80927 17.9309 9.86828 17.8906 9.91766 17.84L14.5274 13.1562C14.8303 12.8477 15 12.4326 15 12.0003C15 11.5679 14.8303 11.1528 14.5274 10.8443L9.91766 6.16053C9.86827 6.10973 9.80919 6.06935 9.74393 6.04178C9.67866 6.01421 9.60853 6 9.53768 6C9.46683 6 9.3967 6.01421 9.33143 6.04178C9.26617 6.06935 9.20709 6.10973 9.1577 6.16053C9.05663 6.26338 9 6.40182 9 6.54601C9 6.69021 9.05663 6.82865 9.1577 6.9315Z" fill="white"/>
</svg>
