<svg width="20" height="12" viewBox="0 0 20 12" fill="none" xmlns="http://www.w3.org/2000/svg">
<path d="M1.67944 1.02754C1.58397 0.937322 1.47166 0.866793 1.34893 0.819977C1.2262 0.773161 1.09546 0.750977 0.964154 0.754691C0.832852 0.758406 0.703567 0.787946 0.583681 0.841624C0.463795 0.895303 0.355656 0.972069 0.265438 1.06754C0.17522 1.16301 0.10469 1.27532 0.057874 1.39805C0.0110585 1.52077 -0.0111256 1.65152 -0.00741126 1.78282C-0.00369693 1.91413 0.0258429 2.04341 0.0795216 2.1633C0.1332 2.28318 0.209967 2.39132 0.305438 2.48154L9.30544 10.9815C9.49111 11.1571 9.73693 11.2549 9.99244 11.2549C10.2479 11.2549 10.4938 11.1571 10.6794 10.9815L19.6804 2.48154C19.778 2.39192 19.8568 2.28381 19.9122 2.16348C19.9676 2.04315 19.9986 1.91301 20.0033 1.78062C20.008 1.64822 19.9864 1.51621 19.9396 1.39226C19.8929 1.2683 19.822 1.15487 19.731 1.05855C19.64 0.962226 19.5309 0.884937 19.4098 0.831171C19.2887 0.777404 19.1581 0.748232 19.0257 0.745348C18.8933 0.742463 18.7616 0.765924 18.6383 0.814368C18.5149 0.862812 18.4025 0.935273 18.3074 1.02754L9.99244 8.87954L1.67944 1.02754Z" fill="white"/>
</svg>
