<svg width="64" height="65" viewBox="0 0 64 65" fill="none" xmlns="http://www.w3.org/2000/svg">
<circle cx="32" cy="32.5" r="32" fill="#D9D9D9"/>
<path d="M31.4 38.6612L38.796 31.2652C37.5518 30.7454 36.4218 29.9864 35.47 29.0312C34.5144 28.0793 33.755 26.9489 33.235 25.7042L25.839 33.1002C25.262 33.6772 24.973 33.9662 24.725 34.2842C24.4324 34.6597 24.1813 35.0657 23.976 35.4952C23.803 35.8592 23.674 36.2472 23.416 37.0212L22.054 41.1042C21.9913 41.2912 21.982 41.4919 22.0272 41.6838C22.0723 41.8758 22.1701 42.0513 22.3095 42.1907C22.4489 42.3302 22.6245 42.4279 22.8164 42.4731C23.0083 42.5182 23.2091 42.5089 23.396 42.4462L27.479 41.0842C28.254 40.8262 28.641 40.6972 29.005 40.5242C29.4364 40.3189 29.84 40.0692 30.216 39.7752C30.534 39.5272 30.823 39.2382 31.4 38.6612ZM40.848 29.2132C41.5855 28.4758 41.9997 27.4756 41.9997 26.4327C41.9997 25.3898 41.5855 24.3896 40.848 23.6522C40.1106 22.9148 39.1104 22.5005 38.0675 22.5005C37.0246 22.5005 36.0245 22.9148 35.287 23.6522L34.4 24.5392L34.438 24.6502C34.875 25.901 35.5903 27.0362 36.53 27.9702C37.492 28.938 38.6669 29.6675 39.961 30.1002L40.848 29.2132Z" fill="black"/>
</svg>
