<svg width="64" height="65" viewBox="0 0 64 65" fill="none" xmlns="http://www.w3.org/2000/svg">
<circle cx="32" cy="32.8948" r="32" fill="#F6F5FE"/>
<path d="M31.399 39.0557L38.795 31.6597C37.5508 31.14 36.4208 30.3809 35.469 29.4257C34.5134 28.4738 33.754 27.3434 33.234 26.0987L25.838 33.4947C25.261 34.0717 24.972 34.3607 24.724 34.6787C24.4314 35.0542 24.1803 35.4602 23.975 35.8897C23.802 36.2537 23.673 36.6417 23.415 37.4157L22.053 41.4987C21.9904 41.6857 21.9811 41.8864 22.0262 42.0784C22.0713 42.2703 22.1691 42.4458 22.3085 42.5853C22.4479 42.7247 22.6235 42.8225 22.8154 42.8676C23.0074 42.9127 23.2081 42.9034 23.395 42.8407L27.478 41.4787C28.253 41.2207 28.64 41.0917 29.004 40.9187C29.4354 40.7134 29.839 40.4637 30.215 40.1697C30.533 39.9217 30.822 39.6327 31.399 39.0557ZM40.847 29.6077C41.5845 28.8703 41.9988 27.8701 41.9988 26.8272C41.9988 25.7844 41.5845 24.7842 40.847 24.0467C40.1096 23.3093 39.1094 22.895 38.0665 22.895C37.0237 22.895 36.0235 23.3093 35.286 24.0467L34.399 24.9337L34.437 25.0447C34.874 26.2955 35.5893 27.4307 36.529 28.3647C37.491 29.3326 38.6659 30.062 39.96 30.4947L40.847 29.6077Z" fill="#6659F4"/>
</svg>
