<svg width="478" height="44" viewBox="0 0 478 44" fill="none" xmlns="http://www.w3.org/2000/svg">
<rect width="478" height="44" rx="12" fill="#6659F4"/>
<path d="M216.891 18.1719C216.891 19.7031 218.031 21.2031 220.25 21.8125L219.453 23.1562C217.828 22.7188 216.672 21.7656 216.047 20.5469C215.422 21.8906 214.242 22.9297 212.562 23.4062L211.734 22.0625C213.969 21.4375 215.156 19.8594 215.156 18.1719V18.1406H212.203V16.7656H215.156V15.2031H216.906V16.7656H219.844V18.1406H216.891V18.1719ZM222.953 15.2656V18.6719H224.922V20.1094H222.953V23.5781H221.219V15.2656H222.953ZM222.953 24.1719V29.2188H213.828V24.1719H222.953ZM215.547 25.5469V27.8125H221.234V25.5469H215.547ZM229.5 16.2969C230.781 16.2969 231.836 17.0078 232.469 18.25H235.766V15.2656H237.484V29.4062H235.766V24.0625H232.594C231.984 25.4688 230.867 26.2812 229.5 26.2812C227.375 26.2812 225.875 24.3594 225.875 21.2812C225.875 18.2344 227.375 16.2969 229.5 16.2969ZM229.5 17.8594C228.328 17.8594 227.531 19.125 227.547 21.2812C227.531 23.4531 228.328 24.7188 229.5 24.7188C230.672 24.7188 231.453 23.4531 231.469 21.2812C231.453 19.125 230.672 17.8594 229.5 17.8594ZM232.953 19.6719C233.055 20.1641 233.109 20.7031 233.109 21.2812C233.109 21.7734 233.07 22.2266 233 22.6562H235.766V19.6719H232.953ZM250.531 15.2656V20.8906H252.703V22.3281H250.531V29.3906H248.812V15.2656H250.531ZM247.719 17.4375V18.8281H239.391V17.4375H242.734V15.4688H244.469V17.4375H247.719ZM243.609 19.75C245.641 19.75 247.156 21.125 247.156 23.0781C247.156 25.0312 245.641 26.3906 243.609 26.3906C241.547 26.3906 240.031 25.0312 240.047 23.0781C240.031 21.125 241.547 19.75 243.609 19.75ZM243.609 21.1719C242.5 21.1719 241.703 21.9219 241.703 23.0781C241.703 24.2344 242.5 24.9688 243.609 24.9531C244.688 24.9688 245.484 24.2344 245.5 23.0781C245.484 21.9219 244.688 21.1719 243.609 21.1719ZM265.094 15.2656V29.3906H263.344V15.2656H265.094ZM260.875 16.7656C260.875 20.9688 259.25 24.5469 254.297 26.8906L253.391 25.5C257.086 23.7422 258.805 21.3516 259.109 18.1406H254.109V16.7656H260.875Z" fill="white"/>
</svg>
