<svg width="44" height="44" viewBox="0 0 44 44" fill="none" xmlns="http://www.w3.org/2000/svg">
<rect x="44" y="44" width="44" height="44" rx="12" transform="rotate(-180 44 44)" fill="#6659F4"/>
<path d="M13.6794 17.0275C13.584 16.9373 13.4717 16.8668 13.3489 16.82C13.2262 16.7732 13.0955 16.751 12.9642 16.7547C12.8329 16.7584 12.7036 16.7879 12.5837 16.8416C12.4638 16.8953 12.3557 16.9721 12.2654 17.0675C12.1752 17.163 12.1047 17.2753 12.0579 17.398C12.0111 17.5208 11.9889 17.6515 11.9926 17.7828C11.9963 17.9141 12.0258 18.0434 12.0795 18.1633C12.1332 18.2832 12.21 18.3913 12.3054 18.4815L21.3054 26.9815C21.4911 27.1571 21.7369 27.2549 21.9924 27.2549C22.2479 27.2549 22.4938 27.1571 22.6794 26.9815L31.6804 18.4815C31.778 18.3919 31.8568 18.2838 31.9122 18.1635C31.9676 18.0432 31.9986 17.913 32.0033 17.7806C32.008 17.6482 31.9864 17.5162 31.9396 17.3923C31.8929 17.2683 31.822 17.1549 31.731 17.0585C31.64 16.9622 31.5309 16.8849 31.4098 16.8312C31.2887 16.7774 31.1581 16.7482 31.0257 16.7453C30.8933 16.7425 30.7616 16.7659 30.6383 16.8144C30.5149 16.8628 30.4025 16.9353 30.3074 17.0275L21.9924 24.8795L13.6794 17.0275Z" fill="white"/>
</svg>
