<svg width="25" height="24" viewBox="0 0 25 24" fill="none" xmlns="http://www.w3.org/2000/svg">
<path d="M22.9867 9.1C22.8867 5.7 20.1867 3 16.7867 3C15.6867 3 13.9867 3.8 13.2867 5.1C13.1867 5.4 12.7867 5.4 12.6867 5.1C11.8867 3.9 10.2867 3.1 9.08672 3.1C5.78672 3.1 2.98672 5.8 2.88672 9.1V9.3C2.88672 11 3.58672 12.6 4.78672 13.8C4.78672 13.8 4.78672 13.8 4.78672 13.9C4.88672 14 9.68672 18.2 11.8867 20.1C12.4867 20.6 13.3867 20.6 13.9867 20.1C16.1867 18.2 20.8867 14 21.0867 13.9C21.0867 13.9 21.0867 13.9 21.0867 13.8C22.2867 12.7 22.9867 11.1 22.9867 9.3V9.1Z" fill="#E5E7EB"/>
</svg>