<svg width="20" height="21" viewBox="0 0 20 21" fill="none" xmlns="http://www.w3.org/2000/svg">
<path d="M8.42917 18.7844C8.93417 19.2011 9.46083 19.5819 10 19.9536C10.5403 19.5868 11.0644 19.1967 11.5708 18.7844C12.415 18.0912 13.2095 17.3397 13.9483 16.5352C15.6517 14.6727 17.5 11.9727 17.5 8.94189C17.5 7.95698 17.306 6.98171 16.9291 6.07177C16.5522 5.16183 15.9997 4.33503 15.3033 3.63859C14.6069 2.94215 13.7801 2.38971 12.8701 2.0128C11.9602 1.63589 10.9849 1.44189 10 1.44189C9.01509 1.44189 8.03982 1.63589 7.12987 2.0128C6.21993 2.38971 5.39314 2.94215 4.6967 3.63859C4.00026 4.33503 3.44781 5.16183 3.0709 6.07177C2.69399 6.98171 2.5 7.95698 2.5 8.94189C2.5 11.9727 4.34833 14.6719 6.05167 16.5352C6.79052 17.34 7.58497 18.091 8.42917 18.7844ZM10 11.6502C9.28171 11.6502 8.59283 11.3649 8.08492 10.857C7.57701 10.3491 7.29167 9.66019 7.29167 8.94189C7.29167 8.2236 7.57701 7.53472 8.08492 7.02681C8.59283 6.5189 9.28171 6.23356 10 6.23356C10.7183 6.23356 11.4072 6.5189 11.9151 7.02681C12.423 7.53472 12.7083 8.2236 12.7083 8.94189C12.7083 9.66019 12.423 10.3491 11.9151 10.857C11.4072 11.3649 10.7183 11.6502 10 11.6502Z" fill="#D0D0D0"/>
</svg>
