<svg width="40" height="40" viewBox="0 0 40 40" fill="none" xmlns="http://www.w3.org/2000/svg">
<circle cx="20" cy="20" r="19" fill="#E8E6FE" stroke="#C9C4FC" stroke-width="2"/>
<path d="M16.2051 25.4526C18.9634 25.4526 21.1994 22.9398 21.1994 19.8402C21.1994 16.7405 18.9634 14.2278 16.2051 14.2278C13.4469 14.2278 11.2109 16.7405 11.2109 19.8402C11.2109 22.9398 13.4469 25.4526 16.2051 25.4526Z" fill="white"/>
<path d="M23.7969 25.2775C26.5552 25.2775 28.7911 22.7648 28.7911 19.6651C28.7911 16.5655 26.5552 14.0527 23.7969 14.0527C21.0387 14.0527 18.8027 16.5655 18.8027 19.6651C18.8027 22.7648 21.0387 25.2775 23.7969 25.2775Z" fill="white"/>
<path d="M16.8824 23.0928C18.3762 23.0928 19.5871 21.704 19.5871 19.9908C19.5871 18.2777 18.3762 16.8889 16.8824 16.8889C15.3887 16.8889 14.1777 18.2777 14.1777 19.9908C14.1777 21.704 15.3887 23.0928 16.8824 23.0928Z" fill="#C9C4FC"/>
<path d="M23.8121 22.9602C25.3058 22.9602 26.5168 21.5714 26.5168 19.8583C26.5168 18.1451 25.3058 16.7563 23.8121 16.7563C22.3183 16.7563 21.1074 18.1451 21.1074 19.8583C21.1074 21.5714 22.3183 22.9602 23.8121 22.9602Z" fill="#C9C4FC"/>
<path d="M15.1869 12.5358C16.178 12.181 16.803 11.3948 16.583 10.7797C16.3629 10.1646 15.3811 9.95359 14.3901 10.3083C13.3991 10.6631 12.7741 11.4493 12.9941 12.0644C13.2142 12.6795 14.1959 12.8905 15.1869 12.5358Z" fill="#C9C4FC"/>
<path d="M24.5016 13.0625C25.5541 13.0625 26.4074 12.533 26.4074 11.8797C26.4074 11.2264 25.5541 10.6968 24.5016 10.6968C23.449 10.6968 22.5957 11.2264 22.5957 11.8797C22.5957 12.533 23.449 13.0625 24.5016 13.0625Z" fill="#C9C4FC"/>
<path d="M20.4024 30.3344C22.3408 30.3344 23.9121 28.7625 23.9121 26.8235C23.9121 24.8845 22.3408 23.3126 20.4024 23.3126C18.464 23.3126 16.8926 24.8845 16.8926 26.8235C16.8926 28.7625 18.464 30.3344 20.4024 30.3344Z" fill="#C9C4FC"/>
<path d="M20.3954 28.7481C21.4584 28.7481 22.3201 27.8861 22.3201 26.8228C22.3201 25.7595 21.4584 24.8975 20.3954 24.8975C19.3324 24.8975 18.4707 25.7595 18.4707 26.8228C18.4707 27.8861 19.3324 28.7481 20.3954 28.7481Z" fill="#E8E6FE"/>
</svg>
