<svg width="24" height="24" viewBox="0 0 24 24" fill="none" xmlns="http://www.w3.org/2000/svg">
<path d="M22.0313 4.2527C22.0313 5.56638 22.0313 6.19239 22.0313 7.33463C22.0312 7.63435 21.9596 7.92972 21.8222 8.1961C21.6849 8.46248 21.4859 8.69216 21.2419 8.86597C21.1028 8.96145 20.9454 9.02686 20.7797 9.05804C20.6139 9.08922 20.4435 9.08547 20.2793 9.04703C19.4938 8.85441 17.7302 9.56903 17.7302 11.6667C17.7302 13.7643 19.1646 14.4963 19.8307 14.4038C20.2908 14.3383 20.8222 14.0186 21.2785 14.0898C21.488 14.1216 21.6792 14.2276 21.8173 14.3884C21.9554 14.5492 22.0313 14.7542 22.0313 14.9663C22.0313 15.7984 22.0313 16.305 22.0313 17.3066C22.0313 19.6624 20.955 20.743 18.6313 20.743H5.34706C5.07984 20.7424 4.82374 20.6359 4.63497 20.4467C4.44619 20.2574 4.34016 20.001 4.34016 19.7336C4.34016 17.7053 4.34016 15.7618 4.34016 13.8182C4.34016 12.3563 3.90891 12.0693 2.60744 12.6452C1.47411 13.1421 0.67642 12.8943 0.214361 11.9017C-0.286203 10.8365 0.120027 9.34559 1.11923 9.02969C1.58129 8.88523 2.20314 9.02969 2.69408 9.22231C3.92624 9.68075 4.34786 9.43035 4.34979 8.09549C4.34979 6.83767 4.34979 5.57985 4.34979 4.28159C4.34979 4.01423 4.45581 3.7578 4.64459 3.56857C4.83337 3.37934 5.08947 3.27277 5.3567 3.27226H8.37741C8.52539 3.27195 8.6716 3.30434 8.80562 3.36711C8.93964 3.42988 9.05814 3.52149 9.15268 3.6354C9.24721 3.7493 9.31544 3.88269 9.35249 4.02602C9.38953 4.16936 9.39447 4.31911 9.36698 4.46458C9.15905 5.52785 9.49789 6.46784 10.7146 7.14971C11.2632 7.44953 11.8878 7.58109 12.5106 7.528C13.1334 7.4749 13.7268 7.2395 14.2167 6.85115C15.0561 6.14424 15.2794 5.34101 15.0792 4.46651C15.0481 4.32004 15.0502 4.16846 15.0854 4.02292C15.1206 3.87738 15.188 3.74159 15.2825 3.62553C15.3771 3.50948 15.4965 3.41611 15.6319 3.35231C15.7673 3.2885 15.9153 3.25589 16.0649 3.25686H21.0359C21.2999 3.25686 21.553 3.36177 21.7397 3.54853C21.9264 3.73528 22.0313 3.98859 22.0313 4.2527Z" fill="#6659F4"/>
</svg>
