<svg width="24" height="24" viewBox="0 0 24 24" fill="none" xmlns="http://www.w3.org/2000/svg">
<path d="M22.033 3.24352C22.2979 3.24352 22.5519 3.34874 22.7391 3.53602C22.9264 3.7233 23.0316 3.9773 23.0316 4.24216V4.2518C23.0316 5.56468 23.0316 6.19123 23.0316 7.33638C23.0316 7.63609 22.9598 7.93144 22.8223 8.19774C22.6848 8.46404 22.4856 8.69356 22.2412 8.86711C22.0404 9.00691 21.8015 9.08162 21.5568 9.0811C21.4627 9.08068 21.3689 9.06968 21.2773 9.04833C21.19 9.02825 21.1007 9.01855 21.0112 9.01941C20.1514 9.01941 18.7248 9.79056 18.7248 11.6702C18.7248 13.6328 20.0107 14.4174 20.7124 14.4174C20.7509 14.4204 20.7896 14.4204 20.8281 14.4174C21.2426 14.3596 21.7168 14.0936 22.141 14.0936C22.1867 14.0938 22.2325 14.097 22.2778 14.1032C22.4878 14.1354 22.6793 14.2419 22.8176 14.4031C22.9559 14.5644 23.0318 14.7699 23.0316 14.9823C23.0316 15.8132 23.0316 16.3202 23.0316 17.3227C23.0316 19.6805 21.954 20.762 19.627 20.762H6.32475C6.19153 20.762 6.05962 20.7356 5.93666 20.6844C5.8137 20.6331 5.70212 20.558 5.60836 20.4633C5.51461 20.3687 5.44054 20.2564 5.39044 20.1329C5.34034 20.0095 5.3152 19.8773 5.31648 19.7441C5.31648 17.7141 5.31648 15.7689 5.31648 13.8237C5.31648 12.8212 5.11405 12.37 4.56461 12.37C4.21864 12.3946 3.88076 12.4863 3.56983 12.6399C3.24956 12.7933 2.90101 12.8786 2.54613 12.8906C1.9395 12.8906 1.48195 12.5596 1.17349 11.8977C0.672247 10.8297 1.07903 9.33751 2.07959 9.02327C2.21836 8.98588 2.36209 8.97027 2.50565 8.977C2.90221 8.99179 3.29336 9.07393 3.66237 9.21991C3.94876 9.34172 4.25394 9.41346 4.56461 9.43197C5.11405 9.43197 5.32033 9.02905 5.32226 8.09403C5.32226 6.83321 5.32226 5.57624 5.32226 4.27493C5.32226 4.00734 5.42843 3.75069 5.61746 3.56129C5.80649 3.3719 6.06294 3.26524 6.33053 3.26473H9.34764C9.49582 3.26442 9.64224 3.29684 9.77644 3.35967C9.91064 3.42249 10.0293 3.51418 10.124 3.62818C10.2186 3.74218 10.287 3.87568 10.324 4.01914C10.3611 4.1626 10.3661 4.31248 10.3386 4.45808C10.1304 5.52419 10.4697 6.46306 11.6881 7.14745C12.1609 7.40532 12.6918 7.53804 13.2304 7.53303C13.9482 7.54095 14.6464 7.29824 15.2045 6.84671C16.045 6.13725 16.2687 5.33526 16.0682 4.45808C16.0371 4.31148 16.0392 4.15977 16.0744 4.01411C16.1097 3.86845 16.1771 3.73254 16.2718 3.61638C16.3665 3.50023 16.4861 3.40679 16.6216 3.34293C16.7572 3.27907 16.9054 3.24642 17.0553 3.24738H22.033M22.033 2.28345H17.0553C16.7587 2.28409 16.466 2.35149 16.199 2.48065C15.9321 2.60981 15.6976 2.7974 15.513 3.02953C15.3284 3.25617 15.1977 3.52182 15.1309 3.80638C15.0641 4.09095 15.0629 4.38697 15.1274 4.67207C15.2623 5.25043 15.1042 5.67071 14.5837 6.10833C14.2006 6.41309 13.7238 6.57589 13.2342 6.56909C12.8632 6.57282 12.4974 6.48121 12.172 6.30305C11.208 5.77096 11.181 5.19067 11.2871 4.64123C11.3418 4.35675 11.3331 4.06371 11.2616 3.78298C11.1901 3.50224 11.0576 3.24073 10.8735 3.01706C10.6894 2.79338 10.4583 2.61306 10.1965 2.48892C9.9348 2.36478 9.6489 2.29989 9.35921 2.29887H6.32282C5.80074 2.3004 5.30048 2.50847 4.93131 2.87764C4.56214 3.24681 4.35407 3.74707 4.35254 4.26915V5.5666C4.35254 6.41486 4.35254 7.24963 4.35254 8.08632C4.35254 8.23091 4.35254 8.3408 4.33712 8.4237C4.25229 8.40056 4.14433 8.36586 3.99396 8.31188C3.51948 8.12487 3.01554 8.02368 2.50565 8.01306C2.2633 8.0108 2.02205 8.04591 1.79041 8.11717C1.4494 8.23181 1.13732 8.41908 0.875707 8.66604C0.614097 8.91301 0.409183 9.21379 0.275107 9.54765C0.0888138 9.98582 -0.0047882 10.4578 0.000188532 10.9339C0.00516526 11.41 0.108613 11.8799 0.304025 12.3141C0.932509 13.6636 1.98127 13.8564 2.54999 13.8564C3.03977 13.847 3.52228 13.7361 3.96697 13.5306C4.12698 13.4612 4.24844 13.4149 4.33905 13.386C4.35175 13.5315 4.35625 13.6776 4.35254 13.8237C4.35254 15.7689 4.35254 17.7141 4.35254 19.7441C4.35305 20.267 4.561 20.7684 4.93075 21.1381C5.3005 21.5079 5.80184 21.7158 6.32475 21.7163H19.627C22.4822 21.7163 23.9936 20.1952 23.9956 17.3131C23.9956 16.3125 23.9956 15.8055 23.9956 14.9746C23.9989 14.5309 23.8417 14.1009 23.553 13.7639C23.2642 13.427 22.8634 13.2058 22.4244 13.1412C22.3305 13.1272 22.2358 13.1201 22.141 13.12C21.7778 13.1357 21.4197 13.2106 21.0806 13.3417C20.9584 13.386 20.8335 13.4227 20.7066 13.4516C20.5312 13.44 19.6887 13.0949 19.6887 11.6683C19.6745 11.4243 19.7125 11.1801 19.8003 10.952C19.8881 10.724 20.0235 10.5173 20.1977 10.3458C20.4182 10.1334 20.7059 10.0046 21.0112 9.98141C21.0266 9.97989 21.0421 9.97989 21.0575 9.98141C21.2212 10.0197 21.3887 10.0391 21.5568 10.0393C21.9993 10.0414 22.4316 9.90674 22.7945 9.65368C23.1642 9.39131 23.466 9.04458 23.6749 8.64224C23.8838 8.2399 23.9937 7.79356 23.9956 7.34024V4.25565C23.9963 3.99726 23.9462 3.74125 23.8479 3.50225C23.7497 3.26326 23.6053 3.04597 23.423 2.86281C23.2408 2.67964 23.0242 2.5342 22.7857 2.43479C22.5472 2.33538 22.2914 2.28395 22.033 2.28345Z" fill="#858899"/>
</svg>
