<svg width="24" height="24" viewBox="0 0 24 25" fill="none" xmlns="http://www.w3.org/2000/svg">
<path d="M12.0031 15.8269C13.1362 15.8269 14.0985 15.4303 14.8902 14.6371C15.6819 13.8439 16.0777 12.8808 16.0777 11.7477C16.0777 10.6146 15.6811 9.65224 14.888 8.86058C14.0948 8.06891 13.1316 7.67308 11.9985 7.67308C10.8655 7.67308 9.90308 8.06966 9.11141 8.86282C8.31975 9.65601 7.92391 10.6192 7.92391 11.7523C7.92391 12.8853 8.3205 13.8477 9.11366 14.6394C9.90685 15.431 10.87 15.8269 12.0031 15.8269ZM12.0008 14.45C11.2508 14.45 10.6133 14.1875 10.0883 13.6625C9.56331 13.1375 9.30081 12.5 9.30081 11.75C9.30081 11 9.56331 10.3625 10.0883 9.83748C10.6133 9.31248 11.2508 9.04998 12.0008 9.04998C12.7508 9.04998 13.3883 9.31248 13.9133 9.83748C14.4383 10.3625 14.7008 11 14.7008 11.75C14.7008 12.5 14.4383 13.1375 13.9133 13.6625C13.3883 14.1875 12.7508 14.45 12.0008 14.45ZM12.0008 18.75C9.8957 18.75 7.97039 18.1884 6.22489 17.0653C4.47937 15.9423 3.0861 14.4647 2.04509 12.6327C1.96175 12.4891 1.90085 12.3444 1.86239 12.1985C1.82392 12.0527 1.80469 11.903 1.80469 11.7495C1.80469 11.596 1.82392 11.4465 1.86239 11.301C1.90085 11.1554 1.96175 11.0109 2.04509 10.8673C3.0861 9.03525 4.47937 7.55769 6.22489 6.43463C7.97039 5.31154 9.8957 4.75 12.0008 4.75C14.1059 4.75 16.0312 5.31154 17.7767 6.43463C19.5223 7.55769 20.9155 9.03525 21.9565 10.8673C22.0399 11.0109 22.1008 11.1556 22.1392 11.3014C22.1777 11.4473 22.1969 11.597 22.1969 11.7505C22.1969 11.904 22.1777 12.0535 22.1392 12.199C22.1008 12.3445 22.0399 12.4891 21.9565 12.6327C20.9155 14.4647 19.5223 15.9423 17.7767 17.0653C16.0312 18.1884 14.1059 18.75 12.0008 18.75ZM12.0008 17.25C13.8841 17.25 15.6133 16.7541 17.1883 15.7625C18.7633 14.7708 19.9675 13.4333 20.8008 11.75C19.9675 10.0666 18.7633 8.72914 17.1883 7.73748C15.6133 6.74581 13.8841 6.24998 12.0008 6.24998C10.1175 6.24998 8.38831 6.74581 6.81331 7.73748C5.23831 8.72914 4.03415 10.0666 3.20081 11.75C4.03415 13.4333 5.23831 14.7708 6.81331 15.7625C8.38831 16.7541 10.1175 17.25 12.0008 17.25Z" fill="white"/>
</svg>
