<svg width="25" height="24" viewBox="0 0 25 24" fill="none" xmlns="http://www.w3.org/2000/svg">
<path d="M22.3578 9.1C22.2578 5.7 19.5578 3 16.1578 3C15.0578 3 13.3578 3.8 12.6578 5.1C12.5578 5.4 12.1578 5.4 12.0578 5.1C11.2578 3.9 9.65781 3.1 8.45781 3.1C5.15781 3.1 2.35781 5.8 2.25781 9.1V9.3C2.25781 11 2.95781 12.6 4.15781 13.8C4.15781 13.8 4.15781 13.8 4.15781 13.9C4.25781 14 9.05781 18.2 11.2578 20.1C11.8578 20.6 12.7578 20.6 13.3578 20.1C15.5578 18.2 20.2578 14 20.4578 13.9C20.4578 13.9 20.4578 13.9 20.4578 13.8C21.6578 12.7 22.3578 11.1 22.3578 9.3V9.1Z" fill="#E5E7EB"/>
</svg>
