<svg width="301" height="70" viewBox="0 0 301 70" fill="none" xmlns="http://www.w3.org/2000/svg">
<path fill-rule="evenodd" clip-rule="evenodd" d="M200.13 39.8063L200.13 0.403158L212.943 0.403144L212.943 27.1718L258.621 27.1718L258.621 0.403148L271.434 0.403149L271.434 39.8063L200.13 39.8063Z" fill="#6659F4"/>
<path fill-rule="evenodd" clip-rule="evenodd" d="M0.707031 0.0218506H91.8521V44.2238H0.707031V0.0218506ZM13.5197 12.6564V31.5893H79.0395V12.6564H13.5197Z" fill="#6659F4"/>
<path fill-rule="evenodd" clip-rule="evenodd" d="M91.8521 68.4794H0.707031V55.8448H91.8521V68.4794Z" fill="#6659F4"/>
<path fill-rule="evenodd" clip-rule="evenodd" d="M178.301 68.8583L178.301 0.402954L191.113 0.402954L191.113 68.8583L178.301 68.8583Z" fill="#6659F4"/>
<path fill-rule="evenodd" clip-rule="evenodd" d="M277.363 47.5975L277.363 0.402989L290.176 0.402954L290.176 47.5974L277.363 47.5975Z" fill="#6659F4"/>
<path fill-rule="evenodd" clip-rule="evenodd" d="M39.9102 56.5235V39.8209H52.7228V56.5235H39.9102Z" fill="#6659F4"/>
<path fill-rule="evenodd" clip-rule="evenodd" d="M151.879 7.92639L184.715 7.92639L184.715 20.5609L151.879 20.5609L151.879 7.92639Z" fill="#6659F4"/>
<path fill-rule="evenodd" clip-rule="evenodd" d="M300.708 7.92639L283.77 7.92639L283.77 20.5609L300.708 20.5609L300.708 7.92639Z" fill="#6659F4"/>
<path fill-rule="evenodd" clip-rule="evenodd" d="M167.777 27.1715L184.715 27.1715L184.715 39.806L167.777 39.806L167.777 27.1715Z" fill="#6659F4"/>
<path fill-rule="evenodd" clip-rule="evenodd" d="M206.542 7.92639L264.91 7.92639V20.5609L206.542 20.5609V7.92639Z" fill="#6659F4"/>
<path fill-rule="evenodd" clip-rule="evenodd" d="M134.633 12.8685C122.446 12.8685 112.567 22.6105 112.567 34.6279C112.567 46.6453 122.446 56.3874 134.633 56.3874C146.82 56.3874 156.699 46.6453 156.699 34.6279C156.699 22.6105 146.82 12.8685 134.633 12.8685ZM99.7539 34.6279C99.7539 15.6327 115.37 0.234009 134.633 0.234009C153.896 0.234009 169.512 15.6327 169.512 34.6279C169.512 53.6232 153.896 69.0219 134.633 69.0219C115.37 69.0219 99.7539 53.6232 99.7539 34.6279Z" fill="#6659F4"/>
<path fill-rule="evenodd" clip-rule="evenodd" d="M253.66 43.4447C251.267 45.132 250.535 46.8952 250.535 48.1874C250.535 49.4795 251.267 51.2427 253.66 52.93C256.041 54.6089 259.659 55.8446 263.949 55.8446C268.239 55.8446 271.857 54.6089 274.238 52.93C276.631 51.2427 277.363 49.4795 277.363 48.1874C277.363 46.8952 276.631 45.132 274.238 43.4447C271.857 41.7658 268.239 40.5301 263.949 40.5301C259.659 40.5301 256.041 41.7658 253.66 43.4447ZM246.208 33.1671C251 29.7882 257.293 27.8956 263.949 27.8956C270.605 27.8956 276.898 29.7882 281.69 33.1671C286.47 36.5376 290.175 41.7616 290.175 48.1874C290.175 54.6131 286.47 59.8371 281.69 63.2076C276.898 66.5865 270.605 68.4791 263.949 68.4791C257.293 68.4791 251 66.5865 246.208 63.2076C241.428 59.8371 237.723 54.6131 237.723 48.1874C237.723 41.7616 241.428 36.5376 246.208 33.1671Z" fill="#6659F4"/>
<path d="M30.7679 22.1228C30.7679 25.224 28.2184 27.7381 25.0734 27.7381C21.9284 27.7381 19.3789 25.224 19.3789 22.1228C19.3789 19.0215 21.9284 16.5074 25.0734 16.5074C28.2184 16.5074 30.7679 19.0215 30.7679 22.1228Z" fill="#6659F4"/>
</svg>
