<svg width="234" height="213" viewBox="0 0 234 213" fill="none" xmlns="http://www.w3.org/2000/svg">
<g clip-path="url(#clip0_13719_56431)">
<path d="M89.8666 196.881C87.9107 197.551 85.7813 196.409 85.0925 194.46C79.6163 179.079 74.1693 163.775 68.7149 148.452C68.5549 148.026 68.3948 147.601 68.2541 147.168C65.3801 138.998 57.3555 136.564 50.17 141.408C44.234 145.407 38.3643 145.473 32.3843 141.607C24.34 136.42 20.232 125.204 23.111 116.306C25.879 107.758 31.264 104.232 40.8926 104.65C52.5456 105.169 53.0311 104.522 49.221 93.7467C45.0592 81.9774 40.8974 70.2081 36.481 57.7618C35.8091 55.7406 36.8566 53.5363 38.856 52.8063C53.0477 47.6893 66.6761 42.7179 80.4233 38.1213C81.5983 37.7235 84.058 40.1541 85.4114 41.6982C86.0337 42.4135 85.4405 44.182 85.3789 45.4857C84.9512 58.1422 89.9688 64.7326 101.19 66.2743C112.147 67.7606 124.764 60.1008 126.118 49.7893C126.723 45.2346 124.372 39.9814 122.377 35.4994C121.568 33.6404 120.154 32.0528 118.52 30.3493C116.728 28.4622 117.31 25.3732 119.633 24.2124C120.417 23.8295 121.168 23.4805 121.93 23.2162C139.03 17.0273 156.206 11.0971 173.226 4.69541C178.68 2.64397 180.819 3.87048 182.747 9.34897C195.602 46.1076 208.889 82.7256 221.859 119.441C227.391 135.088 221.364 149.939 206.549 155.335C167.772 169.456 128.787 183.081 89.886 196.874C89.886 196.874 89.886 196.874 89.8666 196.881Z" fill="#3E404B"/>
<path d="M135.9 100.807C132.639 91.1636 123.037 85.699 114.453 88.6016C105.869 91.5042 101.554 101.675 104.815 111.318C108.075 120.962 117.677 126.426 126.261 123.524C134.845 120.621 139.161 110.45 135.9 100.807Z" fill="white"/>
<path d="M131.048 102.956C129.246 97.6264 124.016 94.58 119.367 96.1519C114.719 97.7238 112.411 103.319 114.213 108.649C116.016 113.979 121.245 117.025 125.894 115.453C130.543 113.881 132.85 108.286 131.048 102.956Z" fill="#231815"/>
<path d="M134.673 97.8805L103.746 103.64C104.138 96.7594 108.152 90.7018 114.44 88.5794C122.117 85.9792 130.61 90.0703 134.666 97.8612L134.673 97.8805Z" fill="#A9ABB7"/>
<path d="M166.54 90.4449C163.28 80.8014 153.677 75.3369 145.094 78.2394C136.51 81.142 132.194 91.3126 135.455 100.956C138.716 110.599 148.318 116.064 156.902 113.161C165.486 110.259 169.801 100.088 166.54 90.4449Z" fill="white"/>
<path d="M157.458 94.0228C155.656 88.6929 150.426 85.6465 145.778 87.2185C141.129 88.7904 138.821 94.3854 140.623 99.7152C142.426 105.045 147.655 108.091 152.304 106.52C156.953 104.948 159.26 99.3526 157.458 94.0228Z" fill="#231815"/>
<path d="M134.647 97.8884L162.717 83.71C158.235 78.4856 151.376 76.098 145.076 78.247C137.4 80.8472 133.122 89.2558 134.635 97.915L134.647 97.8884Z" fill="#A9ABB7"/>
<path d="M124.952 84.1736C124.908 82.0285 122.07 80.347 118.613 80.4177C115.155 80.4885 112.388 82.2848 112.432 84.4298C112.476 86.5749 115.314 88.2565 118.772 88.1857C122.229 88.115 124.996 86.3187 124.952 84.1736Z" fill="#A9ABB7"/>
<path d="M140.187 78.209C142.846 75.1833 143.696 71.5821 142.085 70.1656C140.473 68.7491 137.011 70.0535 134.351 73.0792C131.691 76.1049 130.841 79.7061 132.453 81.1226C134.064 82.5392 137.527 81.2347 140.187 78.209Z" fill="#A9ABB7"/>
<path d="M166.061 80.5091C166.061 80.5091 167.984 88.44 161.154 90.766C161.154 90.766 168.392 87.4697 171.09 95.4627C171.09 95.4627 168.309 88.3622 175.927 85.7839C175.927 85.7839 168.683 88.0668 166.068 80.5284L166.061 80.5091Z" fill="#A9ABB7"/>
<path d="M133.46 133.594C132.66 134.402 134.245 132.923 134.417 132.792C134.835 132.436 135.287 132.112 135.712 131.775C136.137 131.439 136.597 131.134 137.063 130.848C137.261 130.729 139.18 129.61 138.059 130.208C140.186 129.055 142.393 128.114 144.663 127.283C146.934 126.451 149.213 125.704 151.537 125.073C150.352 125.386 152.212 124.929 152.439 124.888C153.075 124.759 153.718 124.65 154.342 124.547C155.624 124.374 156.908 124.267 158.19 124.27C161.256 124.265 163.802 120.702 163.352 117.803C162.816 114.384 160.166 112.621 156.884 112.641C151.046 112.673 145.2 114.563 139.784 116.6C133.905 118.811 128.628 121.922 124.194 126.393C122.034 128.575 122.854 132.925 125.206 134.601C128.043 136.625 131.089 135.92 133.414 133.589L133.46 133.594Z" fill="#A9ABB7"/>
<path d="M129.873 130.041C129.583 130.15 129.22 130.066 128.976 129.826C128.649 129.486 128.641 128.937 128.982 128.61C129.366 128.223 138.516 119.328 156.499 117.598C156.968 117.554 157.406 117.897 157.45 118.366C157.494 118.835 157.144 119.254 156.682 119.317C139.357 120.976 130.313 129.743 130.219 129.845C130.125 129.946 130.016 130.009 129.881 130.06L129.873 130.041Z" fill="black"/>
</g>
<defs>
<clipPath id="clip0_13719_56431">
<rect width="191.513" height="155" fill="white" transform="translate(0 67.4211) rotate(-20.6124)"/>
</clipPath>
</defs>
</svg>
