<svg width="437" height="256" viewBox="0 0 437 256" fill="none" xmlns="http://www.w3.org/2000/svg">
<g clip-path="url(#clip0_13719_56313)">
<path d="M76.381 250.04L96.4408 185.437L113.884 190.853L99.2405 238.013C96.2489 247.647 86.0154 253.031 76.381 250.04Z" fill="#525462" stroke="#3E404B" stroke-width="3.78544" stroke-linecap="round" stroke-linejoin="round"/>
<path d="M1.38417 217.133L43.2507 164L57.597 175.304L27.0347 214.091C20.791 222.015 9.30808 223.377 1.38417 217.133Z" fill="#525462" stroke="#3E404B" stroke-width="3.78544" stroke-linecap="round" stroke-linejoin="round"/>
<path d="M159.422 254.363C159.422 254.363 165.251 212.382 112.445 230.117C112.445 230.117 95.5426 234.338 76.5586 250.672L159.422 254.363Z" fill="#525462" stroke="#3E404B" stroke-width="3.78544" stroke-linecap="round" stroke-linejoin="round"/>
<path d="M77.3681 250.911C77.3681 250.911 97.8462 213.803 42.1906 211.448C42.1906 211.448 24.8981 209.336 1.32339 217.787L77.3681 250.911Z" fill="#525462" stroke="#3E404B" stroke-width="3.78544" stroke-linecap="round" stroke-linejoin="round"/>
<path d="M227.183 59.1856V59.2613C223.739 71.6964 222.092 77.6207 219.12 88.4281C217.531 94.182 213.253 98.8191 207.651 100.863C204.509 101.98 201.007 101.658 198.054 100.068C191.089 96.245 172.522 98.3649 167.052 118.238C161.657 137.866 173.279 148.787 179.828 149.639C184.351 150.225 190.219 148.579 194.383 150.453C198.319 152.213 200.364 156.585 199.228 160.73C197.051 168.604 195.726 173.411 193.114 182.894C186.944 205.209 173.96 212.647 151.929 206.591C110.44 195.159 68.8952 183.745 27.4068 172.332L26.044 171.954C20.7633 170.496 17.6782 165.045 19.1167 159.765C24.3974 140.554 29.4698 122.137 34.5234 103.721C38.3278 89.8666 34.9966 86.0054 21.0851 88.0496C9.04739 89.8098 2.13896 85.3997 0.321947 74.7627C-1.62756 63.3685 6.09475 50.2898 16.3911 49.9112C21.1608 49.7409 26.6686 52.7503 30.8326 55.7597C41.3372 63.3117 45.9744 62.0436 49.4759 49.4002C52.7692 37.4761 56.0436 25.5708 59.4127 13.2682C60.8701 7.98747 66.3211 4.88341 71.6018 6.32188L100.239 14.1956C106.22 15.8423 109.248 22.5236 106.504 28.0692C101.772 37.6085 102.529 47.3939 112.371 57.0468C121.191 65.7533 135.443 68.3653 146.345 63.3495C156.15 58.8449 160.37 51.8229 160.73 43.0028C161.014 36.7568 167.184 32.4603 173.241 34.1259L220.37 47.0911C225.594 48.5295 228.66 53.9238 227.221 59.1477L227.183 59.1856Z" fill="#3E404B"/>
<path d="M117.066 114.245C120.241 102.704 114.48 91.0567 104.2 88.2288C93.9193 85.401 83.012 92.4638 79.8376 104.004C76.6632 115.544 82.4238 127.192 92.7042 130.02C102.985 132.848 113.892 125.785 117.066 114.245Z" fill="white"/>
<path d="M145.519 121.377C148.694 109.837 142.933 98.1892 132.653 95.3614C122.372 92.5335 111.465 99.5964 108.291 111.137C105.116 122.677 110.877 134.325 121.157 137.152C131.438 139.98 142.345 132.918 145.519 121.377Z" fill="white"/>
<path d="M110.882 113.149C112.635 106.779 109.545 100.375 103.981 98.8446C98.4177 97.3142 92.4872 101.237 90.7351 107.607C88.9829 113.977 92.0726 120.381 97.6362 121.912C103.2 123.442 109.13 119.519 110.882 113.149Z" fill="#231815"/>
<path d="M136.863 119.792C138.615 113.422 135.525 107.018 129.962 105.487C124.398 103.957 118.468 107.88 116.716 114.25C114.963 120.62 118.053 127.024 123.617 128.555C129.18 130.085 135.111 126.162 136.863 119.792Z" fill="#231815"/>
<path d="M123.216 137.071C124.541 136.882 122.004 137.147 121.758 137.147C121.115 137.165 120.471 137.184 119.828 137.165C119.184 137.147 118.541 137.128 117.897 137.071C117.632 137.052 115.039 136.73 116.497 136.957C113.695 136.522 110.932 135.841 108.225 135.008C105.519 134.175 102.831 133.248 100.219 132.188C101.563 132.737 99.4811 131.847 99.235 131.714C98.5536 131.393 97.8723 131.052 97.2098 130.673C95.8849 129.935 94.6168 129.102 93.4054 128.194C90.5285 126.036 85.6074 127.55 83.9797 130.579C82.068 134.156 83.2794 137.695 86.3645 140.005C91.8534 144.131 98.6861 146.516 105.216 148.427C112.314 150.528 119.449 151.342 126.774 150.32C130.351 149.809 132.66 145.153 131.657 141.897C130.427 137.998 127.058 136.484 123.235 137.014L123.216 137.071Z" fill="#A9ABB7"/>
<path d="M107.091 143.147C102.132 141.784 96.359 139.494 90.2455 135.727C89.7723 135.424 89.6209 134.8 89.9048 134.327C90.2076 133.853 90.8322 133.702 91.3054 133.986C108.718 144.718 123.444 142.919 123.576 142.901C124.125 142.825 124.655 143.222 124.712 143.771C124.769 144.32 124.39 144.85 123.841 144.907C123.425 144.964 116.763 145.796 107.072 143.128L107.091 143.147Z" fill="black"/>
<path d="M107.237 80.6607C107.908 78.2217 105.274 75.3701 101.353 74.2917C97.4322 73.2132 93.7099 74.3162 93.039 76.7553C92.3681 79.1944 95.0026 82.0459 98.9232 83.1244C102.844 84.2028 106.566 83.0998 107.237 80.6607Z" fill="#A9ABB7"/>
<path d="M144.62 89.9532C145.291 87.5141 142.656 84.6626 138.736 83.5841C134.815 82.5057 131.093 83.6087 130.422 86.0477C129.751 88.4868 132.385 91.3384 136.306 92.4168C140.227 93.4953 143.949 92.3923 144.62 89.9532Z" fill="#A9ABB7"/>
</g>
<g clip-path="url(#clip1_13719_56313)">
<path d="M297.637 69.9594C295.734 74.3533 293.633 78.6739 291.461 82.8478C287.984 89.8676 281.721 94.0363 273.652 90.9524C265.385 87.7954 263.621 80.5307 265.729 72.9833C270.858 53.782 278.637 33.4883 287.62 15.8649C291.04 8.95044 297.236 4.73146 305.481 7.90388C313.549 10.9877 315.423 18.2906 313.352 25.7295C312.17 30.2879 310.844 34.898 309.317 39.4536C314.722 40.1883 320.198 42.1651 324.695 45.2386C326.706 40.883 328.664 36.6141 330.835 32.4402C334.367 25.5453 340.54 21.3417 348.606 24.4442C356.764 27.563 358.656 34.8691 356.672 42.3616C351.489 61.4379 343.71 81.7316 334.781 99.4799C331.214 106.465 324.932 110.63 316.774 107.511C308.705 104.427 306.922 97.1596 308.941 89.5772C310.123 85.0188 311.522 80.5368 312.938 75.9616C307.533 75.227 302.13 73.0516 297.633 69.978L297.637 69.9594Z" fill="#525462"/>
<path d="M342.73 108.077C345.284 95.8994 350.16 83.1871 356.387 72.4214C358.777 68.2088 364.28 66.0784 372.525 69.2508C380.485 72.2965 383.051 77.5108 382.119 82.2859C379.673 94.5013 374.797 107.214 368.462 117.941C365.928 122.205 360.568 124.284 352.612 121.22C344.348 118.044 341.655 112.903 342.73 108.077ZM374.465 64.21C367.857 61.6701 363.603 54.4693 366.922 45.827C370.005 37.7585 378.32 34.7174 384.822 37.2004C391.916 39.9216 394.94 48.8861 392.257 55.8719C389.5 63.0563 381.847 67.0394 374.465 64.21Z" fill="#525462"/>
<path d="M396.468 112.62C404.338 115.631 407.42 122.723 404.283 130.878C401.762 137.489 394.42 140.354 386.928 137.487C379.347 134.584 375.903 127.583 378.443 120.975C381.561 112.817 388.797 109.683 396.468 112.62ZM403.472 54.818C406.153 48.3892 413.262 45.8673 420.934 48.8048C428.605 51.7423 432.211 58.3684 429.908 64.9403C425.117 78.5899 419.319 90.5261 413.073 102.499C410.211 108.204 405.195 110.843 398.21 108.16C391.224 105.477 389.254 100.155 390.835 93.976C394.183 80.8811 397.834 68.1464 403.509 54.8246L403.472 54.818Z" fill="#525462"/>
<path d="M412.908 94.9958C418.346 85.2255 422.832 74.9622 426.307 64.3297C427.054 62.0393 423.632 60.4027 422.882 62.7118C419.407 73.3443 414.939 83.6109 409.483 93.3779C408.302 95.5154 411.731 97.1146 412.908 94.9958Z" fill="#898B93"/>
<path d="M406.971 103.103C409.377 103.524 410.029 99.7951 407.624 99.3742C405.219 98.9532 404.566 102.682 406.971 103.103Z" fill="#898B93"/>
<path d="M379.96 42.5756C380.334 42.5257 380.695 42.5504 381.065 42.5192C380.969 42.5215 380.667 42.488 380.931 42.515C381.025 42.5313 381.136 42.5509 381.233 42.5486C381.419 42.5812 381.587 42.6106 381.774 42.6432C381.96 42.6758 382.128 42.7052 382.311 42.7565C382.386 42.7695 382.479 42.7858 382.55 42.8175C382.789 42.8786 382.134 42.6679 382.475 42.8045C382.817 42.9411 383.158 43.0776 383.496 43.2328C383.635 43.3149 383.778 43.3783 383.936 43.4636C383.973 43.4701 384.317 43.7032 384.041 43.5204C383.8 43.3629 384.041 43.5204 384.09 43.5675C384.4 43.7754 384.684 44.0173 384.95 44.256C385.083 44.3753 385.209 44.5319 385.342 44.6512C385.209 44.5319 385.117 44.4004 385.289 44.6228C385.335 44.6885 385.4 44.7575 385.446 44.8232C385.68 45.1332 385.892 45.4585 386.083 45.7992C386.564 46.6713 387.957 46.8382 388.711 46.2593C389.597 45.5882 389.702 44.5497 389.171 43.6305C387.309 40.3263 383.323 38.3989 379.58 38.8198C378.599 38.9363 377.726 39.8596 377.873 40.8845C378.021 41.9095 378.879 42.7131 379.938 42.591L379.96 42.5756Z" fill="#898B93"/>
<path d="M297.713 14.154C299.737 14.0086 301.866 13.9201 303.55 14.6183C303.963 14.7866 304.403 15.0173 304.604 15.187C304.805 15.3566 305.024 15.5296 305.225 15.6992C305.324 15.7934 305.423 15.8875 305.521 15.9817C305.685 16.1448 305.716 16.1886 305.62 16.0758C306.311 16.85 306.889 17.7198 307.448 18.5863C308.008 19.4528 309.266 19.6155 310.077 19.0464C310.888 18.4773 311.1 17.2654 310.537 16.4176C309.138 14.3089 307.565 12.2082 305.168 11.193C302.771 10.1778 299.961 10.2048 297.336 10.3795C296.343 10.4555 295.495 11.4599 295.63 12.4443C295.765 13.4287 296.646 14.2169 297.695 14.1507L297.713 14.154Z" fill="#898B93"/>
<path d="M339.995 31.3725C342.019 31.2271 344.148 31.1386 345.832 31.8368C346.244 32.0051 346.684 32.2358 346.885 32.4055C347.086 32.5751 347.305 32.7481 347.506 32.9177C347.605 33.0119 347.704 33.106 347.803 33.2002C347.966 33.3633 347.997 33.4071 347.902 33.2943C348.592 34.0685 349.17 34.9383 349.73 35.8048C350.289 36.6713 351.548 36.834 352.358 36.2649C353.169 35.6958 353.381 34.4839 352.818 33.6361C351.42 31.5274 349.847 29.4267 347.45 28.4115C345.052 27.3963 342.242 27.4233 339.618 27.598C338.624 27.674 337.776 28.6784 337.911 29.6628C338.046 30.6472 338.927 31.4354 339.976 31.3692L339.995 31.3725Z" fill="#898B93"/>
<path d="M366.239 74.8568C367.325 74.9123 368.407 74.9864 369.488 75.1757C370.01 75.267 370.514 75.3551 371.023 75.5211C371.333 75.6138 370.787 75.4414 371.097 75.5341C371.225 75.5756 371.333 75.6138 371.457 75.674C371.727 75.7788 371.994 75.9023 372.238 76.0413C372.889 76.3857 373.569 77.0042 374.067 77.668C374.394 78.1094 374.679 78.5629 374.94 79.0504C374.998 79.1567 375.072 79.2849 375.13 79.3912C375.293 79.6694 375.032 79.1819 375.173 79.4755C375.302 79.7286 375.43 79.9817 375.556 80.2534C375.996 81.1376 376.978 81.7897 377.992 81.3717C378.863 81.0053 379.579 79.8816 379.11 78.9349C377.901 76.5135 376.61 74.2315 374.206 72.8117C372.029 71.5276 369.383 71.2758 366.911 71.1313C365.922 71.0735 364.853 71.5782 364.72 72.6694C364.597 73.5894 365.191 74.8078 366.258 74.86L366.239 74.8568Z" fill="#898B93"/>
<path d="M347.41 49.272C343.173 62.6149 338.029 75.6454 331.992 88.2891C330.935 90.4867 334.361 92.1046 335.418 89.907C341.436 77.26 346.579 64.2295 350.836 50.8899C351.564 48.5962 348.142 46.9597 347.41 49.272Z" fill="#898B93"/>
<path d="M388.231 49.3455L387.606 50.0624C387.44 50.2446 387.323 50.4739 387.261 50.7131C387.163 50.9456 387.136 51.2099 387.168 51.4653C387.182 51.7175 387.258 51.9422 387.393 52.158C387.488 52.3859 387.629 52.5644 387.83 52.7341L388.245 52.9988C388.564 53.1508 388.881 53.2062 389.233 53.1718L389.713 53.0636C390.022 52.9448 390.285 52.7602 390.502 52.5099L391.127 51.7931C391.293 51.6108 391.41 51.3815 391.471 51.1424C391.57 50.9098 391.597 50.6456 391.564 50.3901C391.551 50.138 391.475 49.9133 391.34 49.6975C391.245 49.4696 391.104 49.2911 390.903 49.1214L390.488 48.8567C390.169 48.7047 389.852 48.6492 389.5 48.6837L389.02 48.7918C388.711 48.9107 388.448 49.0953 388.231 49.3455Z" fill="#898B93"/>
<path d="M250.588 162.795C259.483 166.312 269.8 168.079 278.735 163.687C285.655 160.267 292.385 152.779 290.989 144.503C290.408 141.019 288.129 137.68 284.315 137.513C280.272 137.343 277.093 141.014 276.729 144.851C275.882 154.079 286.666 158.772 294.346 158.041C305.289 156.997 312.89 148.259 319.483 140.343C321.431 137.994 317.815 134.94 315.867 137.29C311.537 142.488 307.02 148.096 300.895 151.252C295.577 153.972 287.854 154.734 283.383 149.974C281.65 148.133 280.3 144.534 282.833 142.691C285.365 140.848 286.455 144.939 286.44 146.781C286.374 152.649 280.863 157.68 275.857 159.82C268.36 163.024 259.937 161.415 252.623 158.521C249.8 157.412 247.765 161.686 250.606 162.799L250.588 162.795Z" fill="#525462"/>
<path d="M236.744 158.662C239.746 159.188 240.561 154.527 237.56 154.001C234.558 153.476 233.742 158.137 236.744 158.662Z" fill="#525462"/>
</g>
<defs>
<clipPath id="clip0_13719_56313">
<rect width="227.543" height="250.256" fill="white" transform="translate(0 6)"/>
</clipPath>
<clipPath id="clip1_13719_56313">
<rect width="176.553" height="163.493" fill="white" transform="translate(262.188) rotate(9.9274)"/>
</clipPath>
</defs>
</svg>
