<svg width="432" height="505" viewBox="0 0 432 505" fill="none" xmlns="http://www.w3.org/2000/svg">
<g clip-path="url(#clip0_13719_56402)">
<path d="M271.071 77.6292C269.69 83.3847 268.053 89.0934 266.298 94.6383C263.56 103.927 256.822 110.337 246.341 108.302C235.602 106.22 231.905 97.75 232.864 88.1107C235.017 63.6382 240.164 37.2705 247.347 13.8975C250.037 4.74954 256.682 -1.70786 267.397 0.397814C277.879 2.4333 281.716 10.9262 280.78 20.4251C280.312 26.2274 279.681 32.1233 278.792 37.9958C285.53 37.7384 292.619 38.9784 298.749 41.7626C300.269 36.0305 301.743 30.4153 303.498 24.8704C306.329 15.7224 312.95 9.28843 323.432 11.3473C334.03 13.4062 337.891 21.8991 337.072 31.4448C334.826 55.777 329.679 82.1447 322.589 105.658C319.735 114.923 312.974 121.334 302.375 119.275C291.893 117.239 288.173 108.77 289.016 99.107C289.484 93.3047 290.232 87.5492 290.981 81.6768C284.243 81.9341 277.201 80.4367 271.071 77.6526V77.6292Z" fill="#525462"/>
<path d="M334.099 114.432C334.613 99.0602 337.842 82.5423 343.13 68.1068C345.142 62.4683 351.388 58.7015 362.104 60.8071C372.445 62.8192 376.68 68.6215 376.563 74.6344C376.189 90.0292 372.96 106.547 367.532 120.959C365.356 126.691 359.273 130.364 348.932 128.329C338.193 126.223 333.818 120.538 334.099 114.432ZM363.391 54.2562C354.804 52.5716 348.09 44.7104 350.289 33.4802C352.324 22.9986 361.8 17.5239 370.246 19.1616C379.464 20.9631 385.056 31.2341 383.278 40.3119C381.453 49.6471 372.983 56.1279 363.391 54.2562Z" fill="#525462"/>
<path d="M400.5 108.512C410.725 110.501 415.989 118.479 413.907 129.078C412.245 137.664 403.916 142.718 394.183 140.823C384.334 138.904 378.648 131.113 380.333 122.527C382.392 111.928 390.534 106.571 400.5 108.512ZM396.71 36.6388C398.605 28.2395 406.724 23.6538 416.691 25.5957C426.658 27.5376 432.46 34.8373 431.056 43.3302C428.132 60.971 423.616 76.7402 418.562 92.6497C416.293 100.207 410.748 104.488 401.67 102.71C392.593 100.932 389.06 94.8723 389.668 87.0112C390.955 70.3529 392.686 54.0691 396.757 36.6388H396.71Z" fill="#525462"/>
<path d="M416.764 83.5486C421.303 70.4934 424.578 57.0405 426.544 43.3536C426.965 40.4057 422.449 39.1423 422.028 42.1136C420.063 55.8005 416.811 69.2534 412.248 82.3086C411.266 85.1629 415.781 86.3795 416.764 83.5486Z" fill="#898B93"/>
<path d="M411.264 94.685C414.282 94.685 414.282 90.0057 411.264 90.0057C408.245 90.0057 408.245 94.685 411.264 94.685Z" fill="#898B93"/>
<path d="M365.476 26.7421C365.92 26.6018 366.365 26.555 366.809 26.438C366.692 26.4614 366.318 26.4848 366.646 26.4614C366.763 26.4614 366.903 26.4614 367.02 26.438C367.254 26.438 367.464 26.438 367.698 26.438C367.932 26.438 368.143 26.438 368.377 26.4614C368.47 26.4614 368.587 26.4614 368.681 26.4848C368.985 26.5082 368.143 26.3912 368.587 26.4848C369.032 26.5784 369.477 26.672 369.921 26.7889C370.108 26.8591 370.295 26.9059 370.506 26.9761C370.553 26.9761 371.021 27.1867 370.646 27.0229C370.319 26.8825 370.646 27.0229 370.717 27.0697C371.138 27.2569 371.535 27.4908 371.91 27.7248C372.097 27.8418 372.284 28.0055 372.471 28.1225C372.284 28.0055 372.144 27.8652 372.401 28.0991C372.471 28.1693 372.565 28.2395 372.635 28.3097C372.986 28.6373 373.314 28.9882 373.618 29.3625C374.39 30.3218 376.121 30.2282 376.917 29.3625C377.852 28.3565 377.759 27.0697 376.917 26.0637C373.945 22.4372 368.681 20.9398 364.212 22.25C363.043 22.601 362.177 23.9112 362.575 25.1278C362.972 26.3444 364.189 27.1399 365.452 26.7655L365.476 26.7421Z" fill="#898B93"/>
<path d="M259.278 9.66295C261.711 9.05464 264.285 8.49313 266.484 8.98445C267.022 9.10143 267.607 9.2886 267.888 9.45238C268.168 9.61615 268.473 9.77993 268.753 9.9437C268.894 10.0373 269.034 10.1309 269.174 10.2245C269.408 10.3882 269.455 10.435 269.315 10.318C270.321 11.1135 271.21 12.0494 272.076 12.9852C272.941 13.9211 274.509 13.8509 275.375 12.9852C276.24 12.1196 276.24 10.5988 275.375 9.68634C273.222 7.4169 270.859 5.19424 267.724 4.46896C264.589 3.74367 261.173 4.37537 258.014 5.14745C256.821 5.4516 256.002 6.85538 256.377 8.0252C256.751 9.19502 257.991 9.9671 259.254 9.66295H259.278Z" fill="#898B93"/>
<path d="M314.422 21.6183C316.856 21.01 319.429 20.4485 321.628 20.9398C322.167 21.0568 322.751 21.2439 323.032 21.4077C323.313 21.5715 323.617 21.7352 323.898 21.899C324.038 21.9926 324.179 22.0862 324.319 22.1798C324.553 22.3436 324.6 22.3903 324.459 22.2734C325.465 23.0688 326.355 24.0047 327.22 24.9406C328.086 25.8764 329.653 25.8062 330.519 24.9406C331.385 24.0749 331.385 22.5541 330.519 21.6417C328.367 19.3722 326.004 17.1496 322.868 16.4243C319.733 15.699 316.317 16.3307 313.159 17.1028C311.966 17.4069 311.147 18.8107 311.521 19.9805C311.896 21.1503 313.136 21.9224 314.399 21.6183H314.422Z" fill="#898B93"/>
<path d="M355.647 68.9724C356.981 68.8086 358.314 68.6683 359.671 68.6683C360.327 68.6683 360.958 68.6683 361.613 68.7618C362.011 68.8086 361.309 68.715 361.707 68.7618C361.871 68.7852 362.011 68.8086 362.175 68.8554C362.526 68.9256 362.877 69.0192 363.204 69.1362C364.07 69.4169 365.029 70.0252 365.778 70.7271C366.269 71.1951 366.714 71.6864 367.135 72.2245C367.229 72.3415 367.345 72.4819 367.439 72.5988C367.696 72.903 367.275 72.3649 367.509 72.6924C367.72 72.9732 367.93 73.2539 368.141 73.5581C368.866 74.5407 370.2 75.1257 371.346 74.4004C372.329 73.7687 372.961 72.2479 372.189 71.1951C370.2 68.5045 368.141 66.0011 364.912 64.7845C361.988 63.6848 358.712 63.9422 355.671 64.2931C354.454 64.4335 353.261 65.2758 353.331 66.6328C353.378 67.7792 354.361 69.1362 355.671 68.9724H355.647Z" fill="#898B93"/>
<path d="M327.268 41.8326C324.952 58.9822 321.466 75.9445 316.81 92.6261C315.991 95.5273 320.506 96.7673 321.325 93.8661C325.958 77.1845 329.444 60.2222 331.783 43.0726C332.181 40.1247 327.666 38.8613 327.268 41.8326Z" fill="#898B93"/>
<path d="M376.988 33.2231L376.38 34.2291C376.216 34.4865 376.123 34.7906 376.099 35.0948C376.029 35.3989 376.053 35.7265 376.146 36.0306C376.216 36.3348 376.357 36.5921 376.567 36.8261C376.731 37.0834 376.942 37.2706 377.222 37.4344L377.784 37.6684C378.205 37.7853 378.603 37.7853 379.024 37.6684L379.585 37.4344C379.936 37.2238 380.217 36.9431 380.428 36.5921L381.036 35.5861C381.2 35.3287 381.293 35.0246 381.317 34.7204C381.387 34.4163 381.364 34.0887 381.27 33.7846C381.2 33.4804 381.059 33.2231 380.849 32.9891C380.685 32.7317 380.475 32.5446 380.194 32.3808L379.632 32.1468C379.211 32.0298 378.813 32.0298 378.392 32.1468L377.831 32.3808C377.48 32.5913 377.199 32.8721 376.988 33.2231Z" fill="#898B93"/>
<path d="M233.568 200.694C245.15 203.08 258.088 203.034 268.031 195.781C275.729 190.142 282.326 179.591 278.864 169.811C277.413 165.693 273.927 162.113 269.248 162.722C264.288 163.377 261.199 168.524 261.574 173.274C262.51 184.691 276.641 188.107 285.836 185.58C298.938 181.977 306.331 169.717 312.671 158.674C314.543 155.399 309.49 152.451 307.618 155.726C303.453 162.979 299.148 170.77 292.363 175.917C286.468 180.363 277.226 182.936 270.769 178.093C268.265 176.221 265.855 172.127 268.546 169.343C271.236 166.559 273.436 171.308 273.81 173.554C274.98 180.714 269.341 188.013 263.703 191.686C255.257 197.185 244.658 197.021 235.136 195.056C231.463 194.307 229.895 199.945 233.592 200.694H233.568Z" fill="#525462"/>
<path d="M215.833 198.612C219.6 198.612 219.6 192.763 215.833 192.763C212.066 192.763 212.066 198.612 215.833 198.612Z" fill="#525462"/>
</g>
<g clip-path="url(#clip1_13719_56402)">
<path d="M103.001 496.872L127.797 417.015L149.359 423.71L131.258 482.005C127.56 493.915 114.91 500.57 103.001 496.872Z" fill="#525462" stroke="#3E404B" stroke-width="4.67927" stroke-linecap="round" stroke-linejoin="round"/>
<path d="M205.648 502.216C205.648 502.216 212.854 450.323 147.578 472.245C147.578 472.245 126.685 477.462 103.219 497.654L205.648 502.216Z" fill="#525462" stroke="#3E404B" stroke-width="4.67927" stroke-linecap="round" stroke-linejoin="round"/>
<path d="M2.9983 463.956L48.8052 394L67.6936 406.368L34.2548 457.435C27.4235 467.868 13.431 470.787 2.9983 463.956Z" fill="#525462" stroke="#3E404B" stroke-width="4.67927" stroke-linecap="round" stroke-linejoin="round"/>
<path d="M101.634 497.329C101.634 497.329 122.837 449.421 54.0491 452.541C54.0491 452.541 32.527 451.81 4.4116 464.767L101.634 497.329Z" fill="#525462" stroke="#3E404B" stroke-width="4.67927" stroke-linecap="round" stroke-linejoin="round"/>
<path d="M280.826 260.953V261.046C276.568 276.418 274.532 283.741 270.859 297.1C268.894 304.212 263.606 309.945 256.681 312.471C252.797 313.852 248.469 313.454 244.819 311.489C236.209 306.763 213.257 309.383 206.496 333.949C199.828 358.211 214.193 371.711 222.288 372.764C227.88 373.489 235.133 371.454 240.28 373.77C245.146 375.946 247.673 381.35 246.27 386.474C243.579 396.207 241.941 402.15 238.713 413.871C231.085 441.455 215.035 450.65 187.802 443.163C136.517 429.032 85.1622 414.924 33.8774 400.816L32.1929 400.348C25.6653 398.547 21.8517 391.808 23.6298 385.281C30.1574 361.533 36.4276 338.769 42.6745 316.004C47.3771 298.878 43.2594 294.105 26.0631 296.632C11.183 298.808 2.64331 293.357 0.397261 280.208C-2.01256 266.123 7.53315 249.956 20.2608 249.488C26.1566 249.278 32.965 252.998 38.1122 256.718C51.0972 266.053 56.8293 264.485 61.1576 248.857C65.2286 234.117 69.2761 219.401 73.4407 204.193C75.2422 197.665 81.9803 193.828 88.5079 195.607L123.907 205.339C131.3 207.375 135.043 215.634 131.651 222.489C125.802 234.281 126.738 246.377 138.904 258.309C149.806 269.071 167.424 272.3 180.9 266.1C193.019 260.531 198.237 251.851 198.681 240.949C199.032 233.228 206.66 227.917 214.146 229.976L272.403 246.002C278.861 247.78 282.651 254.448 280.873 260.906L280.826 260.953Z" fill="#3E404B"/>
<path d="M144.71 329.012C148.634 314.747 141.513 300.349 128.805 296.854C116.098 293.358 102.615 302.089 98.6909 316.354C94.7669 330.619 101.888 345.017 114.596 348.513C127.303 352.008 140.786 343.278 144.71 329.012Z" fill="white"/>
<path d="M179.882 337.829C183.806 323.564 176.685 309.166 163.977 305.67C151.269 302.175 137.787 310.905 133.863 325.171C129.939 339.436 137.06 353.834 149.767 357.329C162.475 360.825 175.958 352.094 179.882 337.829Z" fill="white"/>
<path d="M137.068 327.658C139.234 319.784 135.415 311.868 128.538 309.976C121.661 308.084 114.33 312.934 112.164 320.808C109.998 328.682 113.817 336.598 120.694 338.49C127.572 340.382 134.903 335.532 137.068 327.658Z" fill="#231815"/>
<path d="M169.178 335.87C171.344 327.996 167.524 320.079 160.647 318.187C153.77 316.296 146.439 321.145 144.273 329.019C142.107 336.893 145.927 344.81 152.804 346.701C159.681 348.593 167.012 343.743 169.178 335.87Z" fill="#231815"/>
<path d="M152.31 357.228C153.948 356.994 150.813 357.322 150.509 357.322C149.713 357.345 148.918 357.369 148.122 357.345C147.327 357.322 146.531 357.299 145.736 357.228C145.408 357.205 142.203 356.807 144.004 357.088C140.542 356.55 137.126 355.708 133.78 354.678C130.435 353.649 127.112 352.502 123.884 351.192C125.545 351.871 122.971 350.771 122.667 350.607C121.825 350.209 120.982 349.788 120.164 349.32C118.526 348.408 116.958 347.379 115.461 346.256C111.905 343.588 105.822 345.46 103.81 349.203C101.447 353.625 102.944 358 106.757 360.855C113.542 365.955 121.989 368.903 130.06 371.266C138.834 373.863 147.654 374.869 156.709 373.606C161.131 372.974 163.985 367.219 162.745 363.194C161.224 358.375 157.06 356.503 152.334 357.158L152.31 357.228Z" fill="#A9ABB7"/>
<path d="M132.378 364.739C126.248 363.054 119.112 360.223 111.555 355.567C110.97 355.193 110.783 354.421 111.134 353.836C111.508 353.251 112.28 353.064 112.865 353.415C134.39 366.681 152.592 364.458 152.756 364.435C153.435 364.341 154.09 364.832 154.16 365.511C154.23 366.189 153.762 366.845 153.084 366.915C152.569 366.985 144.333 368.014 132.354 364.715L132.378 364.739Z" fill="black"/>
<path d="M132.556 287.499C133.385 284.484 130.129 280.959 125.282 279.626C120.436 278.293 115.835 279.656 115.006 282.671C114.176 285.686 117.433 289.211 122.279 290.544C127.126 291.877 131.727 290.514 132.556 287.499Z" fill="#A9ABB7"/>
<path d="M178.771 298.985C179.6 295.97 176.344 292.445 171.497 291.112C166.651 289.779 162.05 291.143 161.22 294.158C160.391 297.173 163.648 300.697 168.494 302.031C173.34 303.364 177.942 302 178.771 298.985Z" fill="#A9ABB7"/>
</g>
<defs>
<clipPath id="clip0_13719_56402">
<rect width="218.241" height="202.098" fill="white" transform="translate(213)"/>
</clipPath>
<clipPath id="clip1_13719_56402">
<rect width="281.271" height="309.347" fill="white" transform="translate(0 195.209)"/>
</clipPath>
</defs>
</svg>
