<svg width="613" height="225" viewBox="0 0 613 225" fill="none" xmlns="http://www.w3.org/2000/svg">
<g clip-path="url(#clip0_13676_37662)">
<path d="M131.212 80.7441H485.336C489.376 80.7441 493.376 81.5406 497.108 83.0881C500.84 84.6355 504.231 86.9037 507.088 89.7629C509.944 92.6222 512.209 96.0165 513.754 99.7521C515.299 103.488 516.094 107.491 516.092 111.534V157.734H101.234V110.734C101.237 102.779 104.397 95.1513 110.018 89.5274C115.64 83.9035 123.263 80.7441 131.212 80.7441Z" fill="#D5D4FF"/>
<path d="M547.986 156.635H78.0195V181.625H547.986V156.635Z" fill="#5955B7"/>
<path d="M94.2074 141.145H94.1974C85.2626 141.145 78.0195 148.393 78.0195 157.335V186.915C78.0195 195.856 85.2626 203.105 94.1974 203.105H94.2074C103.142 203.105 110.385 195.856 110.385 186.915V157.335C110.385 148.393 103.142 141.145 94.2074 141.145Z" fill="#D5D4FF"/>
<path d="M531.809 141.145H531.799C522.864 141.145 515.621 148.393 515.621 157.335V186.915C515.621 195.856 522.864 203.105 531.799 203.105H531.809C540.744 203.105 547.987 195.856 547.987 186.915V157.335C547.987 148.393 540.744 141.145 531.809 141.145Z" fill="#D5D4FF"/>
<path d="M547.986 179.863H78.0195V204.853H547.986V179.863Z" fill="#D5D4FF"/>
<path d="M216.875 91.9744V107.054C216.874 107.752 216.716 108.44 216.414 109.068C216.112 109.696 215.673 110.249 215.129 110.685C214.586 111.121 213.952 111.43 213.274 111.589C212.595 111.749 211.89 111.754 211.209 111.604C206.363 110.604 202.006 111.684 198.599 117.034C196.904 119.712 196.078 122.848 196.236 126.014C196.393 129.18 197.526 132.219 199.478 134.714C202.866 138.994 206.783 139.914 211.06 138.924C211.749 138.777 212.462 138.787 213.146 138.953C213.831 139.12 214.469 139.438 215.014 139.884C215.559 140.331 215.997 140.894 216.295 141.533C216.593 142.172 216.743 142.869 216.735 143.574V168.124C216.733 169.348 216.245 170.52 215.38 171.385C214.514 172.249 213.342 172.734 212.119 172.734C192.56 172.734 173.008 172.734 153.463 172.734C147.922 172.713 142.614 170.5 138.698 166.577C134.781 162.654 132.574 157.34 132.559 151.794C132.559 131.914 132.559 112.041 132.559 92.1743V91.9343C132.577 90.7079 133.077 89.538 133.95 88.6773C134.823 87.8166 135.999 87.3342 137.225 87.3344H165.704C172.868 87.3344 174.057 85.5744 171.33 79.0344C168.981 73.4044 169.89 70.1043 174.457 67.6143C179.024 65.1243 186.378 66.3543 188.337 70.8243C189.336 73.1443 188.946 76.6044 188.057 79.1544C185.849 85.4744 186.888 87.3143 193.673 87.3243H212.239C213.468 87.3322 214.644 87.825 215.512 88.6956C216.38 89.5662 216.87 90.7445 216.875 91.9744Z" fill="#1F1E24"/>
<path d="M163.994 137.383C169.22 137.383 173.457 132.624 173.457 126.753C173.457 120.882 169.22 116.123 163.994 116.123C158.768 116.123 154.531 120.882 154.531 126.753C154.531 132.624 158.768 137.383 163.994 137.383Z" fill="white"/>
<path d="M178.373 137.055C183.599 137.055 187.836 132.296 187.836 126.425C187.836 120.554 183.599 115.795 178.373 115.795C173.147 115.795 168.91 120.554 168.91 126.425C168.91 132.296 173.147 137.055 178.373 137.055Z" fill="white"/>
<path d="M161.755 132.125C164.586 132.125 166.881 129.497 166.881 126.255C166.881 123.013 164.586 120.385 161.755 120.385C158.924 120.385 156.629 123.013 156.629 126.255C156.629 129.497 158.924 132.125 161.755 132.125Z" fill="#231815"/>
<path d="M176.564 132.074C179.395 132.074 181.69 129.446 181.69 126.204C181.69 122.962 179.395 120.334 176.564 120.334C173.733 120.334 171.438 122.962 171.438 126.204C171.438 129.446 173.733 132.074 176.564 132.074Z" fill="#231815"/>
<path d="M164.754 144.034C164.155 144.294 165.314 143.844 165.434 143.814C165.734 143.714 166.033 143.624 166.343 143.544C166.653 143.464 166.963 143.404 167.272 143.334C167.402 143.334 168.672 143.124 167.942 143.214C169.325 143.061 170.718 143.007 172.109 143.054C173.498 143.054 174.887 143.184 176.266 143.344C175.556 143.264 176.645 143.414 176.785 143.434C177.155 143.504 177.515 143.574 177.885 143.664C178.607 143.836 179.315 144.063 180.003 144.344C180.865 144.575 181.784 144.457 182.56 144.015C183.336 143.573 183.907 142.844 184.15 141.984C184.36 141.122 184.232 140.212 183.794 139.441C183.356 138.669 182.639 138.094 181.792 137.834C178.577 136.739 175.194 136.217 171.799 136.294C168.221 136.17 164.658 136.825 161.357 138.214C159.728 138.914 159.239 141.424 160.148 142.824C160.616 143.579 161.356 144.125 162.215 144.35C163.074 144.575 163.986 144.462 164.764 144.034H164.754Z" fill="#B87EEE"/>
<path d="M180.371 141.364H180.231C170.598 138.544 163.884 141.364 163.814 141.364C163.69 141.412 163.553 141.41 163.43 141.36C163.308 141.31 163.209 141.215 163.154 141.094C163.104 140.972 163.105 140.835 163.155 140.713C163.206 140.592 163.302 140.495 163.424 140.444C163.704 140.314 170.519 137.494 180.511 140.444C180.575 140.461 180.634 140.491 180.686 140.532C180.738 140.573 180.781 140.624 180.813 140.682C180.845 140.739 180.864 140.803 180.871 140.869C180.877 140.935 180.871 141.001 180.851 141.064C180.811 141.157 180.743 141.235 180.657 141.288C180.572 141.342 180.472 141.368 180.371 141.364Z" fill="black"/>
<path d="M162.666 114.775C164.658 114.775 166.273 113.772 166.273 112.535C166.273 111.298 164.658 110.295 162.666 110.295C160.674 110.295 159.059 111.298 159.059 112.535C159.059 113.772 160.674 114.775 162.666 114.775Z" fill="#B87EEE"/>
<path d="M178.803 114.044C180.795 114.044 182.41 113.042 182.41 111.804C182.41 110.567 180.795 109.564 178.803 109.564C176.81 109.564 175.195 110.567 175.195 111.804C175.195 113.042 176.81 114.044 178.803 114.044Z" fill="#B87EEE"/>
<path d="M171.078 119.574L154.57 125.094C154.9 120.924 157.178 117.384 160.766 116.184C164.353 114.984 168.32 116.444 171.078 119.574Z" fill="#1F1E24"/>
<path d="M187.617 123.773L170.93 119.603C173.418 116.313 177.195 114.603 180.822 115.483C184.449 116.363 186.968 119.693 187.617 123.773Z" fill="#1F1E24"/>
<path d="M168.151 169.121H168.641C169.701 169.121 170.718 169.543 171.467 170.293C172.217 171.043 172.638 172.06 172.638 173.121V201.261H163.984V173.261C163.995 172.161 164.438 171.11 165.218 170.335C165.998 169.56 167.052 169.124 168.151 169.121Z" fill="white" stroke="#231815" stroke-width="2" stroke-linecap="round" stroke-linejoin="round"/>
<path d="M133.258 201.042C133.258 201.042 131.499 180.972 156.131 190.652C156.131 190.652 164.045 193.062 172.658 201.272L133.258 201.042Z" fill="white" stroke="#231815" stroke-width="2" stroke-linecap="round" stroke-linejoin="round"/>
<path d="M182.871 201.031H179.873V173.231C179.873 172.078 180.332 170.971 181.147 170.155C181.962 169.34 183.067 168.881 184.22 168.881C185.368 168.881 186.468 169.337 187.28 170.149C188.091 170.962 188.547 172.063 188.547 173.211V195.321C188.547 196.836 187.946 198.288 186.876 199.359C185.806 200.43 184.354 201.031 182.841 201.031H182.871Z" fill="white" stroke="#231815" stroke-width="2" stroke-linecap="round" stroke-linejoin="round"/>
<path d="M215.593 184.482C215.593 184.482 208.598 165.592 190.492 184.892C190.492 184.892 184.367 190.462 180.09 201.572L215.593 184.482Z" fill="white" stroke="#231815" stroke-width="2" stroke-linecap="round" stroke-linejoin="round"/>
<path d="M199.47 196.662C209.285 192.138 216.547 186.962 215.691 185.101C214.834 183.24 206.183 185.398 196.369 189.922C186.554 194.446 179.292 199.622 180.149 201.483C181.005 203.344 189.656 201.185 199.47 196.662Z" fill="#231815" stroke="#231815" stroke-width="2" stroke-linecap="round" stroke-linejoin="round"/>
<path d="M379.042 118.443C377.347 121.121 376.521 124.257 376.679 127.423C376.836 130.589 377.969 133.628 379.922 136.123C383.309 140.413 387.226 141.323 391.503 140.333C392.192 140.186 392.905 140.196 393.59 140.363C394.274 140.529 394.913 140.847 395.458 141.293C396.003 141.74 396.44 142.303 396.738 142.942C397.036 143.581 397.187 144.279 397.179 144.983V169.483C397.179 170.719 396.688 171.905 395.815 172.779C394.942 173.652 393.757 174.143 392.522 174.143C372.97 174.143 353.422 174.143 333.876 174.143C328.334 174.125 323.023 171.913 319.105 167.989C315.186 164.066 312.978 158.75 312.962 153.203V140.273C312.056 139.575 310.993 139.11 309.866 138.918C308.739 138.726 307.582 138.814 306.497 139.173C304.746 139.763 302.851 139.772 301.095 139.199C299.338 138.626 297.812 137.502 296.744 135.993C295.065 133.767 294.125 131.07 294.055 128.281C293.985 125.492 294.789 122.752 296.355 120.443C299.442 116.293 303.04 115.353 308.226 117.363C309.718 118.061 311.303 118.539 312.932 118.783C312.946 118.781 312.959 118.774 312.968 118.763C312.977 118.752 312.982 118.738 312.982 118.723C312.982 110.35 312.982 101.977 312.982 93.6035V93.3634C313.003 92.1388 313.504 90.9714 314.377 90.1129C315.25 89.2543 316.425 88.7733 317.649 88.7734H346.127C353.292 88.7734 354.491 87.0235 351.753 80.4735C349.405 74.8535 350.314 71.5434 354.881 69.0534C359.447 66.5634 366.802 67.8034 368.76 72.2634C369.76 74.5834 369.37 78.0435 368.48 80.6035C366.272 86.9135 367.311 88.7534 374.096 88.7634H392.662C393.899 88.7661 395.085 89.2589 395.959 90.1342C396.834 91.0094 397.326 92.1957 397.329 93.4334V108.433C397.329 109.139 397.171 109.835 396.866 110.471C396.562 111.107 396.118 111.667 395.569 112.108C395.019 112.55 394.377 112.862 393.691 113.022C393.005 113.182 392.291 113.186 391.603 113.033C386.767 111.963 382.44 113.113 379.042 118.443Z" fill="#1F1E24"/>
<path d="M342.779 139.093C348.005 139.093 352.242 134.334 352.242 128.463C352.242 122.592 348.005 117.833 342.779 117.833C337.553 117.833 333.316 122.592 333.316 128.463C333.316 134.334 337.553 139.093 342.779 139.093Z" fill="white"/>
<path d="M357.158 138.763C362.384 138.763 366.621 134.004 366.621 128.133C366.621 122.262 362.384 117.503 357.158 117.503C351.932 117.503 347.695 122.262 347.695 128.133C347.695 134.004 351.932 138.763 357.158 138.763Z" fill="white"/>
<path d="M344.056 134.624C346.887 134.624 349.182 131.996 349.182 128.754C349.182 125.512 346.887 122.884 344.056 122.884C341.225 122.884 338.93 125.512 338.93 128.754C338.93 131.996 341.225 134.624 344.056 134.624Z" fill="#231815"/>
<path d="M357.196 134.374C360.028 134.374 362.323 131.746 362.323 128.504C362.323 125.262 360.028 122.634 357.196 122.634C354.365 122.634 352.07 125.262 352.07 128.504C352.07 131.746 354.365 134.374 357.196 134.374Z" fill="#231815"/>
<path d="M340.776 114.579C342.651 113.907 343.834 112.418 343.418 111.254C343.001 110.089 341.143 109.689 339.267 110.361C337.392 111.033 336.209 112.521 336.625 113.686C337.042 114.851 338.9 115.251 340.776 114.579Z" fill="#B87EEE"/>
<path d="M358.498 115.624C360.49 115.624 362.105 114.621 362.105 113.384C362.105 112.146 360.49 111.144 358.498 111.144C356.506 111.144 354.891 112.146 354.891 113.384C354.891 114.621 356.506 115.624 358.498 115.624Z" fill="#B87EEE"/>
<path d="M350.723 148.344C354.393 148.344 357.368 145.367 357.368 141.694C357.368 138.021 354.393 135.044 350.723 135.044C347.053 135.044 344.078 138.021 344.078 141.694C344.078 145.367 347.053 148.344 350.723 148.344Z" fill="#B87EEE"/>
<path d="M350.721 145.344C352.736 145.344 354.369 143.71 354.369 141.694C354.369 139.678 352.736 138.044 350.721 138.044C348.707 138.044 347.074 139.678 347.074 141.694C347.074 143.71 348.707 145.344 350.721 145.344Z" fill="#231815"/>
<path d="M365.09 202.367L362.148 202.943L356.801 175.571C356.585 174.462 356.817 173.312 357.448 172.375C358.078 171.438 359.054 170.789 360.162 170.572C361.312 170.348 362.504 170.589 363.476 171.243C364.448 171.898 365.12 172.912 365.345 174.062L369.562 195.654C369.852 197.14 369.54 198.681 368.695 199.937C367.851 201.194 366.542 202.063 365.056 202.353L365.09 202.367Z" fill="white" stroke="#231815" stroke-width="2" stroke-miterlimit="10"/>
<path d="M394.072 179.944C394.072 179.944 383.58 162.754 369.51 185.174C369.51 185.174 364.514 191.814 362.516 203.544L394.072 179.944Z" fill="white" stroke="#231815" stroke-width="2" stroke-linecap="round" stroke-linejoin="round"/>
<path d="M381.328 195.46C390.081 189.188 396.213 182.759 395.026 181.099C393.838 179.439 385.78 183.178 377.028 189.45C368.275 195.722 362.142 202.152 363.33 203.812C364.517 205.471 372.575 201.732 381.328 195.46Z" fill="#231815" stroke="#231815" stroke-width="1.99249" stroke-linecap="round" stroke-linejoin="round"/>
<path d="M342.322 202.051L339.347 202.42L335.897 174.543C335.831 174.013 335.871 173.475 336.013 172.959C336.155 172.444 336.397 171.962 336.726 171.541C337.054 171.119 337.462 170.766 337.927 170.503C338.391 170.239 338.903 170.069 339.433 170.004L340.236 169.904C341.244 169.779 342.259 170.06 343.06 170.685C343.86 171.309 344.38 172.226 344.505 173.234L347.283 195.683C347.469 197.186 347.051 198.701 346.12 199.895C345.19 201.09 343.824 201.865 342.322 202.051Z" fill="white" stroke="#231815" stroke-width="2" stroke-miterlimit="10"/>
<path d="M372.764 181.573C372.764 181.573 363.501 163.693 347.893 185.073C347.893 185.073 342.507 191.353 339.629 202.913L372.764 181.573Z" fill="white" stroke="#231815" stroke-width="2" stroke-linecap="round" stroke-linejoin="round"/>
<path d="M358.314 195.609C367.498 189.912 374.069 183.882 372.991 182.141C371.912 180.399 363.592 183.606 354.408 189.302C345.223 194.999 338.652 201.029 339.73 202.771C340.809 204.512 349.129 201.306 358.314 195.609Z" fill="#231815" stroke="#231815" stroke-width="2" stroke-linecap="round" stroke-linejoin="round"/>
<path d="M306.12 92.6348C306.12 98.9548 306.12 101.975 306.12 107.475C306.124 108.921 305.78 110.346 305.118 111.631C304.455 112.915 303.493 114.021 302.313 114.855C301.644 115.316 300.885 115.632 300.087 115.782C299.288 115.932 298.467 115.913 297.676 115.725C293.889 114.825 285.385 118.255 285.385 128.365C285.385 138.475 292.3 142.005 295.508 141.555C297.726 141.245 300.284 139.705 302.502 140.045C303.51 140.202 304.429 140.715 305.092 141.491C305.756 142.266 306.12 143.254 306.12 144.275V155.575C306.12 166.935 300.934 172.145 289.732 172.145H225.72C225.081 172.145 224.449 172.019 223.859 171.774C223.27 171.529 222.734 171.17 222.283 170.718C221.832 170.265 221.474 169.729 221.23 169.138C220.987 168.547 220.863 167.914 220.864 167.275C220.864 157.505 220.864 148.135 220.864 138.765C220.864 131.765 218.785 130.325 212.47 133.105C207.001 135.505 203.154 134.312 200.929 129.525C198.52 124.385 200.479 117.195 205.295 115.675C207.524 114.975 210.522 115.675 212.88 116.565C218.875 118.775 220.874 117.565 220.874 111.135C220.874 105.065 220.874 99.0048 220.874 92.7448C220.874 91.4549 221.385 90.2178 222.296 89.3048C223.206 88.3917 224.441 87.8775 225.73 87.8748H240.269C240.983 87.8724 241.688 88.0281 242.334 88.3306C242.981 88.6331 243.552 89.075 244.008 89.6246C244.463 90.1742 244.792 90.8179 244.969 91.5095C245.147 92.2011 245.17 92.9235 245.036 93.6248C244.036 98.7548 245.665 103.285 251.581 106.575C254.224 108.02 257.234 108.654 260.236 108.398C263.237 108.142 266.097 107.007 268.458 105.135C272.455 101.725 273.584 97.8548 272.615 93.6348C272.466 92.9284 272.476 92.1974 272.646 91.4957C272.817 90.7939 273.142 90.1394 273.598 89.58C274.054 89.0207 274.63 88.5708 275.283 88.2636C275.936 87.9564 276.65 87.7996 277.371 87.8048H301.353C302.624 87.8154 303.84 88.3296 304.733 89.2348C305.626 90.14 306.125 91.3626 306.12 92.6348Z" fill="#1F1E24"/>
<path d="M251.76 143.645C256.986 143.645 261.223 138.886 261.223 133.015C261.223 127.144 256.986 122.385 251.76 122.385C246.534 122.385 242.297 127.144 242.297 133.015C242.297 138.886 246.534 143.645 251.76 143.645Z" fill="white"/>
<path d="M266.139 143.315C271.365 143.315 275.602 138.555 275.602 132.685C275.602 126.814 271.365 122.055 266.139 122.055C260.912 122.055 256.676 126.814 256.676 132.685C256.676 138.555 260.912 143.315 266.139 143.315Z" fill="white"/>
<path d="M253.036 139.174C255.867 139.174 258.162 136.546 258.162 133.304C258.162 130.062 255.867 127.434 253.036 127.434C250.205 127.434 247.91 130.062 247.91 133.304C247.91 136.546 250.205 139.174 253.036 139.174Z" fill="#231815"/>
<path d="M266.177 138.924C269.008 138.924 271.303 136.296 271.303 133.054C271.303 129.812 269.008 127.184 266.177 127.184C263.346 127.184 261.051 129.812 261.051 133.054C261.051 136.296 263.346 138.924 266.177 138.924Z" fill="#231815"/>
<path d="M266.86 143.573C267.459 143.313 266.29 143.763 266.18 143.793C265.87 143.893 265.571 143.983 265.261 144.063L264.332 144.273C264.212 144.273 262.932 144.483 263.662 144.393C262.279 144.547 260.886 144.6 259.495 144.553C258.106 144.553 256.727 144.423 255.348 144.263C256.048 144.343 254.959 144.193 254.819 144.173C254.449 144.103 254.089 144.033 253.729 143.943C253.004 143.771 252.292 143.544 251.601 143.263C250.739 143.032 249.82 143.151 249.044 143.592C248.268 144.034 247.697 144.764 247.454 145.623C247.244 146.485 247.372 147.395 247.81 148.167C248.248 148.938 248.965 149.513 249.812 149.773C253.027 150.869 256.41 151.39 259.805 151.313C263.384 151.438 266.946 150.783 270.247 149.393C271.876 148.693 272.365 146.183 271.456 144.783C270.99 144.029 270.251 143.483 269.394 143.258C268.537 143.033 267.626 143.146 266.85 143.573H266.86Z" fill="#B87EEE"/>
<path d="M260.024 148.574C256.998 148.562 253.99 148.117 251.09 147.254C251.027 147.236 250.969 147.205 250.917 147.164C250.866 147.123 250.824 147.072 250.792 147.015C250.76 146.957 250.741 146.894 250.733 146.829C250.726 146.763 250.732 146.697 250.75 146.634C250.79 146.509 250.876 146.403 250.992 146.34C251.107 146.276 251.243 146.26 251.37 146.294C261.003 149.114 267.728 146.294 267.788 146.294C267.911 146.247 268.048 146.248 268.171 146.298C268.294 146.349 268.392 146.444 268.447 146.564C268.473 146.625 268.487 146.69 268.487 146.755C268.488 146.821 268.475 146.886 268.45 146.947C268.425 147.007 268.388 147.062 268.341 147.108C268.294 147.154 268.238 147.19 268.177 147.214C265.568 148.172 262.802 148.634 260.024 148.574Z" fill="black"/>
<path d="M248.599 120.644C250.592 120.644 252.207 119.641 252.207 118.404C252.207 117.167 250.592 116.164 248.599 116.164C246.607 116.164 244.992 117.167 244.992 118.404C244.992 119.641 246.607 120.644 248.599 120.644Z" fill="#B87EEE"/>
<path d="M267.478 120.173C269.471 120.173 271.086 119.17 271.086 117.933C271.086 116.696 269.471 115.693 267.478 115.693C265.486 115.693 263.871 116.696 263.871 117.933C263.871 119.17 265.486 120.173 267.478 120.173Z" fill="#B87EEE"/>
<path d="M262.092 169.905C262.298 169.519 262.58 169.179 262.921 168.905C265.019 167.235 273.913 160.545 278.01 164.515C282.107 168.485 282.836 189.045 283.006 195.075C283.021 195.581 282.913 196.084 282.69 196.539C282.467 196.993 282.136 197.387 281.727 197.685L279.049 199.635C278.588 199.983 278.04 200.196 277.465 200.251C276.891 200.306 276.312 200.2 275.794 199.945C275.276 199.689 274.839 199.295 274.531 198.806C274.224 198.317 274.058 197.753 274.053 197.175C273.903 188.465 273.503 173.355 272.594 173.255C270.19 173.429 267.799 173.763 265.439 174.255C264.888 174.365 264.318 174.323 263.789 174.134C263.261 173.945 262.793 173.616 262.437 173.181C262.081 172.747 261.85 172.223 261.768 171.667C261.686 171.112 261.756 170.544 261.972 170.025C262.015 169.988 262.055 169.948 262.092 169.905Z" fill="white" stroke="#231815" stroke-width="2" stroke-miterlimit="10"/>
<path d="M311.344 182.755C311.344 182.755 304.549 163.755 286.223 182.895C286.223 182.895 280.037 188.395 275.641 199.465L311.344 182.755Z" fill="white" stroke="#231815" stroke-width="2" stroke-linecap="round" stroke-linejoin="round"/>
<path d="M295.086 194.398C304.818 189.698 311.993 184.409 311.113 182.583C310.233 180.758 301.63 183.088 291.898 187.787C282.167 192.487 274.991 197.777 275.871 199.602C276.751 201.428 285.354 199.098 295.086 194.398Z" fill="#231815" stroke="#231815" stroke-width="2" stroke-linecap="round" stroke-linejoin="round"/>
<path d="M249.258 165.785C249.653 165.589 250.087 165.484 250.527 165.475C253.205 165.395 264.347 165.475 265.226 171.045C266.076 176.495 254.344 193.555 250.857 198.475C250.563 198.888 250.173 199.223 249.72 199.452C249.267 199.68 248.766 199.794 248.259 199.785H244.961C244.382 199.785 243.813 199.623 243.32 199.318C242.827 199.012 242.429 198.575 242.171 198.056C241.912 197.536 241.804 196.955 241.857 196.377C241.91 195.799 242.124 195.248 242.473 194.785C247.589 187.785 256.353 175.425 255.683 174.785C253.644 173.494 251.525 172.335 249.338 171.315C248.834 171.068 248.406 170.69 248.1 170.22C247.793 169.75 247.62 169.206 247.597 168.645C247.575 168.085 247.704 167.528 247.972 167.035C248.24 166.542 248.636 166.131 249.118 165.845L249.258 165.785Z" fill="white" stroke="#231815" stroke-width="2" stroke-miterlimit="10"/>
<path d="M280.885 205.685C280.885 205.685 286.881 186.445 260.74 190.685C260.74 190.685 252.487 191.355 242.324 197.555L280.885 205.685Z" fill="white" stroke="#231815" stroke-width="2" stroke-linecap="round" stroke-linejoin="round"/>
<path d="M280.577 205.591C280.971 203.603 272.698 200.287 262.098 198.185C251.499 196.082 242.587 195.99 242.193 197.978C241.8 199.966 250.073 203.282 260.672 205.385C271.272 207.487 280.184 207.579 280.577 205.591Z" fill="#231815" stroke="#231815" stroke-width="2" stroke-linecap="round" stroke-linejoin="round"/>
<path d="M407.454 175.484C406.875 175.474 406.324 175.236 405.918 174.823C405.513 174.409 405.285 173.853 405.286 173.274C405.139 163.867 404.992 154.477 404.846 145.104C404.846 144.844 404.846 144.574 404.846 144.314C404.786 139.314 400.849 136.504 396.032 137.824C394.281 138.414 392.387 138.423 390.63 137.85C388.874 137.277 387.348 136.153 386.28 134.644C384.603 132.418 383.664 129.723 383.594 126.937C383.524 124.15 384.327 121.411 385.89 119.104C388.978 114.944 392.575 114.014 397.761 116.024C404.037 118.454 404.416 118.194 404.326 111.604C404.216 104.404 404.117 97.1941 404.017 89.6041C404.011 89.0115 404.239 88.4405 404.65 88.014C405.061 87.5876 405.623 87.3398 406.215 87.3241C414.908 87.1541 423.272 86.9541 431.626 86.9841C432.345 86.9841 433.235 88.7641 433.684 89.8641C433.894 90.3741 433.235 91.2341 432.975 91.9341C430.397 98.7741 431.925 103.314 437.761 106.224C443.597 109.134 451.751 107.224 454.429 101.814C455.598 99.4341 455.278 96.1341 455.028 93.3041C454.85 92.0733 454.462 90.8826 453.879 89.7841C453.732 89.4661 453.661 89.1178 453.674 88.7675C453.686 88.4171 453.781 88.0747 453.95 87.7678C454.119 87.461 454.359 87.1984 454.649 87.0014C454.938 86.8044 455.27 86.6786 455.618 86.6341C456.098 86.5619 456.582 86.5185 457.067 86.5041C467.539 86.2841 478.051 86.2241 488.493 85.8641C491.85 85.7441 492.79 86.8641 492.83 90.1741C493.06 112.644 493.549 135.104 493.829 157.574C493.959 167.154 487.923 174.154 478.84 174.364C455.048 174.924 431.246 175.154 407.444 175.504L407.454 175.484Z" fill="#1F1E24"/>
<path d="M434.564 142.263C439.791 142.263 444.027 137.504 444.027 131.633C444.027 125.762 439.791 121.003 434.564 121.003C429.338 121.003 425.102 125.762 425.102 131.633C425.102 137.504 429.338 142.263 434.564 142.263Z" fill="white"/>
<path d="M435.853 137.794C438.684 137.794 440.979 135.166 440.979 131.924C440.979 128.682 438.684 126.054 435.853 126.054C433.022 126.054 430.727 128.682 430.727 131.924C430.727 135.166 433.022 137.794 435.853 137.794Z" fill="#231815"/>
<path d="M443.897 129.823L425.91 127.263C426.554 125.477 427.72 123.926 429.256 122.812C430.792 121.697 432.627 121.07 434.524 121.013C439.24 121.013 443.117 124.813 443.897 129.823Z" fill="#B87EEE"/>
<path d="M453.209 142.263C458.435 142.263 462.672 137.504 462.672 131.633C462.672 125.762 458.435 121.003 453.209 121.003C447.983 121.003 443.746 125.762 443.746 131.633C443.746 137.504 447.983 142.263 453.209 142.263Z" fill="white"/>
<path d="M451.931 137.794C454.762 137.794 457.057 135.166 457.057 131.924C457.057 128.682 454.762 126.054 451.931 126.054C449.1 126.054 446.805 128.682 446.805 131.924C446.805 135.166 449.1 137.794 451.931 137.794Z" fill="#231815"/>
<path d="M443.879 129.823L461.865 127.263C461.221 125.475 460.053 123.923 458.515 122.809C456.977 121.694 455.14 121.068 453.242 121.013C448.535 121.013 444.658 124.813 443.879 129.823Z" fill="#B87EEE"/>
<path d="M441.409 120.577C441.781 119.398 440.543 117.955 438.643 117.355C436.743 116.754 434.901 117.224 434.529 118.404C434.157 119.584 435.396 121.027 437.295 121.627C439.195 122.227 441.037 121.757 441.409 120.577Z" fill="#B87EEE"/>
<path d="M450.542 120.096C452.554 118.934 453.684 117.123 453.066 116.051C452.448 114.98 450.315 115.054 448.303 116.216C446.291 117.379 445.161 119.19 445.779 120.261C446.397 121.333 448.53 121.259 450.542 120.096Z" fill="#B87EEE"/>
<path d="M466.798 126.134C466.798 126.134 466.16 133.448 459.676 133.448C460.614 133.33 461.565 133.425 462.462 133.723C463.359 134.022 464.177 134.518 464.857 135.175C465.537 135.832 466.062 136.632 466.392 137.518C466.723 138.405 466.851 139.353 466.767 140.296C466.712 139.378 466.853 138.459 467.18 137.6C467.507 136.741 468.014 135.962 468.666 135.314C469.317 134.667 470.099 134.165 470.96 133.843C471.82 133.522 472.739 133.387 473.656 133.448C472.722 133.43 471.801 133.226 470.947 132.846C470.094 132.467 469.325 131.92 468.686 131.238C468.047 130.556 467.55 129.754 467.226 128.877C466.902 128 466.756 127.068 466.798 126.134Z" fill="#B87EEE"/>
<path d="M436.642 149.124C436.063 149.414 437.192 148.904 437.312 148.864C437.602 148.744 437.901 148.644 438.201 148.544L439.12 148.284C439.25 148.284 440.509 148.004 439.79 148.124C441.162 147.902 442.548 147.775 443.937 147.744C445.326 147.744 446.715 147.744 448.104 147.814C447.394 147.764 448.493 147.814 448.633 147.874C449.003 147.924 449.363 147.974 449.733 148.044C450.463 148.186 451.184 148.373 451.891 148.604C452.761 148.791 453.67 148.626 454.42 148.145C455.169 147.663 455.696 146.904 455.888 146.034C456.052 145.165 455.877 144.266 455.399 143.523C454.921 142.779 454.177 142.246 453.32 142.034C450.048 141.107 446.637 140.768 443.247 141.034C439.668 141.1 436.147 141.943 432.925 143.504C431.336 144.294 430.987 146.824 431.926 148.184C432.43 148.915 433.193 149.426 434.061 149.611C434.928 149.797 435.834 149.644 436.592 149.184L436.642 149.124Z" fill="#B87EEE"/>
<path d="M435.344 146.512C435.25 146.51 435.158 146.482 435.078 146.431C434.999 146.38 434.935 146.308 434.894 146.222C434.866 146.164 434.849 146.1 434.845 146.036C434.841 145.971 434.85 145.906 434.871 145.844C434.892 145.783 434.926 145.726 434.969 145.678C435.013 145.629 435.065 145.59 435.124 145.562C435.404 145.422 442.049 142.242 452.192 144.622C452.32 144.653 452.431 144.734 452.5 144.846C452.569 144.958 452.591 145.094 452.561 145.222C452.528 145.349 452.447 145.459 452.335 145.528C452.224 145.597 452.09 145.62 451.962 145.592C442.189 143.302 435.634 146.422 435.564 146.452C435.497 146.49 435.421 146.511 435.344 146.512Z" fill="black"/>
<path d="M448.803 171.574C448.386 171.431 447.944 171.376 447.504 171.414C444.846 171.644 433.774 172.914 433.515 178.604C433.285 184.124 446.865 199.744 450.882 204.234C451.219 204.61 451.643 204.897 452.117 205.071C452.59 205.246 453.099 205.301 453.6 205.234L456.887 204.814C457.454 204.742 457.99 204.516 458.437 204.159C458.883 203.803 459.224 203.331 459.421 202.795C459.618 202.258 459.664 201.678 459.553 201.117C459.443 200.556 459.181 200.036 458.796 199.614C452.92 193.184 442.808 181.934 443.427 181.234C445.303 179.72 447.275 178.33 449.333 177.074C449.809 176.774 450.194 176.351 450.447 175.849C450.701 175.347 450.813 174.785 450.772 174.224C450.731 173.663 450.538 173.123 450.214 172.664C449.89 172.204 449.448 171.841 448.933 171.614L448.803 171.574Z" fill="white" stroke="#231815" stroke-width="2" stroke-miterlimit="10"/>
<path d="M421.874 214.803C421.874 214.803 413.77 196.363 440.21 197.633C440.21 197.633 448.473 197.363 459.275 202.373L421.874 214.803Z" fill="white" stroke="#231815" stroke-width="2" stroke-linecap="round" stroke-linejoin="round"/>
<path d="M441.732 212.316C452.027 209.032 459.875 204.804 459.26 202.873C458.644 200.942 449.8 202.039 439.505 205.323C429.209 208.607 421.362 212.835 421.977 214.766C422.592 216.697 431.437 215.6 441.732 212.316Z" fill="#231815" stroke="#231815" stroke-width="2" stroke-linecap="round" stroke-linejoin="round"/>
<path d="M455.937 168.935C455.688 168.571 455.364 168.265 454.988 168.035C452.7 166.655 442.997 161.175 439.46 165.645C435.923 170.115 437.851 190.595 438.461 196.595C438.51 197.099 438.682 197.584 438.963 198.006C439.244 198.428 439.623 198.774 440.069 199.015L442.967 200.605C443.468 200.88 444.035 201.012 444.606 200.986C445.177 200.96 445.73 200.778 446.205 200.459C446.679 200.14 447.057 199.697 447.297 199.178C447.536 198.658 447.629 198.083 447.564 197.515C446.564 188.855 445.016 173.825 445.915 173.615C448.323 173.49 450.736 173.523 453.14 173.715C453.7 173.753 454.261 173.637 454.761 173.381C455.262 173.124 455.683 172.736 455.98 172.258C456.276 171.78 456.438 171.231 456.446 170.668C456.455 170.106 456.31 169.551 456.027 169.065L455.937 168.935Z" fill="white" stroke="#231815" stroke-width="2" stroke-miterlimit="10"/>
<path d="M408.773 188.055C408.773 188.055 413.05 168.375 433.695 184.935C433.695 184.935 440.55 189.585 446.345 199.995L408.773 188.055Z" fill="white" stroke="#231815" stroke-width="2" stroke-linecap="round" stroke-linejoin="round"/>
<path d="M445.823 200.298C446.459 198.373 438.657 194.061 428.398 190.665C418.139 187.27 409.307 186.077 408.671 188.002C408.035 189.926 415.836 194.239 426.095 197.634C436.354 201.03 445.187 202.222 445.823 200.298Z" fill="#231815" stroke="#231815" stroke-width="2" stroke-linecap="round" stroke-linejoin="round"/>
</g>
<g clip-path="url(#clip1_13676_37662)">
<path d="M539.932 0.0429688H528.98V224.043H539.932V0.0429688Z" fill="#575395"/>
<path d="M577.475 0.0429688H566.523V224.043H577.475V0.0429688Z" fill="#575395"/>
<path d="M612.077 0.0429688H601.125V224.043H612.077V0.0429688Z" fill="#575395"/>
<path d="M11.0299 0.0429688H0.078125V224.043H11.0299V0.0429688Z" fill="#575395"/>
<path d="M45.6315 0.0429688H34.6797V224.043H45.6315V0.0429688Z" fill="#575395"/>
<path d="M556.291 116.413H540.193C538.537 116.413 537.195 117.756 537.195 119.414V146.088C537.195 147.746 538.537 149.089 540.193 149.089H556.291C557.947 149.089 559.289 147.746 559.289 146.088V119.414C559.289 117.756 557.947 116.413 556.291 116.413Z" fill="#575395"/>
<path d="M548.028 133.527C550.886 133.527 553.204 131.207 553.204 128.346C553.204 125.485 550.886 123.165 548.028 123.165C545.169 123.165 542.852 125.485 542.852 128.346C542.852 131.207 545.169 133.527 548.028 133.527Z" fill="#AAA3FB"/>
<path d="M550.083 131.477H545.977V141.258H550.083V131.477Z" fill="#AAA3FB"/>
<path d="M479.917 55.6832C486.501 55.6832 491.838 51.7426 491.838 46.8817C491.838 42.0207 486.501 38.0801 479.917 38.0801C473.333 38.0801 467.996 42.0207 467.996 46.8817C467.996 51.7426 473.333 55.6832 479.917 55.6832Z" fill="#E8E6FE"/>
<path d="M511.075 38.7901V47.3916H448.762V38.7901C454.757 27.128 466.499 19.2266 479.928 19.2266C493.358 19.2266 505.05 27.128 511.075 38.7901Z" fill="#17171C"/>
<path d="M482.055 0.433594H477.758V30.569H482.055V0.433594Z" fill="#17171C"/>
</g>
<defs>
<clipPath id="clip0_13676_37662">
<rect width="469.967" height="209.34" fill="white" transform="translate(78.0195 7.33398)"/>
</clipPath>
<clipPath id="clip1_13676_37662">
<rect width="612" height="224" fill="white" transform="translate(0.078125 0.0429688)"/>
</clipPath>
</defs>
</svg>
