<svg width="242" height="123" viewBox="0 0 242 123" fill="none" xmlns="http://www.w3.org/2000/svg">
<g clip-path="url(#clip0_13841_42477)">
<path d="M27.326 45.3438H209.248C211.324 45.3437 213.379 45.7529 215.296 46.5479C217.213 47.3429 218.955 48.5081 220.423 49.9769C221.89 51.4458 223.054 53.1895 223.847 55.1086C224.641 57.0276 225.049 59.0844 225.049 61.1613V84.8954H11.9258V60.7504C11.9271 56.6638 13.5503 52.7451 16.4382 49.8559C19.3261 46.9668 23.2425 45.3437 27.326 45.3438Z" fill="#D5D4FF"/>
<path d="M241.434 84.3301H0V97.1681H241.434V84.3301Z" fill="#5955B7"/>
<path d="M8.31609 76.373H8.31096C3.72094 76.373 0 80.0968 0 84.6903V99.8862C0 104.48 3.72094 108.203 8.31096 108.203H8.31609C12.9061 108.203 16.627 104.48 16.627 99.8862V84.6903C16.627 80.0968 12.9061 76.373 8.31609 76.373Z" fill="#D5D4FF"/>
<path d="M233.121 76.373H233.116C228.526 76.373 224.805 80.0968 224.805 84.6903V99.8862C224.805 104.48 228.526 108.203 233.116 108.203H233.121C237.711 108.203 241.432 104.48 241.432 99.8862V84.6903C241.432 80.0968 237.711 76.373 233.121 76.373Z" fill="#D5D4FF"/>
<path d="M241.434 96.2627H0V109.101H241.434V96.2627Z" fill="#D5D4FF"/>
<path d="M71.3351 51.1104V58.8574C71.3342 59.2156 71.2532 59.569 71.098 59.8917C70.9428 60.2145 70.7173 60.4983 70.4382 60.7225C70.159 60.9467 69.8333 61.1054 69.4848 61.1872C69.1364 61.2689 68.774 61.2715 68.4244 61.1948C65.9347 60.6811 63.6966 61.2359 61.9461 63.9843C61.0752 65.3597 60.6511 66.9712 60.732 68.5974C60.8129 70.2237 61.3947 71.785 62.3978 73.067C64.138 75.2658 66.1504 75.7384 68.3475 75.2298C68.7014 75.1543 69.0677 75.1594 69.4194 75.2447C69.7711 75.3301 70.099 75.4935 70.379 75.7229C70.659 75.9523 70.8839 76.2418 71.037 76.5699C71.19 76.8981 71.2673 77.2565 71.2632 77.6186V90.2305C71.2618 90.8591 71.0114 91.4615 70.5668 91.9055C70.1221 92.3495 69.5197 92.5988 68.8916 92.5988C58.8439 92.5988 48.7995 92.5988 38.7585 92.5988C35.9119 92.588 33.1852 91.4508 31.1733 89.4355C29.1613 87.4201 28.0276 84.6902 28.0195 81.8414C28.0195 71.6286 28.0195 61.4191 28.0195 51.2131V51.0898C28.029 50.4598 28.2857 49.8588 28.7343 49.4166C29.1828 48.9745 29.7872 48.7267 30.4168 48.7267H45.0469C48.7276 48.7267 49.3385 47.8226 47.9371 44.4628C46.7308 41.5705 47.1978 39.8752 49.5438 38.5961C51.8898 37.3169 55.668 37.9488 56.6741 40.2451C57.1875 41.437 56.9873 43.2145 56.5304 44.5245C55.3959 47.7712 55.9299 48.7164 59.4154 48.7216H68.9532C69.5845 48.7256 70.1889 48.9788 70.6348 49.426C71.0808 49.8733 71.3324 50.4786 71.3351 51.1104Z" fill="#1F1E24"/>
<path d="M44.1699 74.4394C46.8547 74.4394 49.0312 71.9944 49.0312 68.9785C49.0312 65.9625 46.8547 63.5176 44.1699 63.5176C41.4851 63.5176 39.3086 65.9625 39.3086 68.9785C39.3086 71.9944 41.4851 74.4394 44.1699 74.4394Z" fill="white"/>
<path d="M51.5566 74.2704C54.2415 74.2704 56.418 71.8255 56.418 68.8095C56.418 65.7936 54.2415 63.3486 51.5566 63.3486C48.8718 63.3486 46.6953 65.7936 46.6953 68.8095C46.6953 71.8255 48.8718 74.2704 51.5566 74.2704Z" fill="white"/>
<path d="M43.0202 71.7391C44.4746 71.7391 45.6536 70.389 45.6536 68.7236C45.6536 67.0581 44.4746 65.708 43.0202 65.708C41.5657 65.708 40.3867 67.0581 40.3867 68.7236C40.3867 70.389 41.5657 71.7391 43.0202 71.7391Z" fill="#231815"/>
<path d="M50.6256 71.7118C52.08 71.7118 53.259 70.3617 53.259 68.6962C53.259 67.0308 52.08 65.6807 50.6256 65.6807C49.1712 65.6807 47.9922 67.0308 47.9922 68.6962C47.9922 70.3617 49.1712 71.7118 50.6256 71.7118Z" fill="#231815"/>
<path d="M44.5599 77.8569C44.2519 77.9904 44.8475 77.7592 44.9091 77.7438C45.0631 77.6925 45.217 77.6462 45.3762 77.6051C45.5353 77.564 45.6944 77.5332 45.8535 77.4973C45.9203 77.4973 46.5723 77.3894 46.1975 77.4356C46.9082 77.3569 47.6235 77.3295 48.3381 77.3534C49.0517 77.3534 49.7652 77.4202 50.4736 77.5024C50.1091 77.4613 50.6687 77.5383 50.7405 77.5486C50.9305 77.5846 51.1153 77.6205 51.3052 77.6668C51.6764 77.7552 52.0402 77.872 52.3935 78.0161C52.8365 78.1346 53.3083 78.0739 53.707 77.847C54.1057 77.6202 54.3992 77.2454 54.5239 76.8037C54.6316 76.3608 54.5662 75.8934 54.341 75.4971C54.1158 75.1008 53.7478 74.8056 53.3124 74.6718C51.6608 74.1091 49.9232 73.8413 48.179 73.8806C46.3406 73.8171 44.5103 74.1536 42.8146 74.867C41.9779 75.2266 41.7263 76.516 42.1935 77.2353C42.4341 77.623 42.8141 77.9037 43.2554 78.0193C43.6966 78.135 44.1654 78.0768 44.565 77.8569H44.5599Z" fill="#B87EEE"/>
<path d="M52.5826 76.4845H52.5106C47.562 75.0358 44.1124 76.4845 44.0765 76.4845C44.013 76.509 43.9426 76.5082 43.8796 76.4824C43.8166 76.4566 43.7659 76.4078 43.7378 76.3458C43.7122 76.2831 43.7124 76.2128 43.7384 76.1503C43.7643 76.0878 43.8139 76.038 43.8764 76.0119C44.0201 75.9451 47.521 74.4964 52.6544 76.0119C52.6871 76.0207 52.7177 76.0361 52.7444 76.057C52.771 76.078 52.7932 76.1041 52.8095 76.1339C52.8258 76.1637 52.8359 76.1964 52.8392 76.2302C52.8426 76.2639 52.8391 76.298 52.829 76.3304C52.8083 76.378 52.7736 76.4182 52.7296 76.4457C52.6856 76.4732 52.6344 76.4868 52.5826 76.4845Z" fill="black"/>
<path d="M43.4899 62.8249C44.5133 62.8249 45.343 62.3097 45.343 61.6742C45.343 61.0386 44.5133 60.5234 43.4899 60.5234C42.4664 60.5234 41.6367 61.0386 41.6367 61.6742C41.6367 62.3097 42.4664 62.8249 43.4899 62.8249Z" fill="#B87EEE"/>
<path d="M51.7789 62.4499C52.8024 62.4499 53.6321 61.9347 53.6321 61.2992C53.6321 60.6636 52.8024 60.1484 51.7789 60.1484C50.7555 60.1484 49.9258 60.6636 49.9258 61.2992C49.9258 61.9347 50.7555 62.4499 51.7789 62.4499Z" fill="#B87EEE"/>
<path d="M47.8085 65.2894L39.3281 68.1251C39.4975 65.9829 40.6679 64.1643 42.5108 63.5478C44.3537 62.9314 46.3917 63.6814 47.8085 65.2894Z" fill="#1F1E24"/>
<path d="M56.3071 67.446L47.7344 65.3038C49.0126 63.6136 50.953 62.7351 52.8164 63.1872C54.6798 63.6393 55.9734 65.35 56.3071 67.446Z" fill="#1F1E24"/>
<path d="M46.3008 90.7412H46.5523C47.0969 90.7412 47.6192 90.9577 48.0043 91.3431C48.3893 91.7285 48.6057 92.2511 48.6057 92.7961V107.252H44.1602V92.868C44.1656 92.303 44.3933 91.7628 44.794 91.3647C45.1947 90.9666 45.7361 90.7425 46.3008 90.7412Z" fill="white" stroke="#231815" stroke-width="1.02745" stroke-linecap="round" stroke-linejoin="round"/>
<path d="M28.3774 107.14C28.3774 107.14 27.4739 96.8299 40.1277 101.803C40.1277 101.803 44.1933 103.041 48.6183 107.259L28.3774 107.14Z" fill="white" stroke="#231815" stroke-width="1.02745" stroke-linecap="round" stroke-linejoin="round"/>
<path d="M53.8655 107.137H52.3255V92.8552C52.3255 92.2625 52.5608 91.6941 52.9796 91.275C53.3984 90.8559 53.9663 90.6205 54.5586 90.6205C55.1481 90.6205 55.7135 90.8548 56.1303 91.272C56.5472 91.6891 56.7812 92.2549 56.7812 92.8449V104.203C56.7812 104.981 56.4725 105.727 55.9228 106.278C55.3731 106.828 54.6275 107.137 53.8501 107.137H53.8655Z" fill="white" stroke="#231815" stroke-width="1.02745" stroke-linecap="round" stroke-linejoin="round"/>
<path d="M70.6764 98.6331C70.6764 98.6331 67.083 88.9288 57.7813 98.8437C57.7813 98.8437 54.6346 101.705 52.4375 107.413L70.6764 98.6331Z" fill="white" stroke="#231815" stroke-width="1.02745" stroke-linecap="round" stroke-linejoin="round"/>
<path d="M62.3908 104.89C67.4329 102.566 71.1635 99.9069 70.7235 98.9509C70.2835 97.9948 65.8394 99.1037 60.7974 101.428C55.7554 103.752 52.0247 106.411 52.4647 107.367C52.9047 108.323 57.3488 107.214 62.3908 104.89Z" fill="#231815" stroke="#231815" stroke-width="1.02745" stroke-linecap="round" stroke-linejoin="round"/>
<path d="M154.643 64.7099C153.772 66.0853 153.348 67.6967 153.429 69.323C153.509 70.9493 154.091 72.5106 155.095 73.7926C156.835 75.9965 158.847 76.464 161.044 75.9554C161.398 75.8798 161.764 75.8849 162.116 75.9703C162.468 76.0557 162.796 76.2191 163.076 76.4485C163.356 76.6779 163.581 76.9674 163.734 77.2955C163.887 77.6237 163.964 77.9821 163.96 78.3442V90.9305C163.96 91.5654 163.708 92.1743 163.259 92.6232C162.811 93.0722 162.202 93.3244 161.568 93.3244C151.523 93.3244 141.481 93.3244 131.44 93.3244C128.592 93.3149 125.864 92.1783 123.851 90.1628C121.838 88.1474 120.704 85.4167 120.696 82.567V75.9246C120.23 75.5659 119.684 75.3269 119.105 75.2283C118.526 75.1298 117.932 75.1749 117.374 75.3595C116.475 75.6624 115.502 75.667 114.599 75.3727C113.697 75.0785 112.913 74.5009 112.364 73.7258C111.502 72.5819 111.019 71.1964 110.983 69.7638C110.947 68.3311 111.36 66.9232 112.164 65.7374C113.75 63.6054 115.598 63.1225 118.262 64.1551C119.029 64.5134 119.843 64.759 120.68 64.8846C120.688 64.8834 120.694 64.8796 120.699 64.8739C120.704 64.8683 120.706 64.8611 120.706 64.8538C120.706 60.5522 120.706 56.2506 120.706 51.949V51.8257C120.717 51.1966 120.974 50.5969 121.422 50.1558C121.871 49.7148 122.474 49.4676 123.103 49.4677H137.733C141.414 49.4677 142.03 48.5687 140.624 45.2038C139.417 42.3167 139.884 40.6162 142.23 39.3371C144.576 38.0579 148.354 38.6949 149.361 40.9861C149.874 42.178 149.674 43.9555 149.217 45.2706C148.082 48.5122 148.616 49.4574 152.102 49.4626H161.64C162.275 49.4639 162.884 49.7171 163.333 50.1668C163.783 50.6164 164.036 51.2258 164.037 51.8617V59.5675C164.037 59.9299 163.956 60.2876 163.799 60.6144C163.643 60.9411 163.415 61.2285 163.133 61.4553C162.85 61.6821 162.521 61.8426 162.168 61.9249C161.816 62.0072 161.449 62.0091 161.095 61.9307C158.611 61.381 156.388 61.9718 154.643 64.7099Z" fill="#1F1E24"/>
<path d="M136.014 75.3173C138.698 75.3173 140.875 72.8724 140.875 69.8564C140.875 66.8404 138.698 64.3955 136.014 64.3955C133.329 64.3955 131.152 66.8404 131.152 69.8564C131.152 72.8724 133.329 75.3173 136.014 75.3173Z" fill="white"/>
<path d="M143.4 75.1484C146.085 75.1484 148.262 72.7034 148.262 69.6875C148.262 66.6715 146.085 64.2266 143.4 64.2266C140.716 64.2266 138.539 66.6715 138.539 69.6875C138.539 72.7034 140.716 75.1484 143.4 75.1484Z" fill="white"/>
<path d="M136.669 73.0253C138.123 73.0253 139.302 71.6752 139.302 70.0097C139.302 68.3443 138.123 66.9941 136.669 66.9941C135.214 66.9941 134.035 68.3443 134.035 70.0097C134.035 71.6752 135.214 73.0253 136.669 73.0253Z" fill="#231815"/>
<path d="M143.422 72.8944C144.877 72.8944 146.056 71.5443 146.056 69.8788C146.056 68.2134 144.877 66.8633 143.422 66.8633C141.968 66.8633 140.789 68.2134 140.789 69.8788C140.789 71.5443 141.968 72.8944 143.422 72.8944Z" fill="#231815"/>
<path d="M134.984 62.7247C135.948 62.3796 136.556 61.6148 136.342 61.0164C136.128 60.418 135.173 60.2127 134.21 60.5578C133.246 60.9029 132.638 61.6677 132.852 62.2661C133.066 62.8645 134.021 63.0698 134.984 62.7247Z" fill="#B87EEE"/>
<path d="M144.088 63.2624C145.111 63.2624 145.941 62.7472 145.941 62.1117C145.941 61.4761 145.111 60.9609 144.088 60.9609C143.064 60.9609 142.234 61.4761 142.234 62.1117C142.234 62.7472 143.064 63.2624 144.088 63.2624Z" fill="#B87EEE"/>
<path d="M140.093 80.0728C141.979 80.0728 143.507 78.5433 143.507 76.6565C143.507 74.7698 141.979 73.2402 140.093 73.2402C138.208 73.2402 136.68 74.7698 136.68 76.6565C136.68 78.5433 138.208 80.0728 140.093 80.0728Z" fill="#B87EEE"/>
<path d="M140.096 78.5295C141.131 78.5295 141.97 77.69 141.97 76.6544C141.97 75.6188 141.131 74.7793 140.096 74.7793C139.062 74.7793 138.223 75.6188 138.223 76.6544C138.223 77.69 139.062 78.5295 140.096 78.5295Z" fill="#231815"/>
<path d="M147.478 107.824L145.967 108.12L143.22 94.0584C143.109 93.4888 143.228 92.8982 143.552 92.4167C143.876 91.9352 144.378 91.6021 144.947 91.4908C145.537 91.3752 146.15 91.4992 146.649 91.8355C147.148 92.1717 147.494 92.6926 147.609 93.2837L149.776 104.376C149.925 105.139 149.765 105.931 149.331 106.576C148.896 107.222 148.224 107.668 147.461 107.817L147.478 107.824Z" fill="white" stroke="#231815" stroke-width="1.02745" stroke-miterlimit="10"/>
<path d="M162.367 96.3066C162.367 96.3066 156.977 87.4757 149.75 98.9934C149.75 98.9934 147.183 102.405 146.156 108.431L162.367 96.3066Z" fill="white" stroke="#231815" stroke-width="1.02745" stroke-linecap="round" stroke-linejoin="round"/>
<path d="M155.819 104.276C160.316 101.054 163.466 97.7507 162.856 96.8981C162.246 96.0455 158.107 97.9663 153.61 101.188C149.114 104.41 145.963 107.714 146.573 108.566C147.183 109.419 151.323 107.498 155.819 104.276Z" fill="#231815" stroke="#231815" stroke-width="1.02359" stroke-linecap="round" stroke-linejoin="round"/>
<path d="M135.782 107.662L134.254 107.852L132.482 93.5306C132.448 93.2581 132.468 92.9816 132.541 92.717C132.614 92.4523 132.739 92.2046 132.907 91.9881C133.076 91.7715 133.286 91.5904 133.525 91.4549C133.763 91.3194 134.026 91.2324 134.298 91.1986L134.711 91.1475C135.229 91.0833 135.75 91.2275 136.162 91.5484C136.573 91.8692 136.84 92.3404 136.904 92.8583L138.331 104.391C138.427 105.163 138.212 105.941 137.734 106.555C137.256 107.168 136.554 107.567 135.782 107.662Z" fill="white" stroke="#231815" stroke-width="1.02745" stroke-miterlimit="10"/>
<path d="M151.421 97.1425C151.421 97.1425 146.662 87.9571 138.644 98.9406C138.644 98.9406 135.877 102.167 134.398 108.105L151.421 97.1425Z" fill="white" stroke="#231815" stroke-width="1.02745" stroke-linecap="round" stroke-linejoin="round"/>
<path d="M143.999 104.351C148.718 101.425 152.093 98.3269 151.539 97.4322C150.985 96.5374 146.711 98.1846 141.993 101.111C137.274 104.038 133.898 107.135 134.453 108.03C135.007 108.925 139.281 107.278 143.999 104.351Z" fill="#231815" stroke="#231815" stroke-width="1.02745" stroke-linecap="round" stroke-linejoin="round"/>
<path d="M117.178 51.453C117.178 54.6998 117.178 56.2512 117.178 59.0767C117.18 59.8194 117.004 60.5517 116.663 61.2116C116.323 61.8716 115.828 62.4397 115.222 62.868C114.878 63.1052 114.489 63.2675 114.078 63.3445C113.668 63.4215 113.246 63.4114 112.84 63.3149C110.895 62.8526 106.526 64.6147 106.526 69.8084C106.526 75.0022 110.078 76.8156 111.726 76.5845C112.866 76.4252 114.18 75.6341 115.32 75.8087C115.837 75.8896 116.309 76.1531 116.65 76.5516C116.991 76.9501 117.178 77.4573 117.178 77.9818V83.7869C117.178 89.6228 114.514 92.2993 108.759 92.2993H75.8746C75.5465 92.2993 75.2217 92.2346 74.9187 92.1088C74.6157 91.983 74.3405 91.7986 74.1087 91.5662C73.877 91.3338 73.6933 91.058 73.5682 90.7545C73.4431 90.451 73.3791 90.1258 73.3798 89.7975C73.3798 84.7784 73.3798 79.9648 73.3798 75.1512C73.3798 71.5551 72.312 70.8153 69.0677 72.2435C66.258 73.4764 64.2816 72.8634 63.1386 70.4044C61.9015 67.7638 62.9077 64.0701 65.382 63.2893C66.5267 62.9297 68.0668 63.2893 69.2782 63.7465C72.3583 64.8818 73.385 64.2602 73.385 60.957C73.385 57.8386 73.385 54.7255 73.385 51.5095C73.385 50.8469 73.6476 50.2113 74.1154 49.7423C74.5831 49.2733 75.2176 49.0091 75.8797 49.0077H83.3488C83.7154 49.0065 84.0777 49.0864 84.4097 49.2418C84.7418 49.3972 85.0354 49.6243 85.2695 49.9066C85.5035 50.1889 85.6722 50.5196 85.7635 50.8749C85.8548 51.2302 85.8664 51.6013 85.7975 51.9616C85.2841 54.597 86.1209 56.9242 89.1599 58.6144C90.518 59.3567 92.0643 59.6824 93.6062 59.5508C95.1481 59.4193 96.6172 58.8363 97.8301 57.8746C99.8834 56.1228 100.464 54.1347 99.9657 51.9668C99.8889 51.6039 99.8944 51.2283 99.9818 50.8678C100.069 50.5073 100.236 50.1711 100.471 49.8837C100.705 49.5964 101.001 49.3653 101.336 49.2074C101.672 49.0496 102.038 48.9691 102.409 48.9717H114.729C115.382 48.9772 116.007 49.2413 116.466 49.7064C116.924 50.1714 117.181 50.7995 117.178 51.453Z" fill="#1F1E24"/>
<path d="M89.2519 77.6591C91.9368 77.6591 94.1133 75.2142 94.1133 72.1982C94.1133 69.1822 91.9368 66.7373 89.2519 66.7373C86.5671 66.7373 84.3906 69.1822 84.3906 72.1982C84.3906 75.2142 86.5671 77.6591 89.2519 77.6591Z" fill="white"/>
<path d="M96.6387 77.4901C99.3235 77.4901 101.5 75.0452 101.5 72.0293C101.5 69.0133 99.3235 66.5684 96.6387 66.5684C93.9538 66.5684 91.7773 69.0133 91.7773 72.0293C91.7773 75.0452 93.9538 77.4901 96.6387 77.4901Z" fill="white"/>
<path d="M89.9069 75.3632C91.3613 75.3632 92.5403 74.013 92.5403 72.3476C92.5403 70.6821 91.3613 69.332 89.9069 69.332C88.4525 69.332 87.2734 70.6821 87.2734 72.3476C87.2734 74.013 88.4525 75.3632 89.9069 75.3632Z" fill="#231815"/>
<path d="M96.6569 75.2343C98.1113 75.2343 99.2903 73.8841 99.2903 72.2187C99.2903 70.5532 98.1113 69.2031 96.6569 69.2031C95.2025 69.2031 94.0234 70.5532 94.0234 72.2187C94.0234 73.8841 95.2025 75.2343 96.6569 75.2343Z" fill="#231815"/>
<path d="M97.0081 77.6245C97.3161 77.491 96.7154 77.7221 96.6589 77.7376C96.4998 77.7889 96.3459 77.8352 96.1867 77.8763L95.7093 77.9841C95.6477 77.9841 94.9906 78.092 95.3653 78.0458C94.6547 78.1246 93.9393 78.1521 93.2247 78.128C92.5112 78.128 91.8028 78.0612 91.0944 77.979C91.4538 78.0201 90.8942 77.943 90.8224 77.9328C90.6324 77.8968 90.4476 77.8608 90.2628 77.8146C89.8899 77.7262 89.5245 77.6094 89.1694 77.4653C88.7264 77.3467 88.2544 77.4075 87.8557 77.6343C87.4571 77.8612 87.1637 78.236 87.039 78.6777C86.9312 79.1206 86.9966 79.588 87.2218 79.9843C87.447 80.3806 87.815 80.6758 88.2505 80.8096C89.9021 81.3723 91.6397 81.6401 93.3839 81.6008C95.2223 81.6648 97.0527 81.3283 98.7483 80.6144C99.585 80.2548 99.8365 78.9653 99.3694 78.2461C99.1297 77.8587 98.7505 77.5782 98.3101 77.4625C97.8697 77.3469 97.4019 77.4049 97.003 77.6245H97.0081Z" fill="#B87EEE"/>
<path d="M93.4967 80.1901C91.9426 80.1836 90.3973 79.9553 88.9075 79.512C88.8752 79.5025 88.845 79.4868 88.8187 79.4657C88.7924 79.4445 88.7705 79.4185 88.7543 79.3889C88.738 79.3593 88.7278 79.3268 88.7242 79.2933C88.7205 79.2598 88.7235 79.2258 88.7329 79.1934C88.7532 79.1288 88.7976 79.0745 88.8569 79.042C88.9162 79.0094 88.986 79.0011 89.0513 79.0188C93.9999 80.4675 97.4546 79.0188 97.4854 79.0188C97.5489 78.9943 97.6193 78.9951 97.6823 79.0209C97.7453 79.0466 97.796 79.0955 97.8242 79.1575C97.8375 79.1884 97.8446 79.2218 97.8448 79.2555C97.8451 79.2892 97.8385 79.3227 97.8255 79.3538C97.8126 79.385 97.7936 79.4132 97.7695 79.4368C97.7455 79.4605 97.7169 79.479 97.6855 79.4914C96.345 79.9835 94.9243 80.2204 93.4967 80.1901Z" fill="black"/>
<path d="M87.6305 65.8425C88.654 65.8425 89.4837 65.3273 89.4837 64.6918C89.4837 64.0562 88.654 63.541 87.6305 63.541C86.607 63.541 85.7773 64.0562 85.7773 64.6918C85.7773 65.3273 86.607 65.8425 87.6305 65.8425Z" fill="#B87EEE"/>
<path d="M97.3258 65.6023C98.3493 65.6023 99.179 65.0871 99.179 64.4515C99.179 63.816 98.3493 63.3008 97.3258 63.3008C96.3023 63.3008 95.4727 63.816 95.4727 64.4515C95.4727 65.0871 96.3023 65.6023 97.3258 65.6023Z" fill="#B87EEE"/>
<path d="M94.5625 91.1508C94.6683 90.9525 94.8132 90.7777 94.9885 90.6371C96.0665 89.7792 100.635 86.3424 102.74 88.3819C104.845 90.4214 105.219 100.984 105.307 104.081C105.315 104.341 105.259 104.6 105.144 104.833C105.03 105.067 104.86 105.269 104.65 105.422L103.274 106.424C103.037 106.603 102.755 106.712 102.46 106.74C102.165 106.768 101.868 106.714 101.602 106.583C101.336 106.452 101.111 106.25 100.953 105.998C100.795 105.747 100.71 105.457 100.707 105.16C100.63 100.686 100.425 92.9232 99.9577 92.8718C98.7225 92.9615 97.4946 93.1331 96.2821 93.3855C95.9992 93.4421 95.7063 93.4207 95.4347 93.3235C95.163 93.2264 94.9229 93.0571 94.74 92.8339C94.557 92.6107 94.4381 92.342 94.396 92.0563C94.3538 91.7707 94.3901 91.4791 94.5009 91.2125C94.5231 91.1937 94.5438 91.1731 94.5625 91.1508Z" fill="white" stroke="#231815" stroke-width="1.02745" stroke-miterlimit="10"/>
<path d="M119.861 97.7524C119.861 97.7524 116.37 87.9917 106.956 97.8244C106.956 97.8244 103.778 100.65 101.52 106.337L119.861 97.7524Z" fill="white" stroke="#231815" stroke-width="1.02745" stroke-linecap="round" stroke-linejoin="round"/>
<path d="M111.51 103.734C116.51 101.32 120.196 98.6027 119.744 97.6649C119.291 96.7271 114.872 97.9241 109.873 100.338C104.873 102.753 101.187 105.47 101.639 106.408C102.091 107.346 106.511 106.149 111.51 103.734Z" fill="#231815" stroke="#231815" stroke-width="1.02745" stroke-linecap="round" stroke-linejoin="round"/>
<path d="M87.9691 89.0336C88.1721 88.9332 88.3947 88.8788 88.6211 88.8743C89.9968 88.8332 95.7206 88.8743 96.1723 91.7358C96.6086 94.5356 90.5821 103.3 88.7905 105.827C88.6395 106.04 88.439 106.212 88.2064 106.329C87.9738 106.446 87.7162 106.505 87.4558 106.5H85.7618C85.4639 106.5 85.172 106.417 84.9187 106.26C84.6654 106.103 84.4609 105.879 84.3281 105.612C84.1954 105.345 84.1395 105.046 84.167 104.75C84.1944 104.453 84.3041 104.17 84.4836 103.932C87.1118 100.336 91.6138 93.9859 91.2699 93.6571C90.2225 92.9938 89.1338 92.3984 88.0103 91.8745C87.7514 91.7479 87.5315 91.5536 87.3741 91.3122C87.2166 91.0708 87.1274 90.7912 87.1158 90.5032C87.1042 90.2151 87.1707 89.9293 87.3083 89.676C87.4459 89.4227 87.6495 89.2114 87.8973 89.0644L87.9691 89.0336Z" fill="white" stroke="#231815" stroke-width="1.02745" stroke-miterlimit="10"/>
<path d="M104.216 109.531C104.216 109.531 107.296 99.6471 93.8671 101.825C93.8671 101.825 89.6269 102.169 84.4062 105.355L104.216 109.531Z" fill="white" stroke="#231815" stroke-width="1.02745" stroke-linecap="round" stroke-linejoin="round"/>
<path d="M104.058 109.484C104.26 108.463 100.01 106.759 94.5646 105.679C89.1194 104.6 84.5412 104.552 84.3389 105.573C84.1366 106.595 88.3869 108.298 93.8321 109.378C99.2773 110.458 103.855 110.506 104.058 109.484Z" fill="#231815" stroke="#231815" stroke-width="1.02745" stroke-linecap="round" stroke-linejoin="round"/>
</g>
<defs>
<clipPath id="clip0_13841_42477">
<rect width="241.434" height="121.785" fill="white" transform="translate(0 0.505859)"/>
</clipPath>
</defs>
</svg>
