<svg width="242" height="123" viewBox="0 0 242 123" fill="none" xmlns="http://www.w3.org/2000/svg">
<g clip-path="url(#clip0_13676_38875)">
<path d="M104.395 48.1852V42.1335C104.396 41.8223 104.47 41.5157 104.61 41.2376C104.749 40.9595 104.951 40.7174 105.199 40.53C105.448 40.3427 105.736 40.2151 106.041 40.1573C106.347 40.0995 106.662 40.113 106.961 40.1968C109.559 40.8852 112.012 40.582 113.83 37.8593C115.344 35.5886 115.58 28.9975 113.799 26.6601C112.018 24.3226 109.785 23.5778 107.346 24.1685C106.998 24.254 106.636 24.2595 106.286 24.1844C105.936 24.1093 105.607 23.9557 105.325 23.7351C105.043 23.5145 104.814 23.2327 104.656 22.9109C104.499 22.5891 104.416 22.2357 104.415 21.8773V10.8065C104.412 10.2433 104.632 9.70167 105.026 9.29955C105.42 8.89742 105.957 8.6673 106.52 8.65918C117.522 8.65918 128.523 8.65918 139.522 8.65918C144.897 8.65918 147.669 11.3922 147.674 16.7195C147.674 27.2646 147.674 37.8097 147.674 48.3547C147.674 48.9883 147.423 49.5959 146.975 50.0439C146.527 50.4918 145.92 50.7435 145.287 50.7435H142.089C138.085 50.7435 134.086 50.7435 130.087 50.7435C127.12 50.7435 126.34 51.9611 127.613 54.6735C128.48 56.5332 129.04 58.2696 127.361 59.9752C125.821 61.5163 122.967 61.9479 120.909 60.9666C118.629 59.8827 117.875 58.0025 118.794 55.665C118.989 55.1513 119.235 54.6889 119.425 54.1855C120.257 51.9867 119.466 50.7949 117.089 50.7435C115.036 50.7024 112.937 50.7435 110.858 50.7435H106.961C106.282 50.7435 105.631 50.4743 105.15 49.9948C104.669 49.5153 104.397 48.8646 104.395 48.1852Z" fill="#1F1E24"/>
<path d="M121.518 27.9032C124.202 27.9032 126.379 25.4583 126.379 22.4423C126.379 19.4264 124.202 16.9814 121.518 16.9814C118.833 16.9814 116.656 19.4264 116.656 22.4423C116.656 25.4583 118.833 27.9032 121.518 27.9032Z" fill="white"/>
<path d="M122.176 25.6093C123.631 25.6093 124.81 24.2591 124.81 22.5937C124.81 20.9282 123.631 19.5781 122.176 19.5781C120.722 19.5781 119.543 20.9282 119.543 22.5937C119.543 24.2591 120.722 25.6093 122.176 25.6093Z" fill="#231815"/>
<path d="M126.31 21.5074L117.07 20.1922C117.401 19.2748 118 18.4781 118.789 17.9055C119.578 17.333 120.521 17.011 121.495 16.9814C123.898 17.002 125.915 18.9336 126.31 21.5074Z" fill="#B87EEE"/>
<path d="M131.096 27.9032C133.781 27.9032 135.957 25.4583 135.957 22.4423C135.957 19.4264 133.781 16.9814 131.096 16.9814C128.411 16.9814 126.234 19.4264 126.234 22.4423C126.234 25.4583 128.411 27.9032 131.096 27.9032Z" fill="white"/>
<path d="M130.438 25.6093C131.893 25.6093 133.072 24.2591 133.072 22.5937C133.072 20.9282 131.893 19.5781 130.438 19.5781C128.984 19.5781 127.805 20.9282 127.805 22.5937C127.805 24.2591 128.984 25.6093 130.438 25.6093Z" fill="#231815"/>
<path d="M126.305 21.5083L135.545 20.1932C135.207 19.2756 134.602 18.4807 133.808 17.9118C133.013 17.3429 132.066 17.0262 131.089 17.0029C128.697 17.0029 126.705 18.9345 126.305 21.5083Z" fill="#B87EEE"/>
<path d="M124.732 14.8434C124.923 14.2374 124.287 13.4961 123.311 13.1878C122.335 12.8795 121.389 13.1208 121.198 13.7269C121.007 14.3329 121.643 15.0742 122.619 15.3825C123.595 15.6908 124.541 15.4495 124.732 14.8434Z" fill="#B87EEE"/>
<path d="M129.725 16.5114C130.758 15.9142 131.339 14.9838 131.021 14.4334C130.704 13.883 129.608 13.921 128.575 14.5182C127.541 15.1155 126.961 16.0458 127.278 16.5962C127.596 17.1466 128.691 17.1086 129.725 16.5114Z" fill="#B87EEE"/>
<path d="M130.774 26.4339C131.046 26.2335 130.517 26.5931 130.461 26.624C130.322 26.7113 130.178 26.7884 130.034 26.8654C129.891 26.9425 129.747 27.0144 129.598 27.0812C129.537 27.0812 128.926 27.3535 129.275 27.225C128.604 27.4631 127.918 27.6536 127.221 27.7953C126.523 27.9391 125.82 28.0573 125.112 28.1395C125.476 28.0984 124.911 28.1395 124.839 28.1395C124.644 28.1395 124.454 28.1395 124.264 28.1395C123.883 28.1385 123.502 28.1093 123.125 28.0521C122.666 28.0368 122.219 28.2038 121.883 28.5165C121.546 28.8293 121.347 29.2625 121.328 29.7217C121.325 30.1779 121.495 30.6181 121.805 30.9524C122.116 31.2867 122.542 31.4896 122.997 31.5198C124.736 31.6866 126.491 31.5458 128.181 31.1037C129.984 30.743 131.688 29.9964 133.176 28.9152C133.905 28.3706 133.854 27.0555 133.232 26.4647C132.91 26.143 132.476 25.9573 132.02 25.9459C131.565 25.9344 131.122 26.098 130.784 26.4031L130.774 26.4339Z" fill="#B87EEE"/>
<path d="M124.248 30.1484C123.95 30.1484 123.642 30.1484 123.324 30.1227C123.29 30.1214 123.257 30.1135 123.227 30.0992C123.197 30.085 123.17 30.0649 123.147 30.04C123.125 30.0151 123.107 29.986 123.096 29.9543C123.085 29.9227 123.08 29.8891 123.083 29.8556C123.084 29.8219 123.092 29.7887 123.106 29.7581C123.12 29.7274 123.14 29.6998 123.165 29.6769C123.19 29.654 123.219 29.6362 123.25 29.6246C123.282 29.6129 123.316 29.6076 123.349 29.609C128.483 29.8813 131.532 27.7031 131.563 27.6825C131.59 27.6619 131.621 27.6469 131.654 27.6386C131.687 27.6302 131.721 27.6286 131.755 27.6339C131.788 27.6392 131.82 27.6512 131.849 27.6693C131.878 27.6874 131.903 27.7111 131.922 27.7391C131.961 27.7938 131.977 27.8616 131.966 27.9278C131.956 27.994 131.92 28.0535 131.866 28.0935C131.748 28.186 129.032 30.1484 124.248 30.1484Z" fill="black"/>
<path d="M131.714 28.2707C130.251 28.268 128.849 27.6853 127.815 26.6502C126.78 25.6151 126.198 24.212 126.195 22.7481C126.198 21.2843 126.78 19.8812 127.815 18.8461C128.849 17.811 130.251 17.2283 131.714 17.2256C132.439 17.2242 133.158 17.3661 133.829 17.6429C134.5 17.9198 135.11 18.3263 135.624 18.8392C136.138 19.3521 136.546 19.9613 136.825 20.632C137.103 21.3027 137.247 22.0218 137.248 22.7481C137.245 24.2146 136.66 25.6201 135.623 26.6556C134.585 27.6911 133.179 28.272 131.714 28.2707ZM131.714 18.253C130.523 18.2544 129.381 18.7284 128.539 19.5711C127.697 20.4138 127.223 21.5564 127.222 22.7481C127.225 23.9395 127.699 25.0812 128.541 25.9236C129.382 26.7661 130.523 27.2405 131.714 27.2432C132.905 27.2419 134.046 26.7678 134.888 25.9251C135.73 25.0825 136.204 23.9399 136.205 22.7481C136.205 21.556 135.732 20.4126 134.89 19.5696C134.048 18.7266 132.905 18.253 131.714 18.253Z" fill="#FFA300"/>
<path d="M136.779 27.2753C136.215 27.2463 135.675 27.0375 135.239 26.6794C135.134 26.5935 135.068 26.4698 135.054 26.3352C135.046 26.2675 135.053 26.199 135.072 26.1337C135.091 26.0685 135.124 26.0077 135.167 25.955C135.591 25.3381 135.978 24.6966 136.327 24.0337C136.381 23.934 136.467 23.8552 136.571 23.8097C136.675 23.7641 136.792 23.7544 136.902 23.782C137.242 23.8821 137.552 24.0642 137.805 24.3124C138.059 24.5605 138.247 24.8669 138.354 25.205C138.431 25.4739 138.435 25.7583 138.365 26.0291C138.296 26.2999 138.156 26.5474 137.959 26.7461C137.813 26.9148 137.631 27.0494 137.427 27.1408C137.223 27.2322 137.002 27.2781 136.779 27.2753ZM136.281 26.1297C136.42 26.22 136.585 26.2623 136.751 26.2503C136.917 26.2382 137.074 26.1725 137.199 26.0629C137.277 25.9924 137.332 25.9013 137.36 25.8003C137.387 25.6992 137.385 25.5925 137.353 25.4927C137.276 25.29 137.145 25.1124 136.974 24.979C136.784 25.3026 136.522 25.7649 136.281 26.14V26.1297Z" fill="#FFA300"/>
<path d="M137.076 37.735C136.94 37.735 136.809 37.6809 136.713 37.5846C136.617 37.4882 136.562 37.3576 136.562 37.2213V26.4639C136.562 26.3277 136.617 26.197 136.713 26.1007C136.809 26.0043 136.94 25.9502 137.076 25.9502C137.212 25.9502 137.343 26.0043 137.439 26.1007C137.535 26.197 137.589 26.3277 137.589 26.4639V37.2213C137.589 37.3576 137.535 37.4882 137.439 37.5846C137.343 37.6809 137.212 37.735 137.076 37.735Z" fill="#FFA300"/>
<path d="M127.515 36.638L123.824 34.0488V38.698L127.515 36.638Z" fill="#B87EEE"/>
<path d="M127.41 36.638L131.101 34.0488V38.698L127.41 36.638Z" fill="#B87EEE"/>
<path d="M99.1985 7.98435C100.225 7.98435 102.243 8.91933 102.243 11.6832C102.243 16.5225 102.145 18.8034 102.099 23.6221C102.099 23.7557 102.099 23.8944 102.099 24.028C102.063 26.5966 104.049 28.0915 106.539 27.4802C107.446 27.1995 108.419 27.2188 109.315 27.5352C110.21 27.8517 110.979 28.4485 111.508 29.2371C112.34 30.4027 112.787 31.7991 112.787 33.2313C112.787 34.6635 112.34 36.06 111.508 37.2256C109.866 39.3216 108.007 39.7531 105.348 38.6537C102.16 37.3232 101.96 37.4516 101.924 40.8319C101.878 44.5359 101.837 48.2347 101.791 52.1339C101.787 52.4382 101.662 52.7285 101.445 52.9412C101.228 53.154 100.935 53.2719 100.631 53.2692C96.1594 53.2692 91.868 53.2384 87.5764 53.1099C87.2068 53.1099 86.7756 52.1749 86.5498 51.6047C86.4522 51.3427 86.8013 50.906 86.945 50.5773C88.3567 47.0993 87.633 44.7516 84.671 43.1796C81.709 41.6076 77.4842 42.4913 76.0571 45.2345C75.4257 46.4367 75.5438 48.1371 75.6362 49.5909C75.7109 50.2274 75.895 50.8461 76.1803 51.4198C76.2514 51.5849 76.2826 51.7645 76.2715 51.9439C76.2603 52.1234 76.207 52.2977 76.116 52.4527C76.0251 52.6078 75.899 52.7393 75.7478 52.8365C75.5967 52.9337 75.4247 52.9939 75.246 53.0123C74.9991 53.0426 74.7505 53.058 74.5017 53.0586C69.1168 53.0586 63.7216 52.925 58.3521 52.9764C56.6221 52.9764 56.155 52.4267 56.1807 50.7057C56.3603 39.1623 56.4014 27.6189 56.54 16.0755C56.5965 11.154 59.7894 7.64014 64.4608 7.65041C76.7039 7.66069 99.1934 7.98435 99.1985 7.98435Z" fill="#1F1E24"/>
<path d="M76.3848 28.5526C79.0696 28.5526 81.2461 26.1077 81.2461 23.0918C81.2461 20.0758 79.0696 17.6309 76.3848 17.6309C73.6999 17.6309 71.5234 20.0758 71.5234 23.0918C71.5234 26.1077 73.6999 28.5526 76.3848 28.5526Z" fill="white"/>
<path d="M77.0397 26.2567C78.4941 26.2567 79.6731 24.9066 79.6731 23.2411C79.6731 21.5757 78.4941 20.2256 77.0397 20.2256C75.5853 20.2256 74.4062 21.5757 74.4062 23.2411C74.4062 24.9066 75.5853 26.2567 77.0397 26.2567Z" fill="#231815"/>
<path d="M81.1776 22.1619L71.9375 20.8468C72.2698 19.9288 72.8695 19.1316 73.6592 18.5583C74.449 17.985 75.3924 17.6619 76.3676 17.6309C78.7854 17.6309 80.7823 19.5676 81.1776 22.1619Z" fill="#B87EEE"/>
<path d="M85.9629 28.5526C88.6477 28.5526 90.8242 26.1077 90.8242 23.0918C90.8242 20.0758 88.6477 17.6309 85.9629 17.6309C83.2781 17.6309 81.1016 20.0758 81.1016 23.0918C81.1016 26.1077 83.2781 28.5526 85.9629 28.5526Z" fill="white"/>
<path d="M85.2975 26.2567C86.7519 26.2567 87.9309 24.9066 87.9309 23.2411C87.9309 21.5757 86.7519 20.2256 85.2975 20.2256C83.8431 20.2256 82.6641 21.5757 82.6641 23.2411C82.6641 24.9066 83.8431 26.2567 85.2975 26.2567Z" fill="#231815"/>
<path d="M81.168 22.1619L90.4081 20.8468C90.0773 19.9288 89.4787 19.1314 88.6897 18.558C87.9007 17.9846 86.9577 17.6615 85.983 17.6309C83.5601 17.6309 81.5632 19.5676 81.168 22.1619Z" fill="#B87EEE"/>
<path d="M75.3087 17.1681C76.2723 16.823 76.88 16.0581 76.6661 15.4597C76.4521 14.8613 75.4974 14.656 74.5338 15.0011C73.5702 15.3462 72.9625 16.1111 73.1765 16.7094C73.3905 17.3078 74.345 17.5132 75.3087 17.1681Z" fill="#B87EEE"/>
<path d="M88.5652 15.1511C88.9137 14.6198 88.5028 13.7334 87.6473 13.1712C86.7917 12.6091 85.8156 12.584 85.4671 13.1152C85.1185 13.6465 85.5295 14.5329 86.385 15.0951C87.2405 15.6572 88.2166 15.6823 88.5652 15.1511Z" fill="#B87EEE"/>
<path d="M84.8909 28.9532C85.1989 28.8197 84.6034 29.056 84.5418 29.0765C84.3878 29.1279 84.2337 29.1741 84.0746 29.2152C83.9155 29.2563 83.7615 29.2974 83.6024 29.3283C83.5356 29.3283 82.8837 29.4464 83.2533 29.4002C82.545 29.4875 81.8313 29.5235 81.1178 29.508C80.4042 29.508 79.6907 29.4618 78.9823 29.3848C79.3468 29.4259 78.7821 29.354 78.7102 29.3437C78.5254 29.3129 78.3356 29.2769 78.1508 29.2306C77.7781 29.1482 77.4125 29.0365 77.0573 28.8967C76.6129 28.7823 76.1414 28.8483 75.7453 29.0801C75.3492 29.312 75.0606 29.6911 74.9424 30.1348C74.8374 30.5784 74.9066 31.0454 75.1359 31.4393C75.3652 31.8333 75.737 32.124 76.1744 32.2513C77.8298 32.7924 79.5674 33.0376 81.3078 32.9757C83.1439 33.0231 84.9686 32.6726 86.6567 31.9482C87.4883 31.5732 87.7194 30.2838 87.2471 29.5697C87.0015 29.1859 86.6186 28.9105 86.1768 28.7997C85.7351 28.6889 85.2677 28.7512 84.8703 28.9738L84.8909 28.9532Z" fill="#B87EEE"/>
<path d="M81.2467 31.5602C79.7555 31.5538 78.2722 31.3447 76.8372 30.9386C76.8049 30.9291 76.7746 30.9134 76.7484 30.8923C76.7221 30.8712 76.7001 30.8451 76.6839 30.8155C76.6677 30.7859 76.6575 30.7534 76.6539 30.7199C76.6502 30.6864 76.6532 30.6525 76.6626 30.6201C76.6715 30.5879 76.6866 30.5578 76.7072 30.5315C76.7279 30.5053 76.7536 30.4834 76.7827 30.4671C76.8118 30.4509 76.8439 30.4406 76.8771 30.4368C76.9102 30.4331 76.9438 30.436 76.9758 30.4454C81.9398 31.8273 85.3791 30.3632 85.4099 30.3478C85.4409 30.3342 85.4744 30.3269 85.5082 30.3262C85.542 30.3256 85.5756 30.3316 85.6071 30.3441C85.6386 30.3565 85.6674 30.375 85.6917 30.3986C85.716 30.4221 85.7353 30.4503 85.7487 30.4814C85.7622 30.512 85.7696 30.545 85.7701 30.5785C85.7707 30.612 85.7645 30.6453 85.7521 30.6764C85.7397 30.7075 85.7212 30.7358 85.6977 30.7596C85.6742 30.7835 85.6461 30.8024 85.6152 30.8153C84.2212 31.3452 82.7374 31.5982 81.2467 31.5602Z" fill="black"/>
<path d="M80.9097 38.4678L77.2188 35.8838V40.533L80.9097 38.4678Z" fill="#B87EEE"/>
<path d="M80.8086 38.4678L84.4995 35.8838V40.533L80.8086 38.4678Z" fill="#B87EEE"/>
<path d="M27.326 45.3438H209.248C211.324 45.3437 213.379 45.7529 215.296 46.5479C217.213 47.3429 218.955 48.5081 220.423 49.9769C221.89 51.4458 223.054 53.1895 223.847 55.1086C224.641 57.0276 225.049 59.0844 225.049 61.1613V84.8954H11.9258V60.7504C11.9271 56.6638 13.5503 52.7451 16.4382 49.8559C19.3261 46.9668 23.2425 45.3437 27.326 45.3438Z" fill="#D5D4FF"/>
<path d="M241.434 84.3301H0V97.1681H241.434V84.3301Z" fill="#5955B7"/>
<path d="M8.31609 76.373H8.31096C3.72094 76.373 0 80.0968 0 84.6903V99.8862C0 104.48 3.72094 108.203 8.31096 108.203H8.31609C12.9061 108.203 16.627 104.48 16.627 99.8862V84.6903C16.627 80.0968 12.9061 76.373 8.31609 76.373Z" fill="#D5D4FF"/>
<path d="M233.121 76.373H233.116C228.526 76.373 224.805 80.0968 224.805 84.6903V99.8862C224.805 104.48 228.526 108.203 233.116 108.203H233.121C237.711 108.203 241.432 104.48 241.432 99.8862V84.6903C241.432 80.0968 237.711 76.373 233.121 76.373Z" fill="#D5D4FF"/>
<path d="M241.434 96.2627H0V109.101H241.434V96.2627Z" fill="#D5D4FF"/>
<path d="M71.3351 51.1104V58.8574C71.3342 59.2156 71.2532 59.569 71.098 59.8917C70.9428 60.2145 70.7173 60.4983 70.4382 60.7225C70.159 60.9467 69.8333 61.1054 69.4848 61.1872C69.1364 61.2689 68.774 61.2715 68.4244 61.1948C65.9347 60.6811 63.6966 61.2359 61.9461 63.9843C61.0752 65.3597 60.6511 66.9712 60.732 68.5974C60.8129 70.2237 61.3947 71.785 62.3978 73.067C64.138 75.2658 66.1504 75.7384 68.3475 75.2298C68.7014 75.1543 69.0677 75.1594 69.4194 75.2447C69.7711 75.3301 70.099 75.4935 70.379 75.7229C70.659 75.9523 70.8839 76.2418 71.037 76.5699C71.19 76.8981 71.2673 77.2565 71.2632 77.6186V90.2305C71.2618 90.8591 71.0114 91.4615 70.5668 91.9055C70.1221 92.3495 69.5197 92.5988 68.8916 92.5988C58.8439 92.5988 48.7995 92.5988 38.7585 92.5988C35.9119 92.588 33.1852 91.4508 31.1733 89.4355C29.1613 87.4201 28.0276 84.6902 28.0195 81.8414C28.0195 71.6286 28.0195 61.4191 28.0195 51.2131V51.0898C28.029 50.4598 28.2857 49.8588 28.7343 49.4166C29.1828 48.9745 29.7872 48.7267 30.4168 48.7267H45.0469C48.7276 48.7267 49.3385 47.8226 47.9371 44.4628C46.7308 41.5705 47.1978 39.8752 49.5438 38.5961C51.8898 37.3169 55.668 37.9488 56.6741 40.2451C57.1875 41.437 56.9873 43.2145 56.5304 44.5245C55.3959 47.7712 55.9299 48.7164 59.4154 48.7216H68.9532C69.5845 48.7256 70.1889 48.9788 70.6348 49.426C71.0808 49.8733 71.3324 50.4786 71.3351 51.1104Z" fill="#1F1E24"/>
<path d="M44.1699 74.4394C46.8547 74.4394 49.0312 71.9944 49.0312 68.9785C49.0312 65.9625 46.8547 63.5176 44.1699 63.5176C41.4851 63.5176 39.3086 65.9625 39.3086 68.9785C39.3086 71.9944 41.4851 74.4394 44.1699 74.4394Z" fill="white"/>
<path d="M51.5566 74.2704C54.2415 74.2704 56.418 71.8255 56.418 68.8095C56.418 65.7936 54.2415 63.3486 51.5566 63.3486C48.8718 63.3486 46.6953 65.7936 46.6953 68.8095C46.6953 71.8255 48.8718 74.2704 51.5566 74.2704Z" fill="white"/>
<path d="M43.0202 71.7391C44.4746 71.7391 45.6536 70.389 45.6536 68.7236C45.6536 67.0581 44.4746 65.708 43.0202 65.708C41.5657 65.708 40.3867 67.0581 40.3867 68.7236C40.3867 70.389 41.5657 71.7391 43.0202 71.7391Z" fill="#231815"/>
<path d="M50.6256 71.7118C52.08 71.7118 53.259 70.3617 53.259 68.6962C53.259 67.0308 52.08 65.6807 50.6256 65.6807C49.1712 65.6807 47.9922 67.0308 47.9922 68.6962C47.9922 70.3617 49.1712 71.7118 50.6256 71.7118Z" fill="#231815"/>
<path d="M44.5599 77.8569C44.2519 77.9904 44.8475 77.7592 44.9091 77.7438C45.0631 77.6925 45.217 77.6462 45.3762 77.6051C45.5353 77.564 45.6944 77.5332 45.8535 77.4973C45.9203 77.4973 46.5723 77.3894 46.1975 77.4356C46.9082 77.3569 47.6235 77.3295 48.3381 77.3534C49.0517 77.3534 49.7652 77.4202 50.4736 77.5024C50.1091 77.4613 50.6687 77.5383 50.7405 77.5486C50.9305 77.5846 51.1153 77.6205 51.3052 77.6668C51.6764 77.7552 52.0402 77.872 52.3935 78.0161C52.8365 78.1346 53.3083 78.0739 53.707 77.847C54.1057 77.6202 54.3992 77.2454 54.5239 76.8037C54.6316 76.3608 54.5662 75.8934 54.341 75.4971C54.1158 75.1008 53.7478 74.8056 53.3124 74.6718C51.6608 74.1091 49.9232 73.8413 48.179 73.8806C46.3406 73.8171 44.5103 74.1536 42.8146 74.867C41.9779 75.2266 41.7263 76.516 42.1935 77.2353C42.4341 77.623 42.8141 77.9037 43.2554 78.0193C43.6966 78.135 44.1654 78.0768 44.565 77.8569H44.5599Z" fill="#B87EEE"/>
<path d="M52.5826 76.4845H52.5106C47.562 75.0358 44.1124 76.4845 44.0765 76.4845C44.013 76.509 43.9426 76.5082 43.8796 76.4824C43.8166 76.4566 43.7659 76.4078 43.7378 76.3458C43.7122 76.2831 43.7124 76.2128 43.7384 76.1503C43.7643 76.0878 43.8139 76.038 43.8764 76.0119C44.0201 75.9451 47.521 74.4964 52.6544 76.0119C52.6871 76.0207 52.7177 76.0361 52.7444 76.057C52.771 76.078 52.7932 76.1041 52.8095 76.1339C52.8258 76.1637 52.8359 76.1964 52.8392 76.2302C52.8426 76.2639 52.8391 76.298 52.829 76.3304C52.8083 76.378 52.7736 76.4182 52.7296 76.4457C52.6856 76.4732 52.6344 76.4868 52.5826 76.4845Z" fill="black"/>
<path d="M43.4899 62.8249C44.5133 62.8249 45.343 62.3097 45.343 61.6742C45.343 61.0386 44.5133 60.5234 43.4899 60.5234C42.4664 60.5234 41.6367 61.0386 41.6367 61.6742C41.6367 62.3097 42.4664 62.8249 43.4899 62.8249Z" fill="#B87EEE"/>
<path d="M51.7789 62.4499C52.8024 62.4499 53.6321 61.9347 53.6321 61.2992C53.6321 60.6636 52.8024 60.1484 51.7789 60.1484C50.7555 60.1484 49.9258 60.6636 49.9258 61.2992C49.9258 61.9347 50.7555 62.4499 51.7789 62.4499Z" fill="#B87EEE"/>
<path d="M47.8085 65.2894L39.3281 68.1251C39.4975 65.9829 40.6679 64.1643 42.5108 63.5478C44.3537 62.9314 46.3917 63.6814 47.8085 65.2894Z" fill="#1F1E24"/>
<path d="M56.3071 67.446L47.7344 65.3038C49.0126 63.6136 50.953 62.7351 52.8164 63.1872C54.6798 63.6393 55.9734 65.35 56.3071 67.446Z" fill="#1F1E24"/>
<path d="M46.3008 90.7412H46.5523C47.0969 90.7412 47.6192 90.9577 48.0043 91.3431C48.3893 91.7285 48.6057 92.2511 48.6057 92.7961V107.252H44.1602V92.868C44.1656 92.303 44.3933 91.7628 44.794 91.3647C45.1947 90.9666 45.7361 90.7425 46.3008 90.7412Z" fill="white" stroke="#231815" stroke-width="1.02745" stroke-linecap="round" stroke-linejoin="round"/>
<path d="M28.3774 107.14C28.3774 107.14 27.4739 96.8299 40.1277 101.803C40.1277 101.803 44.1933 103.041 48.6183 107.259L28.3774 107.14Z" fill="white" stroke="#231815" stroke-width="1.02745" stroke-linecap="round" stroke-linejoin="round"/>
<path d="M53.8655 107.137H52.3255V92.8552C52.3255 92.2625 52.5608 91.6941 52.9796 91.275C53.3984 90.8559 53.9663 90.6205 54.5586 90.6205C55.1481 90.6205 55.7135 90.8548 56.1303 91.272C56.5472 91.6891 56.7812 92.2549 56.7812 92.8449V104.203C56.7812 104.981 56.4725 105.727 55.9228 106.278C55.3731 106.828 54.6275 107.137 53.8501 107.137H53.8655Z" fill="white" stroke="#231815" stroke-width="1.02745" stroke-linecap="round" stroke-linejoin="round"/>
<path d="M70.6764 98.6331C70.6764 98.6331 67.083 88.9288 57.7813 98.8437C57.7813 98.8437 54.6346 101.705 52.4375 107.413L70.6764 98.6331Z" fill="white" stroke="#231815" stroke-width="1.02745" stroke-linecap="round" stroke-linejoin="round"/>
<path d="M62.3908 104.89C67.4329 102.566 71.1635 99.9069 70.7235 98.9509C70.2835 97.9948 65.8394 99.1037 60.7974 101.428C55.7554 103.752 52.0247 106.411 52.4647 107.367C52.9047 108.323 57.3488 107.214 62.3908 104.89Z" fill="#231815" stroke="#231815" stroke-width="1.02745" stroke-linecap="round" stroke-linejoin="round"/>
<path d="M154.643 64.7099C153.772 66.0853 153.348 67.6967 153.429 69.323C153.509 70.9493 154.091 72.5106 155.095 73.7926C156.835 75.9965 158.847 76.464 161.044 75.9554C161.398 75.8798 161.764 75.8849 162.116 75.9703C162.468 76.0557 162.796 76.2191 163.076 76.4485C163.356 76.6779 163.581 76.9674 163.734 77.2955C163.887 77.6237 163.964 77.9821 163.96 78.3442V90.9305C163.96 91.5654 163.708 92.1743 163.259 92.6232C162.811 93.0722 162.202 93.3244 161.568 93.3244C151.523 93.3244 141.481 93.3244 131.44 93.3244C128.592 93.3149 125.864 92.1783 123.851 90.1628C121.838 88.1474 120.704 85.4167 120.696 82.567V75.9246C120.23 75.5659 119.684 75.3269 119.105 75.2283C118.526 75.1298 117.932 75.1749 117.374 75.3595C116.475 75.6624 115.502 75.667 114.599 75.3727C113.697 75.0785 112.913 74.5009 112.364 73.7258C111.502 72.5819 111.019 71.1964 110.983 69.7638C110.947 68.3311 111.36 66.9232 112.164 65.7374C113.75 63.6054 115.598 63.1225 118.262 64.1551C119.029 64.5134 119.843 64.759 120.68 64.8846C120.688 64.8834 120.694 64.8796 120.699 64.8739C120.704 64.8683 120.706 64.8611 120.706 64.8538C120.706 60.5522 120.706 56.2506 120.706 51.949V51.8257C120.717 51.1966 120.974 50.5969 121.422 50.1558C121.871 49.7148 122.474 49.4676 123.103 49.4677H137.733C141.414 49.4677 142.03 48.5687 140.624 45.2038C139.417 42.3167 139.884 40.6162 142.23 39.3371C144.576 38.0579 148.354 38.6949 149.361 40.9861C149.874 42.178 149.674 43.9555 149.217 45.2706C148.082 48.5122 148.616 49.4574 152.102 49.4626H161.64C162.275 49.4639 162.884 49.7171 163.333 50.1668C163.783 50.6164 164.036 51.2258 164.037 51.8617V59.5675C164.037 59.9299 163.956 60.2876 163.799 60.6144C163.643 60.9411 163.415 61.2285 163.133 61.4553C162.85 61.6821 162.521 61.8426 162.168 61.9249C161.816 62.0072 161.449 62.0091 161.095 61.9307C158.611 61.381 156.388 61.9718 154.643 64.7099Z" fill="#1F1E24"/>
<path d="M136.014 75.3173C138.698 75.3173 140.875 72.8724 140.875 69.8564C140.875 66.8404 138.698 64.3955 136.014 64.3955C133.329 64.3955 131.152 66.8404 131.152 69.8564C131.152 72.8724 133.329 75.3173 136.014 75.3173Z" fill="white"/>
<path d="M143.4 75.1484C146.085 75.1484 148.262 72.7034 148.262 69.6875C148.262 66.6715 146.085 64.2266 143.4 64.2266C140.716 64.2266 138.539 66.6715 138.539 69.6875C138.539 72.7034 140.716 75.1484 143.4 75.1484Z" fill="white"/>
<path d="M136.669 73.0253C138.123 73.0253 139.302 71.6752 139.302 70.0097C139.302 68.3443 138.123 66.9941 136.669 66.9941C135.214 66.9941 134.035 68.3443 134.035 70.0097C134.035 71.6752 135.214 73.0253 136.669 73.0253Z" fill="#231815"/>
<path d="M143.422 72.8944C144.877 72.8944 146.056 71.5443 146.056 69.8788C146.056 68.2134 144.877 66.8633 143.422 66.8633C141.968 66.8633 140.789 68.2134 140.789 69.8788C140.789 71.5443 141.968 72.8944 143.422 72.8944Z" fill="#231815"/>
<path d="M134.984 62.7247C135.948 62.3796 136.556 61.6148 136.342 61.0164C136.128 60.418 135.173 60.2127 134.21 60.5578C133.246 60.9029 132.638 61.6677 132.852 62.2661C133.066 62.8645 134.021 63.0698 134.984 62.7247Z" fill="#B87EEE"/>
<path d="M144.088 63.2624C145.111 63.2624 145.941 62.7472 145.941 62.1117C145.941 61.4761 145.111 60.9609 144.088 60.9609C143.064 60.9609 142.234 61.4761 142.234 62.1117C142.234 62.7472 143.064 63.2624 144.088 63.2624Z" fill="#B87EEE"/>
<path d="M140.093 80.0728C141.979 80.0728 143.507 78.5433 143.507 76.6565C143.507 74.7698 141.979 73.2402 140.093 73.2402C138.208 73.2402 136.68 74.7698 136.68 76.6565C136.68 78.5433 138.208 80.0728 140.093 80.0728Z" fill="#B87EEE"/>
<path d="M140.096 78.5295C141.131 78.5295 141.97 77.69 141.97 76.6544C141.97 75.6188 141.131 74.7793 140.096 74.7793C139.062 74.7793 138.223 75.6188 138.223 76.6544C138.223 77.69 139.062 78.5295 140.096 78.5295Z" fill="#231815"/>
<path d="M147.478 107.824L145.967 108.12L143.22 94.0584C143.109 93.4888 143.228 92.8982 143.552 92.4167C143.876 91.9352 144.378 91.6021 144.947 91.4908C145.537 91.3752 146.15 91.4992 146.649 91.8355C147.148 92.1717 147.494 92.6926 147.609 93.2837L149.776 104.376C149.925 105.139 149.765 105.931 149.331 106.576C148.896 107.222 148.224 107.668 147.461 107.817L147.478 107.824Z" fill="white" stroke="#231815" stroke-width="1.02745" stroke-miterlimit="10"/>
<path d="M162.367 96.3066C162.367 96.3066 156.977 87.4757 149.75 98.9934C149.75 98.9934 147.183 102.405 146.156 108.431L162.367 96.3066Z" fill="white" stroke="#231815" stroke-width="1.02745" stroke-linecap="round" stroke-linejoin="round"/>
<path d="M155.819 104.276C160.316 101.054 163.466 97.7507 162.856 96.8981C162.246 96.0455 158.107 97.9663 153.61 101.188C149.114 104.41 145.963 107.714 146.573 108.566C147.183 109.419 151.323 107.498 155.819 104.276Z" fill="#231815" stroke="#231815" stroke-width="1.02359" stroke-linecap="round" stroke-linejoin="round"/>
<path d="M135.782 107.662L134.254 107.852L132.482 93.5306C132.448 93.2581 132.468 92.9816 132.541 92.717C132.614 92.4523 132.739 92.2046 132.907 91.9881C133.076 91.7715 133.286 91.5904 133.525 91.4549C133.763 91.3194 134.026 91.2324 134.298 91.1986L134.711 91.1475C135.229 91.0833 135.75 91.2275 136.162 91.5484C136.573 91.8692 136.84 92.3404 136.904 92.8583L138.331 104.391C138.427 105.163 138.212 105.941 137.734 106.555C137.256 107.168 136.554 107.567 135.782 107.662Z" fill="white" stroke="#231815" stroke-width="1.02745" stroke-miterlimit="10"/>
<path d="M151.421 97.1425C151.421 97.1425 146.662 87.9571 138.644 98.9406C138.644 98.9406 135.877 102.167 134.398 108.105L151.421 97.1425Z" fill="white" stroke="#231815" stroke-width="1.02745" stroke-linecap="round" stroke-linejoin="round"/>
<path d="M143.999 104.351C148.718 101.425 152.093 98.3269 151.539 97.4322C150.985 96.5374 146.711 98.1846 141.993 101.111C137.274 104.038 133.898 107.135 134.453 108.03C135.007 108.925 139.281 107.278 143.999 104.351Z" fill="#231815" stroke="#231815" stroke-width="1.02745" stroke-linecap="round" stroke-linejoin="round"/>
<path d="M117.178 51.453C117.178 54.6998 117.178 56.2512 117.178 59.0767C117.18 59.8194 117.004 60.5517 116.663 61.2116C116.323 61.8716 115.828 62.4397 115.222 62.868C114.878 63.1052 114.489 63.2675 114.078 63.3445C113.668 63.4215 113.246 63.4114 112.84 63.3149C110.895 62.8526 106.526 64.6147 106.526 69.8084C106.526 75.0022 110.078 76.8156 111.726 76.5845C112.866 76.4252 114.18 75.6341 115.32 75.8087C115.837 75.8896 116.309 76.1531 116.65 76.5516C116.991 76.9501 117.178 77.4573 117.178 77.9818V83.7869C117.178 89.6228 114.514 92.2993 108.759 92.2993H75.8746C75.5465 92.2993 75.2217 92.2346 74.9187 92.1088C74.6157 91.983 74.3405 91.7986 74.1087 91.5662C73.877 91.3338 73.6933 91.058 73.5682 90.7545C73.4431 90.451 73.3791 90.1258 73.3798 89.7975C73.3798 84.7784 73.3798 79.9648 73.3798 75.1512C73.3798 71.5551 72.312 70.8153 69.0677 72.2435C66.258 73.4764 64.2816 72.8634 63.1386 70.4044C61.9015 67.7638 62.9077 64.0701 65.382 63.2893C66.5267 62.9297 68.0668 63.2893 69.2782 63.7465C72.3583 64.8818 73.385 64.2602 73.385 60.957C73.385 57.8386 73.385 54.7255 73.385 51.5095C73.385 50.8469 73.6476 50.2113 74.1154 49.7423C74.5831 49.2733 75.2176 49.0091 75.8797 49.0077H83.3488C83.7154 49.0065 84.0777 49.0864 84.4097 49.2418C84.7418 49.3972 85.0354 49.6243 85.2695 49.9066C85.5035 50.1889 85.6722 50.5196 85.7635 50.8749C85.8548 51.2302 85.8664 51.6013 85.7975 51.9616C85.2841 54.597 86.1209 56.9242 89.1599 58.6144C90.518 59.3567 92.0643 59.6824 93.6062 59.5508C95.1481 59.4193 96.6172 58.8363 97.8301 57.8746C99.8834 56.1228 100.464 54.1347 99.9657 51.9668C99.8889 51.6039 99.8944 51.2283 99.9818 50.8678C100.069 50.5073 100.236 50.1711 100.471 49.8837C100.705 49.5964 101.001 49.3653 101.336 49.2074C101.672 49.0496 102.038 48.9691 102.409 48.9717H114.729C115.382 48.9772 116.007 49.2413 116.466 49.7064C116.924 50.1714 117.181 50.7995 117.178 51.453Z" fill="#1F1E24"/>
<path d="M89.2519 77.6591C91.9368 77.6591 94.1133 75.2142 94.1133 72.1982C94.1133 69.1822 91.9368 66.7373 89.2519 66.7373C86.5671 66.7373 84.3906 69.1822 84.3906 72.1982C84.3906 75.2142 86.5671 77.6591 89.2519 77.6591Z" fill="white"/>
<path d="M96.6387 77.4901C99.3235 77.4901 101.5 75.0452 101.5 72.0293C101.5 69.0133 99.3235 66.5684 96.6387 66.5684C93.9538 66.5684 91.7773 69.0133 91.7773 72.0293C91.7773 75.0452 93.9538 77.4901 96.6387 77.4901Z" fill="white"/>
<path d="M89.9069 75.3632C91.3613 75.3632 92.5403 74.013 92.5403 72.3476C92.5403 70.6821 91.3613 69.332 89.9069 69.332C88.4525 69.332 87.2734 70.6821 87.2734 72.3476C87.2734 74.013 88.4525 75.3632 89.9069 75.3632Z" fill="#231815"/>
<path d="M96.6569 75.2343C98.1113 75.2343 99.2903 73.8841 99.2903 72.2187C99.2903 70.5532 98.1113 69.2031 96.6569 69.2031C95.2025 69.2031 94.0234 70.5532 94.0234 72.2187C94.0234 73.8841 95.2025 75.2343 96.6569 75.2343Z" fill="#231815"/>
<path d="M97.0081 77.6245C97.3161 77.491 96.7154 77.7221 96.6589 77.7376C96.4998 77.7889 96.3459 77.8352 96.1867 77.8763L95.7093 77.9841C95.6477 77.9841 94.9906 78.092 95.3653 78.0458C94.6547 78.1246 93.9393 78.1521 93.2247 78.128C92.5112 78.128 91.8028 78.0612 91.0944 77.979C91.4538 78.0201 90.8942 77.943 90.8224 77.9328C90.6324 77.8968 90.4476 77.8608 90.2628 77.8146C89.8899 77.7262 89.5245 77.6094 89.1694 77.4653C88.7264 77.3467 88.2544 77.4075 87.8557 77.6343C87.4571 77.8612 87.1637 78.236 87.039 78.6777C86.9312 79.1206 86.9966 79.588 87.2218 79.9843C87.447 80.3806 87.815 80.6758 88.2505 80.8096C89.9021 81.3723 91.6397 81.6401 93.3839 81.6008C95.2223 81.6648 97.0527 81.3283 98.7483 80.6144C99.585 80.2548 99.8365 78.9653 99.3694 78.2461C99.1297 77.8587 98.7505 77.5782 98.3101 77.4625C97.8697 77.3469 97.4019 77.4049 97.003 77.6245H97.0081Z" fill="#B87EEE"/>
<path d="M93.4967 80.1901C91.9426 80.1836 90.3973 79.9553 88.9075 79.512C88.8752 79.5025 88.845 79.4868 88.8187 79.4657C88.7924 79.4445 88.7705 79.4185 88.7543 79.3889C88.738 79.3593 88.7278 79.3268 88.7242 79.2933C88.7205 79.2598 88.7235 79.2258 88.7329 79.1934C88.7532 79.1288 88.7976 79.0745 88.8569 79.042C88.9162 79.0094 88.986 79.0011 89.0513 79.0188C93.9999 80.4675 97.4546 79.0188 97.4854 79.0188C97.5489 78.9943 97.6193 78.9951 97.6823 79.0209C97.7453 79.0466 97.796 79.0955 97.8242 79.1575C97.8375 79.1884 97.8446 79.2218 97.8448 79.2555C97.8451 79.2892 97.8385 79.3227 97.8255 79.3538C97.8126 79.385 97.7936 79.4132 97.7695 79.4368C97.7455 79.4605 97.7169 79.479 97.6855 79.4914C96.345 79.9835 94.9243 80.2204 93.4967 80.1901Z" fill="black"/>
<path d="M87.6305 65.8425C88.654 65.8425 89.4837 65.3273 89.4837 64.6918C89.4837 64.0562 88.654 63.541 87.6305 63.541C86.607 63.541 85.7773 64.0562 85.7773 64.6918C85.7773 65.3273 86.607 65.8425 87.6305 65.8425Z" fill="#B87EEE"/>
<path d="M97.3258 65.6023C98.3493 65.6023 99.179 65.0871 99.179 64.4515C99.179 63.816 98.3493 63.3008 97.3258 63.3008C96.3023 63.3008 95.4727 63.816 95.4727 64.4515C95.4727 65.0871 96.3023 65.6023 97.3258 65.6023Z" fill="#B87EEE"/>
<path d="M94.5625 91.1508C94.6683 90.9525 94.8132 90.7777 94.9885 90.6371C96.0665 89.7792 100.635 86.3424 102.74 88.3819C104.845 90.4214 105.219 100.984 105.307 104.081C105.315 104.341 105.259 104.6 105.144 104.833C105.03 105.067 104.86 105.269 104.65 105.422L103.274 106.424C103.037 106.603 102.755 106.712 102.46 106.74C102.165 106.768 101.868 106.714 101.602 106.583C101.336 106.452 101.111 106.25 100.953 105.998C100.795 105.747 100.71 105.457 100.707 105.16C100.63 100.686 100.425 92.9232 99.9577 92.8718C98.7225 92.9615 97.4946 93.1331 96.2821 93.3855C95.9992 93.4421 95.7063 93.4207 95.4347 93.3235C95.163 93.2264 94.9229 93.0571 94.74 92.8339C94.557 92.6107 94.4381 92.342 94.396 92.0563C94.3538 91.7707 94.3901 91.4791 94.5009 91.2125C94.5231 91.1937 94.5438 91.1731 94.5625 91.1508Z" fill="white" stroke="#231815" stroke-width="1.02745" stroke-miterlimit="10"/>
<path d="M119.861 97.7524C119.861 97.7524 116.37 87.9917 106.956 97.8244C106.956 97.8244 103.778 100.65 101.52 106.337L119.861 97.7524Z" fill="white" stroke="#231815" stroke-width="1.02745" stroke-linecap="round" stroke-linejoin="round"/>
<path d="M111.51 103.734C116.51 101.32 120.196 98.6027 119.744 97.6649C119.291 96.7271 114.872 97.9241 109.873 100.338C104.873 102.753 101.187 105.47 101.639 106.408C102.091 107.346 106.511 106.149 111.51 103.734Z" fill="#231815" stroke="#231815" stroke-width="1.02745" stroke-linecap="round" stroke-linejoin="round"/>
<path d="M87.9691 89.0336C88.1721 88.9332 88.3947 88.8788 88.6211 88.8743C89.9968 88.8332 95.7206 88.8743 96.1723 91.7358C96.6086 94.5356 90.5821 103.3 88.7905 105.827C88.6395 106.04 88.439 106.212 88.2064 106.329C87.9738 106.446 87.7162 106.505 87.4558 106.5H85.7618C85.4639 106.5 85.172 106.417 84.9187 106.26C84.6654 106.103 84.4609 105.879 84.3281 105.612C84.1954 105.345 84.1395 105.046 84.167 104.75C84.1944 104.453 84.3041 104.17 84.4836 103.932C87.1118 100.336 91.6138 93.9859 91.2699 93.6571C90.2225 92.9938 89.1338 92.3984 88.0103 91.8745C87.7514 91.7479 87.5315 91.5536 87.3741 91.3122C87.2166 91.0708 87.1274 90.7912 87.1158 90.5032C87.1042 90.2151 87.1707 89.9293 87.3083 89.676C87.4459 89.4227 87.6495 89.2114 87.8973 89.0644L87.9691 89.0336Z" fill="white" stroke="#231815" stroke-width="1.02745" stroke-miterlimit="10"/>
<path d="M104.216 109.531C104.216 109.531 107.296 99.6471 93.8671 101.825C93.8671 101.825 89.6269 102.169 84.4062 105.355L104.216 109.531Z" fill="white" stroke="#231815" stroke-width="1.02745" stroke-linecap="round" stroke-linejoin="round"/>
<path d="M104.058 109.484C104.26 108.463 100.01 106.759 94.5646 105.679C89.1194 104.6 84.5412 104.552 84.3389 105.573C84.1366 106.595 88.3869 108.298 93.8321 109.378C99.2773 110.458 103.855 110.506 104.058 109.484Z" fill="#231815" stroke="#231815" stroke-width="1.02745" stroke-linecap="round" stroke-linejoin="round"/>
<path d="M169.236 94.0152C168.939 94.0098 168.656 93.8878 168.447 93.6754C168.239 93.4631 168.122 93.1774 168.122 92.8798C168.047 88.0474 167.972 83.2235 167.896 78.4082C167.896 78.2746 167.896 78.1359 167.896 78.0023C167.866 75.4337 165.843 73.9902 163.369 74.6683C162.469 74.9712 161.496 74.9758 160.593 74.6816C159.691 74.3873 158.907 73.8098 158.359 73.0346C157.497 71.8912 157.015 70.5067 156.979 69.0751C156.943 67.6436 157.355 66.2366 158.158 65.0513C159.745 62.9143 161.593 62.4365 164.257 63.4691C167.481 64.7174 167.676 64.5839 167.629 61.1984C167.573 57.4996 167.522 53.7957 167.47 49.8965C167.468 49.5921 167.584 49.2987 167.796 49.0796C168.007 48.8605 168.296 48.7332 168.6 48.7252C173.066 48.6378 177.362 48.5351 181.654 48.5505C182.023 48.5505 182.48 49.4649 182.711 50.03C182.819 50.292 182.48 50.7338 182.347 51.0934C181.022 54.6073 181.808 56.9396 184.806 58.4346C187.804 59.9295 191.993 58.9483 193.368 56.169C193.969 54.9464 193.805 53.2511 193.676 51.7972C193.585 51.165 193.385 50.5533 193.086 49.9889C193.01 49.8256 192.974 49.6466 192.98 49.4667C192.987 49.2867 193.035 49.1108 193.122 48.9531C193.209 48.7955 193.332 48.6606 193.481 48.5594C193.63 48.4582 193.801 48.3936 193.979 48.3707C194.226 48.3336 194.474 48.3113 194.723 48.3039C200.103 48.1909 205.504 48.1601 210.868 47.9751C212.593 47.9135 213.075 48.4888 213.096 50.1893C213.214 61.7327 213.465 73.2709 213.609 84.8143C213.676 89.7358 210.575 93.3319 205.909 93.4398C193.686 93.7275 181.459 93.8456 169.231 94.0254L169.236 94.0152Z" fill="#1F1E24"/>
<path d="M183.162 76.9501C185.847 76.9501 188.023 74.5052 188.023 71.4892C188.023 68.4732 185.847 66.0283 183.162 66.0283C180.477 66.0283 178.301 68.4732 178.301 71.4892C178.301 74.5052 180.477 76.9501 183.162 76.9501Z" fill="white"/>
<path d="M183.825 74.6552C185.279 74.6552 186.458 73.305 186.458 71.6396C186.458 69.9741 185.279 68.624 183.825 68.624C182.37 68.624 181.191 69.9741 181.191 71.6396C181.191 73.305 182.37 74.6552 183.825 74.6552Z" fill="#231815"/>
<path d="M187.955 70.5572L178.715 69.242C179.046 68.3246 179.645 67.5279 180.434 66.9554C181.223 66.3828 182.166 66.0608 183.14 66.0312C185.563 66.0312 187.555 67.9834 187.955 70.5572Z" fill="#B87EEE"/>
<path d="M192.74 76.9501C195.425 76.9501 197.602 74.5052 197.602 71.4892C197.602 68.4732 195.425 66.0283 192.74 66.0283C190.055 66.0283 187.879 68.4732 187.879 71.4892C187.879 74.5052 190.055 76.9501 192.74 76.9501Z" fill="white"/>
<path d="M192.083 74.6552C193.537 74.6552 194.716 73.305 194.716 71.6396C194.716 69.9741 193.537 68.624 192.083 68.624C190.628 68.624 189.449 69.9741 189.449 71.6396C189.449 73.305 190.628 74.6552 192.083 74.6552Z" fill="#231815"/>
<path d="M187.949 70.5572L197.189 69.242C196.858 68.3238 196.258 67.5266 195.468 66.9539C194.678 66.3813 193.734 66.0598 192.759 66.0312C190.341 66.0312 188.35 67.9834 187.949 70.5572Z" fill="#B87EEE"/>
<path d="M186.677 65.8102C186.869 65.2042 186.232 64.4629 185.256 64.1546C184.28 63.8463 183.334 64.0876 183.143 64.6937C182.952 65.2997 183.588 66.041 184.564 66.3493C185.54 66.6576 186.486 66.4163 186.677 65.8102Z" fill="#B87EEE"/>
<path d="M191.369 65.5622C192.403 64.9649 192.983 64.0346 192.666 63.4842C192.348 62.9338 191.253 62.9718 190.219 63.569C189.186 64.1662 188.605 65.0966 188.923 65.647C189.24 66.1974 190.335 66.1594 191.369 65.5622Z" fill="#B87EEE"/>
<path d="M199.721 68.6641C199.721 68.6641 199.394 72.4216 196.062 72.4216C196.544 72.3612 197.033 72.4095 197.494 72.563C197.955 72.7165 198.375 72.9713 198.724 73.3087C199.074 73.646 199.343 74.0574 199.513 74.5126C199.683 74.9679 199.748 75.4553 199.705 75.9393C199.677 75.4679 199.749 74.9959 199.918 74.5547C200.086 74.1134 200.346 73.7131 200.681 73.3803C201.016 73.0475 201.417 72.7899 201.859 72.6246C202.301 72.4593 202.774 72.3901 203.244 72.4216C202.765 72.4125 202.291 72.3073 201.853 72.1123C201.414 71.9174 201.019 71.6365 200.691 71.2863C200.363 70.9361 200.108 70.5237 199.941 70.0733C199.775 69.623 199.7 69.1438 199.721 68.6641Z" fill="#B87EEE"/>
<path d="M184.231 80.4735C183.933 80.6225 184.513 80.3605 184.575 80.34C184.724 80.2783 184.878 80.2269 185.032 80.1756L185.504 80.042C185.571 80.042 186.217 79.8982 185.848 79.9598C186.553 79.8459 187.265 79.7807 187.978 79.7646C188.692 79.7646 189.405 79.7646 190.119 79.8005C189.754 79.7749 190.319 79.8005 190.391 79.8314C190.581 79.8571 190.766 79.8827 190.956 79.9187C191.331 79.9916 191.701 80.0876 192.064 80.2064C192.512 80.3027 192.979 80.2178 193.363 79.9704C193.748 79.723 194.019 79.3331 194.118 78.8861C194.202 78.4398 194.112 77.9781 193.867 77.596C193.621 77.2138 193.239 76.9402 192.798 76.8312C191.118 76.3551 189.366 76.1811 187.624 76.3175C185.785 76.3514 183.976 76.7844 182.321 77.5864C181.505 77.9922 181.325 79.292 181.808 79.9906C182.067 80.3661 182.459 80.6285 182.905 80.724C183.35 80.8195 183.816 80.7409 184.205 80.5043L184.231 80.4735Z" fill="#B87EEE"/>
<path d="M183.562 79.1355C183.513 79.1345 183.466 79.1201 183.425 79.0938C183.384 79.0675 183.352 79.0303 183.331 78.9865C183.316 78.9566 183.307 78.9239 183.305 78.8906C183.303 78.8572 183.308 78.8238 183.319 78.7922C183.33 78.7607 183.347 78.7316 183.369 78.7068C183.392 78.6819 183.419 78.6617 183.449 78.6475C183.593 78.5755 187.006 76.9419 192.217 78.1646C192.283 78.1804 192.339 78.2217 192.375 78.2795C192.411 78.3372 192.422 78.4067 192.407 78.4728C192.39 78.5381 192.348 78.5943 192.291 78.6297C192.233 78.6651 192.165 78.677 192.099 78.6629C187.078 77.4864 183.711 79.0893 183.675 79.1047C183.64 79.1243 183.601 79.1349 183.562 79.1355Z" fill="black"/>
<path d="M190.477 92.0071C190.262 91.9335 190.035 91.9055 189.809 91.9249C188.444 92.0431 182.756 92.6955 182.623 95.6186C182.505 98.4544 189.481 106.479 191.544 108.785C191.718 108.978 191.936 109.126 192.179 109.216C192.422 109.305 192.684 109.334 192.941 109.299L194.63 109.083C194.921 109.046 195.196 108.93 195.426 108.747C195.655 108.564 195.83 108.322 195.931 108.046C196.032 107.77 196.056 107.472 195.999 107.184C195.943 106.896 195.808 106.629 195.61 106.412C192.592 103.109 187.397 97.3293 187.715 96.9697C188.678 96.1917 189.692 95.4778 190.749 94.8326C190.993 94.6787 191.191 94.4611 191.321 94.2031C191.452 93.9452 191.509 93.6566 191.488 93.3684C191.467 93.0801 191.368 92.8031 191.202 92.5669C191.035 92.3307 190.808 92.1443 190.543 92.0277L190.477 92.0071Z" fill="white" stroke="#231815" stroke-width="1.02745" stroke-miterlimit="10"/>
<path d="M176.644 114.215C176.644 114.215 172.481 104.742 186.064 105.395C186.064 105.395 190.309 105.256 195.858 107.83L176.644 114.215Z" fill="white" stroke="#231815" stroke-width="1.02745" stroke-linecap="round" stroke-linejoin="round"/>
<path d="M186.846 112.937C192.135 111.25 196.166 109.078 195.85 108.086C195.534 107.094 190.99 107.657 185.701 109.345C180.413 111.032 176.381 113.204 176.697 114.196C177.013 115.188 181.557 114.624 186.846 112.937Z" fill="#231815" stroke="#231815" stroke-width="1.02745" stroke-linecap="round" stroke-linejoin="round"/>
<path d="M194.143 90.6515C194.015 90.4647 193.849 90.3071 193.656 90.1891C192.48 89.4802 187.496 86.665 185.678 88.9613C183.861 91.2577 184.852 101.779 185.165 104.861C185.19 105.12 185.279 105.369 185.423 105.586C185.567 105.803 185.762 105.981 185.991 106.104L187.48 106.921C187.738 107.062 188.029 107.13 188.322 107.117C188.616 107.104 188.9 107.01 189.143 106.846C189.387 106.682 189.581 106.455 189.704 106.188C189.827 105.921 189.875 105.626 189.841 105.334C189.328 100.885 188.532 93.1636 188.994 93.0557C190.231 92.9915 191.471 93.0087 192.706 93.1071C192.994 93.1266 193.282 93.0673 193.539 92.9355C193.796 92.8036 194.012 92.6043 194.165 92.3588C194.317 92.1133 194.4 91.8309 194.405 91.5419C194.409 91.2529 194.334 90.9682 194.189 90.7182L194.143 90.6515Z" fill="white" stroke="#231815" stroke-width="1.02745" stroke-miterlimit="10"/>
<path d="M169.914 100.473C169.914 100.473 172.111 90.3625 182.717 98.8698C182.717 98.8698 186.238 101.259 189.216 106.607L169.914 100.473Z" fill="white" stroke="#231815" stroke-width="1.02745" stroke-linecap="round" stroke-linejoin="round"/>
<path d="M188.947 106.764C189.273 105.775 185.266 103.56 179.995 101.816C174.725 100.071 170.188 99.4586 169.861 100.447C169.534 101.436 173.542 103.651 178.812 105.396C184.083 107.14 188.62 107.753 188.947 106.764Z" fill="#231815" stroke="#231815" stroke-width="1.02745" stroke-linecap="round" stroke-linejoin="round"/>
</g>
<defs>
<clipPath id="clip0_13676_38875">
<rect width="241.434" height="121.785" fill="white" transform="translate(0 0.505859)"/>
</clipPath>
</defs>
</svg>
